<?xml version="1.0" standalone="no"?>
<!DOCTYPE svg PUBLIC "-//W3C//DTD SVG 1.0//EN" "http://www.w3.org/TR/2001/REC-SVG-20010904/DTD/svg10.dtd">
<svg xmlns="http://www.w3.org/2000/svg" xmlns:xlink="http://www.w3.org/1999/xlink" id="body_1" width="123" height="123">

<g transform="matrix(0.24023438 0 0 0.24023438 0 0)">
	<g transform="matrix(0.1 0 -0 -0.1 0 512)">
        <path d="M4070 5113C 3921 5090 3760 4971 3686 4830C 3639 4741 3620 4663 3620 4560C 3620 4436 3651 4340 3718 4251C 3735 4228 3740 4215 3732 4212C 3694 4200 3560 4100 3497 4038C 3382 3924 3314 3813 3260 3652C 3226 3548 3210 3419 3210 3236L3210 3236L3210 3101L3145 3150C 3109 3177 3060 3211 3035 3225C 3010 3240 2990 3254 2990 3257C 2990 3259 3001 3276 3014 3293C 3096 3403 3129 3566 3099 3712C 3093 3741 3070 3803 3048 3848C 2958 4037 2772 4154 2560 4154C 2348 4154 2162 4037 2071 3848C 2022 3745 2006 3664 2013 3557C 2019 3463 2045 3384 2096 3308C 2115 3280 2129 3256 2128 3254C 2126 3253 2091 3229 2049 3202C 1832 3060 1679 2840 1629 2595C 1615 2526 1610 2461 1610 2318L1610 2318L1610 2130L1538 2186C 1498 2217 1447 2251 1425 2262C 1403 2273 1384 2284 1382 2285C 1381 2286 1395 2310 1414 2338C 1472 2425 1493 2492 1498 2611C 1501 2692 1498 2732 1485 2776C 1412 3029 1205 3190 953 3190C 801 3190 677 3138 569 3029C 386 2846 350 2551 485 2350C 504 2321 520 2295 520 2291C 519 2288 481 2260 434 2230C 286 2136 152 1978 83 1819C 25 1685 8 1603 3 1417C -3 1231 6 1158 47 1072C 83 995 177 899 255 858L255 858L320 825L320 476C 320 147 321 124 340 85C 353 58 374 36 399 22L399 22L439 -1L964 2C 1479 5 1489 5 1517 26C 1532 38 1554 62 1565 81C 1584 113 1585 136 1588 471L1588 471L1591 826L1643 852C 1788 923 1889 1074 1906 1246C 1923 1412 1930 1262 1930 715C 1930 60 1929 74 1991 29L1991 29L2025 5L2560 5L3095 5L3129 29C 3191 74 3190 60 3190 712L3190 712L3190 1305L3255 1339C 3408 1418 3510 1579 3510 1741C 3510 1773 3514 1800 3520 1800C 3526 1800 3531 1498 3532 957C 3535 136 3535 114 3555 81C 3566 62 3588 38 3603 26C 3631 5 3641 5 4156 2L4156 2L4681 -1L4721 22C 4746 36 4767 58 4780 85C 4800 125 4800 147 4800 958L4800 958L4800 1789L4858 1817C 4929 1851 5029 1948 5064 2018C 5120 2128 5120 2131 5120 2811C 5120 3500 5118 3532 5060 3693C 4985 3898 4826 4082 4615 4206C 4598 4216 4599 4220 4633 4276C 4738 4446 4745 4636 4653 4820C 4546 5032 4310 5151 4070 5113zM4273 4795C 4321 4772 4365 4729 4391 4679C 4450 4561 4403 4409 4287 4347C 4254 4330 4228 4325 4164 4325C 4092 4325 4078 4328 4034 4355C 3964 4399 3927 4463 3922 4550C 3917 4633 3930 4674 3976 4729C 4011 4769 4049 4795 4100 4811C 4139 4824 4231 4816 4273 4795zM4315 3995C 4493 3958 4668 3825 4743 3670C 4816 3519 4814 3546 4818 2840L4818 2840L4821 2205L4797 2160C 4770 2108 4713 2070 4661 2070C 4607 2070 4547 2036 4522 1991L4522 1991L4500 1952L4500 1126L4500 300L4165 300L3830 300L3830 1133C 3830 1950 3830 1966 3810 1998C 3787 2036 3722 2069 3672 2070C 3605 2070 3540 2127 3520 2201C 3512 2229 3510 2433 3512 2853C 3516 3454 3517 3466 3539 3540C 3595 3725 3705 3861 3861 3938C 3908 3962 3976 3987 4011 3995C 4096 4013 4228 4013 4315 3995zM2663 3833C 2711 3814 2783 3734 2798 3682C 2835 3561 2784 3438 2675 3385C 2505 3301 2310 3417 2310 3603C 2310 3665 2330 3717 2373 3766C 2451 3854 2550 3877 2663 3833zM2735 3025C 2911 2979 3064 2856 3138 2700C 3206 2556 3210 2523 3210 2087C 3210 1704 3210 1703 3187 1669C 3155 1621 3109 1594 3051 1587C 2987 1579 2948 1559 2918 1518L2918 1518L2895 1485L2892 893L2889 300L2560 300L2231 300L2228 893L2225 1485L2202 1518C 2172 1559 2133 1579 2069 1587C 2011 1594 1965 1621 1933 1669C 1910 1703 1910 1704 1910 2089C 1910 2527 1915 2564 1980 2697C 2067 2873 2226 2993 2429 3036C 2509 3052 2650 3048 2735 3025zM1032 2878C 1083 2863 1158 2796 1181 2745C 1204 2695 1206 2593 1184 2542C 1165 2495 1116 2444 1065 2417C 1036 2401 1007 2396 955 2395C 828 2395 734 2468 710 2587C 670 2779 842 2935 1032 2878zM1130 2064C 1317 2008 1465 1880 1545 1705C 1594 1598 1605 1542 1605 1375C 1605 1236 1603 1222 1582 1188C 1551 1138 1507 1113 1430 1101C 1373 1092 1360 1085 1328 1051L1328 1051L1290 1011L1290 655L1290 300L955 300L620 300L620 643C 620 949 618 989 602 1020C 579 1066 532 1096 471 1103C 406 1111 368 1131 333 1177C 306 1212 305 1218 302 1353C 298 1522 314 1609 371 1726C 459 1907 630 2035 841 2080C 902 2093 1064 2084 1130 2064z" stroke="none" fill="#000000" fill-rule="nonzero" />
	</g>
</g>
</svg>