<svg width="220" height="34" viewBox="0 0 220 34" fill="none" xmlns="http://www.w3.org/2000/svg">
<path d="M10.5 14H13.5V12C13.5 11.8674 13.4473 11.7402 13.3536 11.6465C13.2598 11.5527 13.1326 11.5 13 11.5H11C10.8674 11.5 10.7402 11.5527 10.6464 11.6465C10.5527 11.7402 10.5 11.8674 10.5 12V14Z" fill="black" fill-opacity="0.1"/>
<path d="M13.5 20H16.5V12C16.5 11.8674 16.4473 11.7402 16.3536 11.6465C16.2598 11.5527 16.1326 11.5 16 11.5H14C13.8674 11.5 13.7402 11.5527 13.6464 11.6465C13.5527 11.7402 13.5 11.8674 13.5 12V20Z" fill="black" fill-opacity="0.1"/>
<path d="M18.7002 20.2L21.6002 19.4187L22.119 21.35C22.1359 21.4136 22.1401 21.4799 22.1314 21.5452C22.1227 21.6104 22.1011 21.6733 22.0681 21.7302C22.035 21.7871 21.9909 21.8369 21.9385 21.8768C21.8861 21.9166 21.8264 21.9458 21.7627 21.9624L19.8314 22.4812C19.7038 22.5157 19.5677 22.4982 19.4529 22.4326C19.3381 22.3671 19.254 22.2587 19.2189 22.1312L18.7002 20.2Z" fill="black" fill-opacity="0.1"/>
<path d="M17.15 14.4L20.05 13.625L19.5312 11.6938C19.4961 11.566 19.4122 11.4573 19.2977 11.3906C19.1832 11.3241 19.0472 11.3051 18.9188 11.3375L16.9875 11.8563C16.8598 11.8915 16.751 11.9753 16.6844 12.0898C16.6177 12.2043 16.5987 12.3405 16.6312 12.4688L17.15 14.4Z" fill="black" fill-opacity="0.1"/>
<path fill-rule="evenodd" clip-rule="evenodd" d="M10 12C10 12 10 11.5858 10.2929 11.2929C10.2929 11.2929 10.5858 11 11 11H13C13 11 13.4142 11 13.7071 11.2929C13.7071 11.2929 14 11.5858 14 12V22C14 22 14 22.4142 13.7071 22.7071C13.7071 22.7071 13.4142 23 13 23H11C11 23 10.5858 23 10.2929 22.7071C10.2929 22.7071 10 22.4142 10 22V12ZM11 12V22H13V12H11Z" fill="#1C1C1C"/>
<path d="M10.5 14.5H13.5C13.7761 14.5 14 14.2761 14 14C14 13.7239 13.7761 13.5 13.5 13.5H10.5C10.2239 13.5 10 13.7239 10 14C10 14.2761 10.2239 14.5 10.5 14.5Z" fill="#1C1C1C"/>
<path fill-rule="evenodd" clip-rule="evenodd" d="M13 12C13 12 13 11.5858 13.2929 11.2929C13.2929 11.2929 13.5858 11 14 11H16C16 11 16.4142 11 16.7071 11.2929C16.7071 11.2929 17 11.5858 17 12V22C17 22 17 22.4142 16.7071 22.7071C16.7071 22.7071 16.4142 23 16 23H14C14 23 13.5858 23 13.2929 22.7071C13.2929 22.7071 13 22.4142 13 22V12ZM14 12V22H16V12H14Z" fill="#1C1C1C"/>
<path d="M13.5 20.5H16.5C16.7761 20.5 17 20.2761 17 20C17 19.7239 16.7761 19.5 16.5 19.5H13.5C13.2239 19.5 13 19.7239 13 20C13 20.2761 13.2239 20.5 13.5 20.5Z" fill="#1C1C1C"/>
<path fill-rule="evenodd" clip-rule="evenodd" d="M16.147 12.5993C16.147 12.5993 16.0398 12.1992 16.2469 11.8405C16.2469 11.8405 16.454 11.4818 16.8541 11.3746L18.786 10.857C18.786 10.857 19.1861 10.7498 19.5448 10.9569C19.5448 10.9569 19.9035 11.164 20.0107 11.5641L22.5989 21.2233C22.5989 21.2233 22.7061 21.6234 22.499 21.9822C22.499 21.9822 22.2919 22.3409 21.8918 22.4481L19.9599 22.9657C19.9599 22.9657 19.5598 23.0729 19.2011 22.8658C19.2011 22.8658 18.8424 22.6587 18.7352 22.2586L16.147 12.5993ZM17.1129 12.3405L19.7011 21.9998L21.633 21.4821L19.0448 11.8229L17.1129 12.3405Z" fill="#1C1C1C"/>
<path d="M18.8303 20.6827L21.7303 19.9015C21.8583 19.867 21.9674 19.783 22.0335 19.6681C22.0772 19.5922 22.1002 19.5062 22.1002 19.4187L22.1001 19.409C22.0993 19.3683 22.0936 19.3279 22.083 19.2886C22.0242 19.0704 21.8262 18.9187 21.6002 18.9187L21.5959 18.9187C21.5534 18.9191 21.5112 18.9249 21.4701 18.9359L18.5701 19.7172C18.3519 19.776 18.2002 19.9739 18.2002 20.2L18.2002 20.2042C18.2006 20.2467 18.2064 20.289 18.2174 20.33C18.2762 20.5483 18.4741 20.7 18.7002 20.7L18.7045 20.6999C18.747 20.6996 18.7892 20.6938 18.8303 20.6827Z" fill="#1C1C1C"/>
<path d="M17.279 14.883L20.179 14.108C20.3071 14.0738 20.4164 13.9901 20.4828 13.8753C20.5267 13.7992 20.5499 13.7129 20.5499 13.625L20.5498 13.6163C20.5491 13.5757 20.5435 13.5352 20.533 13.4959C20.4745 13.2772 20.2763 13.125 20.0499 13.125L20.0466 13.125C20.0041 13.1253 19.9619 13.131 19.9208 13.142L17.0208 13.917C16.8021 13.9754 16.6499 14.1736 16.6499 14.4L16.6499 14.4033C16.6502 14.4458 16.6559 14.488 16.6669 14.5291C16.7253 14.7478 16.9235 14.9 17.1499 14.9L17.1532 14.9C17.1957 14.8997 17.2379 14.894 17.279 14.883Z" fill="#1C1C1C"/>
<path d="M33.9815 21H32.294L35.3665 12.2727H37.3182L40.3949 21H38.7074L36.3764 14.0625H36.3082L33.9815 21ZM34.0369 17.5781H38.6392V18.848H34.0369V17.5781ZM35.75 11.4119L36.7045 9.46449H38.2131L36.9048 11.4119H35.75ZM41.4762 21V14.4545H42.9719V15.5455H43.0401C43.1594 15.1676 43.364 14.8764 43.6538 14.6719C43.9464 14.4645 44.2802 14.3608 44.6552 14.3608C44.7404 14.3608 44.8356 14.3651 44.9407 14.3736C45.0487 14.3793 45.1381 14.3892 45.2092 14.4034V15.8224C45.1438 15.7997 45.0401 15.7798 44.8981 15.7628C44.7589 15.7429 44.6239 15.733 44.4933 15.733C44.212 15.733 43.9592 15.794 43.7347 15.9162C43.5131 16.0355 43.3384 16.2017 43.2106 16.4148C43.0827 16.6278 43.0188 16.8736 43.0188 17.152V21H41.4762ZM48.8622 21.1278C48.206 21.1278 47.6392 20.9915 47.1619 20.7188C46.6875 20.4432 46.3224 20.054 46.0668 19.5511C45.8111 19.0455 45.6832 18.4503 45.6832 17.7656C45.6832 17.0923 45.8111 16.5014 46.0668 15.9929C46.3253 15.4815 46.6861 15.0838 47.1491 14.7997C47.6122 14.5128 48.1562 14.3693 48.7812 14.3693C49.1847 14.3693 49.5653 14.4347 49.9233 14.5653C50.2841 14.6932 50.6023 14.892 50.8778 15.1619C51.1563 15.4318 51.375 15.7756 51.5341 16.1932C51.6932 16.608 51.7727 17.1023 51.7727 17.6761V18.1491H46.4077V17.1094H50.294C50.2912 16.8139 50.2273 16.5511 50.1023 16.321C49.9773 16.0881 49.8026 15.9048 49.5781 15.7713C49.3565 15.6378 49.098 15.571 48.8026 15.571C48.4872 15.571 48.2102 15.6477 47.9716 15.8011C47.733 15.9517 47.5469 16.1506 47.4134 16.3977C47.2827 16.642 47.2159 16.9105 47.2131 17.2031V18.1108C47.2131 18.4915 47.2827 18.8182 47.4219 19.0909C47.5611 19.3608 47.7557 19.5682 48.0057 19.7131C48.2557 19.8551 48.5483 19.9261 48.8835 19.9261C49.108 19.9261 49.3111 19.8949 49.4929 19.8324C49.6747 19.767 49.8324 19.6719 49.9659 19.5469C50.0994 19.4219 50.2003 19.267 50.2685 19.0824L51.7088 19.2443C51.6179 19.625 51.4446 19.9574 51.1889 20.2415C50.9361 20.5227 50.6122 20.7415 50.2173 20.8977C49.8224 21.0511 49.3707 21.1278 48.8622 21.1278ZM54.9613 21.1321C54.5465 21.1321 54.1729 21.0582 53.8406 20.9105C53.511 20.7599 53.2496 20.5384 53.0565 20.2457C52.8661 19.9531 52.771 19.5923 52.771 19.1634C52.771 18.794 52.8391 18.4886 52.9755 18.2472C53.1119 18.0057 53.2979 17.8125 53.5337 17.6676C53.7695 17.5227 54.0352 17.4134 54.3306 17.3395C54.6289 17.2628 54.9371 17.2074 55.2553 17.1733C55.6388 17.1335 55.9499 17.098 56.1886 17.0668C56.4272 17.0327 56.6005 16.9815 56.7085 16.9134C56.8192 16.8423 56.8746 16.733 56.8746 16.5852V16.5597C56.8746 16.2386 56.7795 15.9901 56.5891 15.8139C56.3988 15.6378 56.1246 15.5497 55.7667 15.5497C55.3888 15.5497 55.0891 15.6321 54.8675 15.7969C54.6488 15.9616 54.5011 16.1562 54.4244 16.3807L52.984 16.1761C53.0977 15.7784 53.2852 15.446 53.5465 15.179C53.8079 14.9091 54.1275 14.7074 54.5053 14.5739C54.8832 14.4375 55.3008 14.3693 55.7582 14.3693C56.0735 14.3693 56.3874 14.4062 56.6999 14.4801C57.0124 14.554 57.2979 14.6761 57.5565 14.8466C57.815 15.0142 58.0224 15.2429 58.1786 15.5327C58.3377 15.8224 58.4173 16.1847 58.4173 16.6193V21H56.9343V20.1009H56.8832C56.7894 20.2827 56.6573 20.4531 56.4869 20.6122C56.3192 20.7685 56.1076 20.8949 55.8519 20.9915C55.5991 21.0852 55.3022 21.1321 54.9613 21.1321ZM55.3619 19.9986C55.6715 19.9986 55.94 19.9375 56.1673 19.8153C56.3945 19.6903 56.5692 19.5256 56.6914 19.321C56.8164 19.1165 56.8789 18.8935 56.8789 18.652V17.8807C56.8306 17.9205 56.7482 17.9574 56.6317 17.9915C56.5181 18.0256 56.3903 18.0554 56.2482 18.081C56.1062 18.1065 55.9656 18.1293 55.8263 18.1491C55.6871 18.169 55.5664 18.1861 55.4641 18.2003C55.234 18.2315 55.0281 18.2827 54.8462 18.3537C54.6644 18.4247 54.521 18.5241 54.4158 18.652C54.3107 18.777 54.2582 18.9389 54.2582 19.1378C54.2582 19.4219 54.3619 19.6364 54.5692 19.7812C54.7766 19.9261 55.0408 19.9986 55.3619 19.9986Z" fill="#1C1C1C"/>
<path fill-rule="evenodd" clip-rule="evenodd" d="M210.854 15.1464C211.049 15.3417 211.049 15.6583 210.854 15.8536L208.354 18.3536C208.158 18.5488 207.842 18.5488 207.646 18.3536L205.146 15.8536C204.951 15.6583 204.951 15.3417 205.146 15.1464C205.342 14.9512 205.658 14.9512 205.854 15.1464L208 17.2929L210.146 15.1464C210.342 14.9512 210.658 14.9512 210.854 15.1464Z" fill="#1C1C1C"/>
</svg>
