<svg width="20" height="21" viewBox="0 0 20 21" fill="none" xmlns="http://www.w3.org/2000/svg">
<path d="M16.0113 11.465H18.125C18.4702 11.465 18.75 11.1852 18.75 10.84C18.75 10.4948 18.4702 10.215 18.125 10.215H15.625C15.3883 10.215 15.1719 10.3487 15.066 10.5605L12.5774 15.5376L8.08405 3.7425C8.02504 3.5876 7.90692 3.46248 7.75566 3.39468C7.6044 3.32687 7.4324 3.32193 7.2775 3.38094C7.12366 3.43955 6.99915 3.55649 6.93102 3.70637L3.97255 10.215H1.875C1.52982 10.215 1.25 10.4948 1.25 10.84C1.25 11.1852 1.52982 11.465 1.875 11.465H4.375C4.62009 11.465 4.84256 11.3217 4.94398 11.0986L7.44917 5.58721L11.9159 17.3125C11.9717 17.4589 12.0804 17.579 12.2205 17.649C12.3688 17.7231 12.5404 17.7353 12.6976 17.6829C12.8549 17.6305 12.9849 17.5178 13.059 17.3695L16.0113 11.465Z" fill="#1C1C1C"/>
</svg>
