<svg width="32" height="33" viewBox="0 0 32 33" fill="none" xmlns="http://www.w3.org/2000/svg">
<path fill-rule="evenodd" clip-rule="evenodd" d="M2 16.2599C2 16.2599 6 7.2599 16 7.2599C26 7.2599 30 16.2599 30 16.2599C30 16.2599 26 25.2599 16 25.2599C6 25.2599 2 16.2599 2 16.2599ZM13.2222 20.4173C14.0444 20.9667 15.0111 21.2599 16 21.2599C17.3261 21.2599 18.5978 20.7332 19.5355 19.7954C20.4732 18.8578 21 17.586 21 16.2599C21 15.271 20.7068 14.3043 20.1573 13.4821C19.6079 12.6598 18.827 12.0189 17.9134 11.6405C16.9998 11.2621 15.9944 11.1631 15.0245 11.356C14.0546 11.5488 13.1638 12.0252 12.4645 12.7244C11.7652 13.4236 11.289 14.3146 11.0961 15.2844C10.9031 16.2544 11.0021 17.2597 11.3806 18.1734C11.759 19.0869 12.3999 19.8678 13.2222 20.4173Z" fill="black" fill-opacity="0.1"/>
<path d="M6.73994 4.58723C6.72927 4.57549 6.71832 4.56401 6.70711 4.5528C6.5312 4.37689 6.29605 4.27287 6.04757 4.26103L6.04458 4.2609C6.02973 4.26023 6.01487 4.2599 6 4.2599C5.75123 4.2599 5.5114 4.35262 5.32733 4.51996C5.31559 4.53063 5.30411 4.54158 5.29289 4.5528C5.11699 4.7287 5.01296 4.96385 5.00113 5.21234L5.00099 5.21532C5.00033 5.23017 5 5.24504 5 5.2599C5 5.50867 5.09272 5.7485 5.26006 5.93258L25.2601 27.9326C25.4496 28.1411 25.7183 28.2599 26 28.2599L26.0042 28.2599C26.2515 28.2589 26.4897 28.1662 26.6727 27.9998C26.8811 27.8103 27 27.5417 27 27.2599L27 27.2557C26.999 27.0084 26.9063 26.7702 26.7399 26.5872L6.73994 4.58723Z" fill="#B1B1B1"/>
<path d="M13.3092 13.3005L13.3099 13.2999C13.5061 13.1215 13.6235 12.8725 13.6361 12.6076C13.6369 12.5917 13.6373 12.5758 13.6373 12.5599L13.6373 12.5595C13.6372 12.3109 13.5445 12.0713 13.3773 11.8873C13.1989 11.691 12.9498 11.5737 12.6849 11.561C12.6691 11.5603 12.6532 11.5599 12.6373 11.5599L12.6369 11.5599C12.3883 11.56 12.1486 11.6527 11.9647 11.8199C10.5889 13.0704 10.1612 14.8796 10.1612 14.8796C9.73355 16.6888 10.4038 18.4229 10.4038 18.4229C11.074 20.157 12.6073 21.2084 12.6073 21.2084C14.1406 22.2597 15.9997 22.2599 15.9997 22.2599C18.3224 22.2687 20.0378 20.6973 20.0378 20.6973C20.2333 20.5181 20.3497 20.2686 20.3613 20.0037C20.362 19.9891 20.3623 19.9745 20.3623 19.9599L20.3623 19.9556C20.3612 19.707 20.2676 19.4677 20.0996 19.2844C19.9102 19.0776 19.6427 18.9599 19.3623 18.9599L19.3543 18.9599C19.107 18.9619 18.8691 19.0555 18.6868 19.2225C17.548 20.2658 15.9999 20.2599 15.9999 20.2599C14.7605 20.2598 13.7383 19.5589 13.7383 19.5589C12.7161 18.858 12.2693 17.7019 12.2693 17.7019C11.8225 16.5459 12.1076 15.3397 12.1076 15.3397C12.3926 14.134 13.3092 13.3005 13.3092 13.3005Z" fill="#B1B1B1"/>
<path d="M9.69925 9.72831C6.71684 11.2346 4.50644 14.121 4.50644 14.121C3.60312 15.3006 3.11135 16.2547 3.11135 16.2547C3.31459 16.6364 3.62748 17.1333 3.62748 17.1333C4.6302 18.7259 5.95711 20.0528 5.95711 20.0528C10.1642 24.2599 16.0082 24.2599 16.0082 24.2599C19.3317 24.287 22.3001 22.7918 22.3001 22.7918C22.4277 22.7275 22.5675 22.6914 22.7102 22.6857C22.7235 22.6852 22.7367 22.6849 22.75 22.6849C23.1277 22.6849 23.4732 22.8977 23.6431 23.235C23.7073 23.3626 23.7435 23.5024 23.7492 23.6451C23.7497 23.6584 23.75 23.6716 23.75 23.6849C23.75 24.0626 23.5372 24.4081 23.1999 24.578C19.7993 26.2909 15.9918 26.2599 15.9918 26.2599C9.33578 26.2599 4.54289 21.467 4.54289 21.467C3.0573 19.9814 1.93502 18.199 1.93502 18.199C1.36542 17.2943 1.08619 16.666 1.08619 16.666C0.971406 16.4078 0.971265 16.113 1.0858 15.8546C1.6714 14.5336 2.91856 12.905 2.91856 12.905C5.40756 9.65476 8.79914 7.94231 8.79914 7.94231C8.93905 7.87166 9.09343 7.8349 9.25 7.8349C9.35122 7.8349 9.45186 7.85027 9.54847 7.88048L9.56251 7.88499C9.81127 7.96683 10.018 8.14298 10.1383 8.37561L10.1427 8.38419C10.2132 8.52396 10.25 8.67833 10.25 8.8349C10.25 8.93612 10.2346 9.03676 10.2044 9.13337L10.1999 9.14741C10.1181 9.39617 9.94192 9.6029 9.70929 9.72318L9.70071 9.72757L9.69925 9.72831Z" fill="#B1B1B1"/>
<path d="M13.2475 6.48613C12.9859 6.52991 12.7525 6.67582 12.5985 6.89174C12.4776 7.06123 12.4126 7.26422 12.4126 7.4724L12.4126 7.48068C12.4131 7.53323 12.4176 7.58567 12.4263 7.6375C12.4701 7.89908 12.616 8.13255 12.8319 8.28655C13.0014 8.40743 13.2044 8.4724 13.4126 8.4724L13.4209 8.47237C13.4734 8.47193 13.5259 8.46736 13.5777 8.45868C14.7796 8.2575 15.9981 8.2599 15.9981 8.2599C21.8359 8.2599 26.043 12.467 26.043 12.467C27.3699 13.7939 28.3726 15.3865 28.3726 15.3865C28.6838 15.8808 28.8866 16.261 28.8866 16.261C28.6322 16.7408 28.2225 17.3673 28.2225 17.3673C27.014 19.2155 25.41 20.6506 25.41 20.6506L25.4091 20.6514L25.4084 20.6521C25.1963 20.8418 25.0751 21.1129 25.0751 21.3974C25.0751 21.4133 25.0755 21.4293 25.0762 21.4452C25.0872 21.6745 25.1767 21.893 25.3298 22.0641C25.5195 22.2762 25.7905 22.3974 26.0751 22.3974C26.091 22.3974 26.107 22.397 26.1229 22.3963C26.3522 22.3853 26.5707 22.2958 26.7418 22.1427L26.7423 22.1423C28.5433 20.5312 29.8964 18.4619 29.8964 18.4619C30.5812 17.4147 30.9139 16.666 30.9139 16.666C31.0288 16.4075 31.0288 16.1123 30.9139 15.8538C30.6347 15.2255 30.0651 14.3208 30.0651 14.3208C28.9428 12.5384 27.4572 11.0528 27.4572 11.0528C22.6643 6.2599 16.0021 6.2599 16.0021 6.2599C14.6155 6.25717 13.248 6.48604 13.248 6.48604L13.2475 6.48613Z" fill="#B1B1B1"/>
<path d="M18.9584 13.5642C19.8556 14.5503 19.9793 15.8777 19.9793 15.8777C20.0272 16.3918 20.4587 16.7849 20.975 16.7849L20.978 16.7849C21.0079 16.7848 21.0379 16.7834 21.0678 16.7806C21.5819 16.7327 21.975 16.3012 21.975 15.7849L21.975 15.7819C21.9749 15.7519 21.9735 15.722 21.9707 15.6921L21.9706 15.6915C21.7847 13.6987 20.4377 12.2182 20.4377 12.2182C19.0905 10.7375 17.1237 10.3649 17.1237 10.3649C17.0623 10.3532 17 10.3474 16.9375 10.3474C16.907 10.3474 16.8765 10.3488 16.8461 10.3516C16.4017 10.3924 16.0381 10.7227 15.955 11.1612C15.9434 11.2226 15.9375 11.2849 15.9375 11.3474L15.9375 11.3546C15.939 11.553 15.9994 11.7465 16.1111 11.9105C16.2605 12.1297 16.4908 12.2805 16.7513 12.3299C18.0612 12.5781 18.9584 13.5642 18.9584 13.5642Z" fill="#B1B1B1"/>
</svg>