<svg width="32" height="33" viewBox="0 0 32 33" fill="none" xmlns="http://www.w3.org/2000/svg">
<path fill-rule="evenodd" clip-rule="evenodd" d="M2 16.8599C2 16.8599 6 7.85991 16 7.85991C26 7.85991 30 16.8599 30 16.8599C30 16.8599 26 25.8599 16 25.8599C6 25.8599 2 16.8599 2 16.8599ZM13.2222 21.0173C14.0444 21.5667 15.0111 21.8599 16 21.8599C17.326 21.8599 18.5979 21.3332 19.5355 20.3954C20.4733 19.4578 21 18.186 21 16.8599C21 15.871 20.7068 14.9043 20.1573 14.0821C19.6079 13.2598 18.827 12.6189 17.9135 12.2405C16.9998 11.8621 15.9945 11.7631 15.0245 11.956C14.0547 12.1488 13.1637 12.6252 12.4645 13.3244C11.7653 14.0236 11.2889 14.9146 11.0961 15.8844C10.9032 16.8544 11.0022 17.8597 11.3806 18.7734C11.759 19.6869 12.3999 20.4678 13.2222 21.0173Z" fill="black" fill-opacity="0.1"/>
<path fill-rule="evenodd" clip-rule="evenodd" d="M30.9138 17.266C30.9138 17.266 30.6346 17.8943 30.065 18.799C30.065 18.799 28.9427 20.5814 27.4571 22.067C27.4571 22.067 22.6642 26.8599 16 26.8599C16 26.8599 9.33579 26.8599 4.54289 22.067C4.54289 22.067 3.0573 20.5814 1.93502 18.799C1.93502 18.799 1.36542 17.8943 1.08619 17.266C0.971271 17.0075 0.971271 16.7123 1.08619 16.4538C1.08619 16.4538 1.36542 15.8255 1.93502 14.9208C1.93502 14.9208 3.0573 13.1384 4.54289 11.6528C4.54289 11.6528 9.33579 6.85991 16 6.85991C16 6.85991 22.6642 6.85991 27.4571 11.6528C27.4571 11.6528 28.9427 13.1384 30.065 14.9208C30.065 14.9208 30.6346 15.8255 30.9138 16.4538C31.0287 16.7123 31.0287 17.0075 30.9138 17.266ZM28.3725 17.7333C28.3725 17.7333 28.6833 17.2398 28.8859 16.8599C28.8859 16.8599 28.6833 16.4801 28.3725 15.9865C28.3725 15.9865 27.3698 14.3939 26.0429 13.067C26.0429 13.067 21.8358 8.85991 16 8.85991C16 8.85991 10.1642 8.85991 5.95711 13.067C5.95711 13.067 4.6302 14.3939 3.62748 15.9865C3.62748 15.9865 3.31671 16.4801 3.11411 16.8599C3.11411 16.8599 3.31671 17.2398 3.62748 17.7333C3.62748 17.7333 4.6302 19.3259 5.95711 20.6528C5.95711 20.6528 10.1642 24.8599 16 24.8599C16 24.8599 21.8358 24.8599 26.0429 20.6528C26.0429 20.6528 27.3698 19.3259 28.3725 17.7333Z" fill="#4F4F4F"/>
<path fill-rule="evenodd" clip-rule="evenodd" d="M16 10.8599C16 10.8599 18.4853 10.8599 20.2426 12.6173C20.2426 12.6173 22 14.3746 22 16.8599C22 16.8599 22 19.3452 20.2426 21.1025C20.2426 21.1025 18.4853 22.8599 16 22.8599C16 22.8599 13.5147 22.8599 11.7574 21.1025C11.7574 21.1025 10 19.3452 10 16.8599C10 16.8599 10 14.3746 11.7574 12.6173C11.7574 12.6173 13.5147 10.8599 16 10.8599ZM16 12.8599C16 12.8599 14.3431 12.8599 13.1716 14.0315C13.1716 14.0315 12 15.2031 12 16.8599C12 16.8599 12 18.5168 13.1716 19.6883C13.1716 19.6883 14.3431 20.8599 16 20.8599C16 20.8599 17.6569 20.8599 18.8284 19.6883C18.8284 19.6883 20 18.5168 20 16.8599C20 16.8599 20 15.2031 18.8284 14.0315C18.8284 14.0315 17.6569 12.8599 16 12.8599Z" fill="#4F4F4F"/>
</svg>