<svg width="20" height="21" viewBox="0 0 20 21" fill="none" xmlns="http://www.w3.org/2000/svg">
<path d="M11.875 3.34V7.715H16.25L11.875 3.34Z" fill="#E6E6E6"/>
<path fill-rule="evenodd" clip-rule="evenodd" d="M16.5089 18.5989C16.5089 18.5989 16.1428 18.965 15.625 18.965H4.375C4.375 18.965 3.85723 18.965 3.49112 18.5989C3.49112 18.5989 3.125 18.2328 3.125 17.715V3.965C3.125 3.965 3.125 3.44723 3.49112 3.08111C3.49112 3.08111 3.85723 2.715 4.375 2.715H11.875C12.0408 2.715 12.1997 2.78084 12.3169 2.89805L16.6919 7.27305C16.8092 7.39026 16.875 7.54924 16.875 7.715V17.715C16.875 17.715 16.875 18.2328 16.5089 18.5989ZM15.625 17.715V7.97388L11.6161 3.965H4.375V17.715H15.625Z" fill="#1C1C1C"/>
<path d="M11.875 8.34H16.25C16.5952 8.34 16.875 8.06017 16.875 7.715C16.875 7.36982 16.5952 7.09 16.25 7.09H12.5V3.34C12.5 2.99482 12.2202 2.715 11.875 2.715C11.5298 2.715 11.25 2.99482 11.25 3.34V7.715C11.25 8.06017 11.5298 8.34 11.875 8.34Z" fill="#1C1C1C"/>
<path d="M7.5 12.09H12.5C12.8452 12.09 13.125 11.8102 13.125 11.465C13.125 11.1198 12.8452 10.84 12.5 10.84H7.5C7.15482 10.84 6.875 11.1198 6.875 11.465C6.875 11.8102 7.15482 12.09 7.5 12.09Z" fill="#1C1C1C"/>
<path d="M7.5 14.59H12.5C12.8452 14.59 13.125 14.3102 13.125 13.965C13.125 13.6198 12.8452 13.34 12.5 13.34H7.5C7.15482 13.34 6.875 13.6198 6.875 13.965C6.875 14.3102 7.15482 14.59 7.5 14.59Z" fill="#1C1C1C"/>
</svg>
