<svg width="20" height="20" viewBox="0 0 20 20" fill="none" xmlns="http://www.w3.org/2000/svg">
<path d="M10.625 12.8125H3.125C2.77982 12.8125 2.5 13.0923 2.5 13.4375C2.5 13.7827 2.77982 14.0625 3.125 14.0625H10.625C10.9702 14.0625 11.25 13.7827 11.25 13.4375C11.25 13.0923 10.9702 12.8125 10.625 12.8125Z" fill="#1C1C1C"/>
<path d="M16.875 12.8125H13.125C12.7798 12.8125 12.5 13.0923 12.5 13.4375C12.5 13.7827 12.7798 14.0625 13.125 14.0625H16.875C17.2202 14.0625 17.5 13.7827 17.5 13.4375C17.5 13.0923 17.2202 12.8125 16.875 12.8125Z" fill="#1C1C1C"/>
<path d="M5.625 5.9375H3.125C2.77982 5.9375 2.5 6.21732 2.5 6.5625C2.5 6.90768 2.77982 7.1875 3.125 7.1875H5.625C5.97018 7.1875 6.25 6.90768 6.25 6.5625C6.25 6.21732 5.97018 5.9375 5.625 5.9375Z" fill="#1C1C1C"/>
<path d="M16.875 5.9375H8.125C7.77982 5.9375 7.5 6.21732 7.5 6.5625C7.5 6.90768 7.77982 7.1875 8.125 7.1875H16.875C17.2202 7.1875 17.5 6.90768 17.5 6.5625C17.5 6.21732 17.2202 5.9375 16.875 5.9375Z" fill="#1C1C1C"/>
<path d="M7.5 4.6875V8.4375C7.5 8.78268 7.77982 9.0625 8.125 9.0625C8.47018 9.0625 8.75 8.78268 8.75 8.4375V4.6875C8.75 4.34232 8.47018 4.0625 8.125 4.0625C7.77982 4.0625 7.5 4.34232 7.5 4.6875Z" fill="#1C1C1C"/>
<path d="M13.75 15.3125V11.5625C13.75 11.2173 13.4702 10.9375 13.125 10.9375C12.7798 10.9375 12.5 11.2173 12.5 11.5625V15.3125C12.5 15.6577 12.7798 15.9375 13.125 15.9375C13.4702 15.9375 13.75 15.6577 13.75 15.3125Z" fill="#1C1C1C"/>
</svg>
