<svg width="16" height="17" viewBox="0 0 16 17" fill="none" xmlns="http://www.w3.org/2000/svg">
<path d="M11.25 6.91C11.25 8.98105 9.57104 10.66 7.5 10.66C5.42896 10.66 3.75 8.98105 3.75 6.91C3.75 4.83896 5.42896 3.16 7.5 3.16C9.57104 3.16 11.25 4.83896 11.25 6.91Z" fill="black" fill-opacity="0.1"/>
<path fill-rule="evenodd" clip-rule="evenodd" d="M7.5 2.66C7.5 2.66 8.36433 2.66 9.15445 2.9942C9.15445 2.9942 9.91723 3.31683 10.5052 3.9048C10.5052 3.9048 11.0932 4.49277 11.4158 5.25556C11.4158 5.25556 11.75 6.04568 11.75 6.91C11.75 6.91 11.75 7.77433 11.4158 8.56445C11.4158 8.56445 11.0932 9.32723 10.5052 9.91521C10.5052 9.91521 9.91723 10.5032 9.15445 10.8258C9.15445 10.8258 8.36433 11.16 7.5 11.16C7.5 11.16 6.63567 11.16 5.84555 10.8258C5.84555 10.8258 5.08277 10.5032 4.4948 9.91521C4.4948 9.91521 3.90682 9.32723 3.58419 8.56445C3.58419 8.56445 3.25 7.77433 3.25 6.91C3.25 6.91 3.25 6.04568 3.58419 5.25556C3.58419 5.25556 3.90682 4.49277 4.4948 3.9048C4.4948 3.9048 5.08277 3.31683 5.84555 2.99419C5.84555 2.99419 6.63567 2.66 7.5 2.66ZM7.5 3.66C7.5 3.66 6.15381 3.66 5.2019 4.61191C5.2019 4.61191 4.25 5.56381 4.25 6.91C4.25 6.91 4.25 8.2562 5.2019 9.2081C5.2019 9.2081 6.15381 10.16 7.5 10.16C7.5 10.16 8.84619 10.16 9.7981 9.2081C9.7981 9.2081 10.75 8.2562 10.75 6.91C10.75 6.91 10.75 5.56381 9.7981 4.61191C9.7981 4.61191 8.84619 3.66 7.5 3.66Z" fill="#1C1C1C"/>
<path d="M7 10.66V14.66C7 14.9361 7.22386 15.16 7.5 15.16C7.77614 15.16 8 14.9361 8 14.66V10.66C8 10.3839 7.77614 10.16 7.5 10.16C7.22386 10.16 7 10.3839 7 10.66Z" fill="#1C1C1C"/>
<path d="M5.5 13.41H9.5C9.77614 13.41 10 13.1861 10 12.91C10 12.6339 9.77614 12.41 9.5 12.41H5.5C5.22386 12.41 5 12.6339 5 12.91C5 13.1861 5.22386 13.41 5.5 13.41Z" fill="#1C1C1C"/>
<path d="M12.5 2.16V4.16C12.5 4.43615 12.7239 4.66 13 4.66C13.2761 4.66 13.5 4.43615 13.5 4.16V1.66C13.5 1.38386 13.2761 1.16 13 1.16H10.5C10.2239 1.16 10 1.38386 10 1.66C10 1.93615 10.2239 2.16 10.5 2.16H12.5Z" fill="#1C1C1C"/>
<path d="M13.3534 2.01371L13.3536 2.01356C13.4473 1.91979 13.5 1.79261 13.5 1.66C13.5 1.5274 13.4473 1.40022 13.3536 1.30645C13.2598 1.21268 13.1326 1.16 13 1.16C12.985 1.16 12.97 1.16068 12.9551 1.16203C12.8385 1.17255 12.7293 1.22366 12.6465 1.30645L12.6463 1.30661L9.92168 4.03124L9.92147 4.03145C9.8277 4.12522 9.77502 4.2524 9.77502 4.385C9.77502 4.51761 9.8277 4.64479 9.92147 4.73856C10.0152 4.83233 10.1424 4.885 10.275 4.885C10.4076 4.885 10.5348 4.83232 10.6286 4.73856L10.6288 4.73834L13.3534 2.01371Z" fill="#1C1C1C"/>
</svg>