<svg width="16" height="17" viewBox="0 0 16 17" fill="none" xmlns="http://www.w3.org/2000/svg">
<path d="M2.25 7.09125V10.5037C2.25043 10.6099 2.28558 10.7131 2.34998 10.7975C2.76874 11.36 4.54376 13.41 8 13.41C11.4562 13.41 13.2313 11.36 13.65 10.7975C13.7144 10.7131 13.7496 10.6099 13.75 10.5037V7.09125L8 10.16L2.25 7.09125Z" fill="black" fill-opacity="0.1"/>
<path fill-rule="evenodd" clip-rule="evenodd" d="M7.76471 10.6012L0.264707 6.60118C0.147699 6.53878 0.0602744 6.43245 0.0216639 6.30558C-0.0169466 6.17872 -0.00357961 6.04172 0.0588243 5.92471C0.105508 5.83718 0.177175 5.76551 0.264707 5.71883L7.76471 1.71883C7.91177 1.6404 8.08824 1.6404 8.2353 1.71883L15.7353 5.71883C15.8523 5.78123 15.9397 5.88756 15.9783 6.01442C16.0169 6.14129 16.0036 6.27829 15.9412 6.3953C15.8945 6.48283 15.8228 6.5545 15.7353 6.60118L8.2353 10.6012C8.08824 10.6796 7.91177 10.6796 7.76471 10.6012ZM1.5625 6.16L8 9.59334L14.4375 6.16L8 2.72667L1.5625 6.16Z" fill="#1C1C1C"/>
<path d="M11.9853 7.71883L8.23529 5.71883C8.16288 5.68021 8.08207 5.66 8 5.66C7.98515 5.66 7.97031 5.66067 7.95552 5.66199C7.78743 5.677 7.63824 5.7758 7.55882 5.92471C7.5202 5.99712 7.5 6.07793 7.5 6.16C7.5 6.17485 7.50066 6.18969 7.50198 6.20448C7.51699 6.37258 7.61579 6.52176 7.76471 6.60118L11.25 8.46V15.16C11.25 15.4361 11.4739 15.66 11.75 15.66C12.0261 15.66 12.25 15.4361 12.25 15.16V8.16C12.25 7.97535 12.1482 7.80572 11.9853 7.71883Z" fill="#1C1C1C"/>
<path d="M2.75 10.4975V7.09125C2.75 6.81511 2.52614 6.59125 2.25 6.59125C1.97386 6.59125 1.75 6.81511 1.75 7.09125V10.5037C1.75141 10.8374 1.95257 11.1009 1.95257 11.1009C2.6458 12.0322 3.77004 12.7381 3.77004 12.7381C5.63625 13.91 8 13.91 8 13.91C10.3638 13.91 12.23 12.7381 12.23 12.7381C13.3542 12.0322 14.0511 11.0961 14.0511 11.0961C14.2486 10.8374 14.25 10.5059 14.25 10.5059L14.25 7.09125C14.25 6.81511 14.0261 6.59125 13.75 6.59125C13.4739 6.59125 13.25 6.81511 13.25 7.09125L13.25 10.5014C13.25 10.4986 13.2495 10.4985 13.2495 10.4985L13.2489 10.4989C12.6639 11.2848 11.6982 11.8912 11.6982 11.8912C10.0758 12.91 8 12.91 8 12.91C5.92419 12.91 4.30183 11.8912 4.30183 11.8912C3.33825 11.2862 2.75 10.4975 2.75 10.4975Z" fill="#1C1C1C"/>
</svg>
