<svg width="20" height="21" viewBox="0 0 20 21" fill="none" xmlns="http://www.w3.org/2000/svg">
<path d="M17.5 10.84C17.5 14.9821 14.1422 18.34 10 18.34C5.85785 18.34 2.5 14.9821 2.5 10.84C2.5 6.69786 5.85785 3.34 10 3.34C14.1422 3.34 17.5 6.69786 17.5 10.84Z" fill="#E6E6E6"/>
<path fill-rule="evenodd" clip-rule="evenodd" d="M10 2.715C10 2.715 11.6526 2.715 13.1628 3.35376C13.1628 3.35376 14.621 3.97052 15.7452 5.09475C15.7452 5.09475 16.8695 6.21898 17.4862 7.67719C17.4862 7.67719 18.125 9.18739 18.125 10.84C18.125 10.84 18.125 12.4926 17.4862 14.0028C17.4862 14.0028 16.8695 15.461 15.7452 16.5852C15.7452 16.5852 14.621 17.7095 13.1628 18.3262C13.1628 18.3262 11.6526 18.965 10 18.965C10 18.965 8.34739 18.965 6.83719 18.3262C6.83719 18.3262 5.37899 17.7095 4.25476 16.5852C4.25476 16.5852 3.13053 15.461 2.51376 14.0028C2.51376 14.0028 1.875 12.4926 1.875 10.84C1.875 10.84 1.875 9.18738 2.51376 7.67719C2.51376 7.67719 3.13053 6.21898 4.25476 5.09475C4.25476 5.09475 5.37899 3.97052 6.83719 3.35376C6.83719 3.35376 8.34739 2.715 10 2.715ZM10 3.965C10 3.965 8.60087 3.965 7.32413 4.50501C7.32413 4.50501 6.09047 5.0268 5.13864 5.97864C5.13864 5.97864 4.18681 6.93047 3.66502 8.16413C3.66502 8.16413 3.125 9.44087 3.125 10.84C3.125 10.84 3.125 12.2391 3.66502 13.5159C3.66502 13.5159 4.18681 14.7495 5.13864 15.7014C5.13864 15.7014 6.09047 16.6532 7.32413 17.175C7.32413 17.175 8.60087 17.715 10 17.715C10 17.715 11.3991 17.715 12.6759 17.175C12.6759 17.175 13.9095 16.6532 14.8614 15.7014C14.8614 15.7014 15.8132 14.7495 16.335 13.5159C16.335 13.5159 16.875 12.2391 16.875 10.84C16.875 10.84 16.875 9.44087 16.335 8.16413C16.335 8.16413 15.8132 6.93047 14.8614 5.97864C14.8614 5.97864 13.9095 5.0268 12.6759 4.50501C12.6759 4.50501 11.3991 3.965 10 3.965Z" fill="#1C1C1C"/>
<path d="M10.9375 14.9025C10.9375 15.4203 10.5177 15.84 10 15.84C9.48227 15.84 9.0625 15.4203 9.0625 14.9025C9.0625 14.3847 9.48227 13.965 10 13.965C10.5177 13.965 10.9375 14.3847 10.9375 14.9025Z" fill="#1C1C1C"/>
<path d="M7.66149 7.71495C7.1875 8.42433 7.1875 9.27749 7.1875 9.27749C7.1875 9.62267 7.46732 9.90249 7.8125 9.90249C8.15768 9.90249 8.4375 9.62267 8.4375 9.27749C8.4375 8.80351 8.70083 8.40941 8.70083 8.40941C8.96416 8.01531 9.40206 7.83393 9.40206 7.83393C9.83996 7.65254 10.3048 7.74501 10.3048 7.74501C10.7697 7.83748 11.1049 8.17264 11.1049 8.17264C11.44 8.50779 11.5325 8.97266 11.5325 8.97266C11.6249 9.43753 11.4436 9.87543 11.4436 9.87543C11.2622 10.3133 10.8681 10.5767 10.8681 10.5767C10.474 10.84 10 10.84 10 10.84C9.65482 10.84 9.375 11.1198 9.375 11.465V12.09C9.375 12.4352 9.65482 12.715 10 12.715C10.3452 12.715 10.625 12.4352 10.625 12.09V12.0221C11.1216 11.9107 11.5625 11.616 11.5625 11.616C12.2719 11.142 12.5984 10.3538 12.5984 10.3538C12.9249 9.56557 12.7585 8.7288 12.7585 8.7288C12.592 7.89203 11.9887 7.28875 11.9887 7.28875C11.3855 6.68547 10.5487 6.51903 10.5487 6.51903C9.71192 6.35259 8.9237 6.67908 8.9237 6.67908C8.13548 7.00557 7.66149 7.71495 7.66149 7.71495Z" fill="#1C1C1C"/>
</svg>
