<svg width="16" height="17" viewBox="0 0 16 17" fill="none" xmlns="http://www.w3.org/2000/svg">
<path d="M5 13.6599H3C2.86743 13.6599 2.74023 13.6072 2.64648 13.5135C2.55273 13.4197 2.5 13.2925 2.5 13.1599V3.15991C2.5 3.02728 2.55273 2.90015 2.64648 2.80634C2.74023 2.71259 2.86743 2.65991 3 2.65991H5V13.6599Z" fill="black" fill-opacity="0.1"/>
<path d="M7 7.65991H11C11.2761 7.65991 11.5 7.43605 11.5 7.15991C11.5 6.88377 11.2761 6.65991 11 6.65991H7C6.72386 6.65991 6.5 6.88377 6.5 7.15991C6.5 7.43605 6.72386 7.65991 7 7.65991Z" fill="#1C1C1C"/>
<path d="M7 9.65991H11C11.2761 9.65991 11.5 9.43605 11.5 9.15991C11.5 8.88377 11.2761 8.65991 11 8.65991H7C6.72386 8.65991 6.5 8.88377 6.5 9.15991C6.5 9.43605 6.72386 9.65991 7 9.65991Z" fill="#1C1C1C"/>
<path fill-rule="evenodd" clip-rule="evenodd" d="M2 3.15991C2 3.15991 2 2.7457 2.29289 2.45281C2.29289 2.45281 2.58579 2.15991 3 2.15991H13C13 2.15991 13.4142 2.15991 13.7071 2.45281C13.7071 2.45281 14 2.7457 14 3.15991V13.1599C14 13.1599 14 13.5741 13.7071 13.867C13.7071 13.867 13.4142 14.1599 13 14.1599H3C3 14.1599 2.58579 14.1599 2.29289 13.867C2.29289 13.867 2 13.5741 2 13.1599V3.15991ZM3 3.15991V13.1599H13V3.15991H3Z" fill="#1C1C1C"/>
<path d="M4.5 2.65991V13.6599C4.5 13.9361 4.72386 14.1599 5 14.1599C5.27614 14.1599 5.5 13.9361 5.5 13.6599V2.65991C5.5 2.38377 5.27614 2.15991 5 2.15991C4.72386 2.15991 4.5 2.38377 4.5 2.65991Z" fill="#1C1C1C"/>
</svg>