<svg width="20" height="21" viewBox="0 0 20 21" fill="none" xmlns="http://www.w3.org/2000/svg">
<path d="M3.75 7.715H16.25C16.5952 7.715 16.875 7.99482 16.875 8.34V17.09C16.875 17.4352 16.5952 17.715 16.25 17.715H3.75C3.40485 17.715 3.125 17.4352 3.125 17.09V8.34C3.125 7.99482 3.40485 7.715 3.75 7.715Z" fill="#E6E6E6"/>
<path fill-rule="evenodd" clip-rule="evenodd" d="M2.5 8.34C2.5 8.34 2.5 7.82223 2.86612 7.45611C2.86612 7.45611 3.23223 7.09 3.75 7.09H16.25C16.25 7.09 16.7678 7.09 17.1339 7.45611C17.1339 7.45611 17.5 7.82223 17.5 8.34V17.09C17.5 17.09 17.5 17.6078 17.1339 17.9739C17.1339 17.9739 16.7678 18.34 16.25 18.34H3.75C3.75 18.34 3.23223 18.34 2.86612 17.9739C2.86612 17.9739 2.5 17.6078 2.5 17.09V8.34ZM3.75 8.34V17.09L16.25 17.09V8.34H3.75Z" fill="#1C1C1C"/>
<path d="M12.1875 4.9025V7.715C12.1875 8.06017 12.4673 8.34 12.8125 8.34C13.1577 8.34 13.4375 8.06017 13.4375 7.715V4.9025C13.4375 3.47864 12.4307 2.47182 12.4307 2.47182C11.4239 1.465 10 1.465 10 1.465C8.57614 1.465 7.56932 2.47182 7.56932 2.47182C6.5625 3.47864 6.5625 4.9025 6.5625 4.9025L6.5625 7.715C6.5625 8.06017 6.84232 8.34 7.1875 8.34C7.53268 8.34 7.8125 8.06017 7.8125 7.715V4.9025C7.8125 3.9964 8.4532 3.3557 8.4532 3.3557C9.09391 2.715 10 2.715 10 2.715C10.9061 2.715 11.5468 3.3557 11.5468 3.3557C12.1875 3.9964 12.1875 4.9025 12.1875 4.9025Z" fill="#1C1C1C"/>
</svg>
