<svg width="16" height="17" viewBox="0 0 16 17" fill="none" xmlns="http://www.w3.org/2000/svg">
<path d="M10.5 7.16C10.5 6.82846 10.6317 6.51059 10.8661 6.27609C11.1006 6.04172 11.4185 5.91 11.75 5.91C12.0815 5.91 12.3994 6.04172 12.6339 6.27609C12.8683 6.51059 13 6.82846 13 7.16V9.66C13 10.9861 12.4733 12.2579 11.5355 13.1955C10.5979 14.1333 9.32605 14.66 8 14.66C6.67395 14.66 5.4021 14.1333 4.46448 13.1955C3.52673 12.2579 3 10.9861 3 9.66V4.41C3 4.07846 3.13171 3.76059 3.36609 3.52609C3.60059 3.29172 3.91846 3.16 4.25 3.16C4.58154 3.16 4.89941 3.29172 5.13391 3.52609C5.36829 3.76059 5.5 4.07846 5.5 4.41V2.41C5.5 2.07846 5.63171 1.76059 5.86609 1.52609C6.10059 1.29172 6.41846 1.16 6.75 1.16C7.08154 1.16 7.39941 1.29172 7.63391 1.52609C7.86829 1.76059 8 2.07846 8 2.41V3.41C8 3.07846 8.13171 2.76059 8.36609 2.52609C8.60059 2.29172 8.91846 2.16 9.25 2.16C9.58154 2.16 9.89941 2.29172 10.1339 2.52609C10.3683 2.76059 10.5 3.07846 10.5 3.41V7.16Z" fill="black" fill-opacity="0.1"/>
<path d="M10 3.41V7.16C10 7.43615 10.2239 7.66 10.5 7.66C10.7761 7.66 11 7.43615 11 7.16V3.41C11 2.68513 10.4874 2.17257 10.4874 2.17257C9.97487 1.66 9.25 1.66 9.25 1.66C8.52513 1.66 8.01256 2.17257 8.01256 2.17257C7.5 2.68513 7.5 3.41 7.5 3.41C7.5 3.68615 7.72386 3.91 8 3.91C8.27614 3.91 8.5 3.68615 8.5 3.41C8.5 3.09934 8.71967 2.87967 8.71967 2.87967C8.93934 2.66 9.25 2.66 9.25 2.66C9.56066 2.66 9.78033 2.87967 9.78033 2.87967C10 3.09934 10 3.41 10 3.41Z" fill="#1C1C1C"/>
<path d="M7.5 2.41V6.66C7.5 6.93615 7.72386 7.16 8 7.16C8.27614 7.16 8.5 6.93615 8.5 6.66V2.41C8.5 1.68513 7.98744 1.17257 7.98744 1.17257C7.47487 0.660004 6.75 0.660004 6.75 0.660004C6.02513 0.660004 5.51256 1.17257 5.51256 1.17257C5 1.68513 5 2.41 5 2.41V4.41C5 4.68615 5.22386 4.91 5.5 4.91C5.77614 4.91 6 4.68615 6 4.41V2.41C6 2.09934 6.21967 1.87967 6.21967 1.87967C6.43934 1.66 6.75 1.66 6.75 1.66C7.06066 1.66 7.28033 1.87967 7.28033 1.87967C7.5 2.09934 7.5 2.41 7.5 2.41Z" fill="#1C1C1C"/>
<path d="M5 4.41V7.16C5 7.43615 5.22386 7.66 5.5 7.66C5.77614 7.66 6 7.43615 6 7.16V4.41C6 3.68513 5.48744 3.17257 5.48744 3.17257C4.97487 2.66 4.25 2.66 4.25 2.66C3.52513 2.66 3.01256 3.17257 3.01256 3.17257C2.5 3.68513 2.5 4.41 2.5 4.41V9.66C2.5 10.754 2.91866 11.7648 2.91866 11.7648C3.33733 12.7755 4.11091 13.5491 4.11091 13.5491C4.8845 14.3227 5.89524 14.7413 5.89524 14.7413C6.90598 15.16 8 15.16 8 15.16C9.09402 15.16 10.1048 14.7413 10.1048 14.7413C11.1155 14.3227 11.8891 13.5491 11.8891 13.5491C12.6627 12.7755 13.0813 11.7648 13.0813 11.7648C13.5 10.754 13.5 9.66 13.5 9.66V7.16C13.5 6.43513 12.9874 5.92257 12.9874 5.92257C12.4749 5.41 11.75 5.41 11.75 5.41C11.0251 5.41 10.5126 5.92257 10.5126 5.92257C10 6.43513 10 7.16 10 7.16V7.94783C9.07504 8.09232 8.37868 8.78868 8.37868 8.78868C7.5 9.66736 7.5 10.91 7.5 10.91C7.5 11.1861 7.72386 11.41 8 11.41C8.27614 11.41 8.5 11.1861 8.5 10.91C8.5 10.0816 9.08579 9.49579 9.08579 9.49579C9.67157 8.91 10.5 8.91 10.5 8.91C10.7761 8.91 11 8.68615 11 8.41V7.16C11 6.84934 11.2197 6.62967 11.2197 6.62967C11.4393 6.41 11.75 6.41 11.75 6.41C12.0607 6.41 12.2803 6.62967 12.2803 6.62967C12.5 6.84934 12.5 7.16 12.5 7.16V9.66C12.5 10.5551 12.1575 11.3821 12.1575 11.3821C11.8149 12.209 11.182 12.842 11.182 12.842C10.549 13.4749 9.72207 13.8175 9.72207 13.8175C8.8951 14.16 8 14.16 8 14.16C7.1049 14.16 6.27792 13.8175 6.27792 13.8175C5.45096 13.4749 4.81802 12.842 4.81802 12.842C4.18508 12.209 3.84254 11.3821 3.84254 11.3821C3.5 10.5551 3.5 9.66 3.5 9.66V4.41C3.5 4.09934 3.71967 3.87967 3.71967 3.87967C3.93934 3.66 4.25 3.66 4.25 3.66C4.56066 3.66 4.78033 3.87967 4.78033 3.87967C5 4.09934 5 4.41 5 4.41Z" fill="#1C1C1C"/>
</svg>