<svg width="20" height="21" viewBox="0 0 20 21" fill="none" xmlns="http://www.w3.org/2000/svg">
<path d="M16.875 10.84C16.875 14.637 13.797 17.715 10 17.715C6.203 17.715 3.125 14.637 3.125 10.84C3.125 7.043 6.203 3.965 10 3.965C13.797 3.965 16.875 7.043 16.875 10.84Z" fill="black" fill-opacity="0.1"/>
<path fill-rule="evenodd" clip-rule="evenodd" d="M10 3.34C10 3.34 11.5255 3.34 12.9195 3.92964C12.9195 3.92964 14.2656 4.49897 15.3033 5.5367C15.3033 5.5367 16.341 6.57442 16.9104 7.92047C16.9104 7.92047 17.5 9.31454 17.5 10.84C17.5 10.84 17.5 12.3654 16.9104 13.7595C16.9104 13.7595 16.341 15.1056 15.3033 16.1433C15.3033 16.1433 14.2656 17.181 12.9195 17.7504C12.9195 17.7504 11.5255 18.34 10 18.34C10 18.34 8.47455 18.34 7.08047 17.7504C7.08047 17.7504 5.73442 17.181 4.6967 16.1433C4.6967 16.1433 3.65897 15.1056 3.08964 13.7595C3.08964 13.7595 2.5 12.3655 2.5 10.84C2.5 10.84 2.5 9.31454 3.08964 7.92047C3.08964 7.92047 3.65897 6.57442 4.6967 5.5367C4.6967 5.5367 5.73443 4.49897 7.08047 3.92964C7.08047 3.92964 8.47454 3.34 10 3.34ZM10 4.59C10 4.59 8.72803 4.59 7.56741 5.0809C7.56741 5.0809 6.44591 5.55525 5.58058 6.42058C5.58058 6.42058 4.71525 7.28591 4.2409 8.40741C4.2409 8.40741 3.75 9.56802 3.75 10.84C3.75 10.84 3.75 12.112 4.2409 13.2726C4.2409 13.2726 4.71525 14.3941 5.58058 15.2594C5.58058 15.2594 6.44591 16.1247 7.56741 16.5991C7.56741 16.5991 8.72803 17.09 10 17.09C10 17.09 11.272 17.09 12.4326 16.5991C12.4326 16.5991 13.5541 16.1247 14.4194 15.2594C14.4194 15.2594 15.2847 14.3941 15.7591 13.2726C15.7591 13.2726 16.25 12.112 16.25 10.84C16.25 10.84 16.25 9.56802 15.7591 8.40741C15.7591 8.40741 15.2847 7.28591 14.4194 6.42058C14.4194 6.42058 13.5541 5.55525 12.4326 5.0809C12.4326 5.0809 11.272 4.59 10 4.59Z" fill="#1C1C1C"/>
<path d="M13.5355 8.18838L13.5357 8.18819C13.6529 8.07098 13.7188 7.91201 13.7188 7.74625C13.7188 7.58049 13.6529 7.42151 13.5357 7.3043C13.4185 7.18709 13.2595 7.12125 13.0938 7.12125C13.075 7.12125 13.0563 7.12209 13.0376 7.12377C12.8918 7.13693 12.7553 7.20081 12.6518 7.3043L12.6516 7.3045L9.55833 10.3978L9.55806 10.3981C9.44085 10.5153 9.375 10.6742 9.375 10.84C9.375 11.0058 9.44085 11.1647 9.55806 11.2819C9.67527 11.3991 9.83424 11.465 10 11.465C10.1658 11.465 10.3247 11.3991 10.4419 11.2819L10.4422 11.2817L13.5355 8.18838Z" fill="#1C1C1C"/>
<path d="M8.125 2.09H11.875C12.2202 2.09 12.5 1.81017 12.5 1.465C12.5 1.11982 12.2202 0.839996 11.875 0.839996H8.125C7.77982 0.839996 7.5 1.11982 7.5 1.465C7.5 1.81017 7.77982 2.09 8.125 2.09Z" fill="#1C1C1C"/>
</svg>
