<svg width="20" height="21" viewBox="0 0 20 21" fill="none" xmlns="http://www.w3.org/2000/svg">
<path d="M13.125 11.7775C13.125 13.5034 11.7259 14.9025 10 14.9025C8.27408 14.9025 6.875 13.5034 6.875 11.7775C6.875 10.0516 8.27408 8.6525 10 8.6525C11.7259 8.6525 13.125 10.0516 13.125 11.7775Z" fill="#E6E6E6"/>
<path d="M7.1875 7.4025C7.1875 8.78326 6.06827 9.9025 4.6875 9.9025C3.30673 9.9025 2.1875 8.78326 2.1875 7.4025C2.1875 6.02173 3.30673 4.9025 4.6875 4.9025C6.06827 4.9025 7.1875 6.02173 7.1875 7.4025Z" fill="black" fill-opacity="0.1"/>
<path d="M17.8125 7.4025C17.8125 8.78326 16.6933 9.9025 15.3125 9.9025C13.9317 9.9025 12.8125 8.78326 12.8125 7.4025C12.8125 6.02173 13.9317 4.9025 15.3125 4.9025C16.6933 4.9025 17.8125 6.02173 17.8125 7.4025Z" fill="black" fill-opacity="0.1"/>
<path fill-rule="evenodd" clip-rule="evenodd" d="M10 8.0275C10 8.0275 11.5533 8.0275 12.6516 9.12585C12.6516 9.12585 13.75 10.2242 13.75 11.7775C13.75 11.7775 13.75 13.3308 12.6516 14.4291C12.6516 14.4291 11.5533 15.5275 10 15.5275C10 15.5275 8.4467 15.5275 7.34835 14.4291C7.34835 14.4291 6.25 13.3308 6.25 11.7775C6.25 11.7775 6.25 10.2242 7.34835 9.12585C7.34835 9.12585 8.4467 8.0275 10 8.0275ZM10 9.2775C10 9.2775 8.96447 9.2775 8.23223 10.0097C8.23223 10.0097 7.5 10.742 7.5 11.7775C7.5 11.7775 7.5 12.813 8.23223 13.5453C8.23223 13.5453 8.96447 14.2775 10 14.2775C10 14.2775 11.0355 14.2775 11.7678 13.5453C11.7678 13.5453 12.5 12.813 12.5 11.7775C12.5 11.7775 12.5 10.742 11.7678 10.0097C11.7678 10.0097 11.0355 9.2775 10 9.2775Z" fill="#1C1C1C"/>
<path d="M18.5616 12.1514L18.5618 12.1517C18.6611 12.2844 18.809 12.3724 18.973 12.3961C19.0026 12.4004 19.0325 12.4025 19.0624 12.4025L19.0635 12.4025C19.198 12.4023 19.3289 12.3586 19.4366 12.2781C19.5945 12.1601 19.6874 11.9746 19.6874 11.7775L19.6874 11.7703C19.6859 11.6379 19.6424 11.5094 19.5631 11.4033L19.5625 11.4026C18.8113 10.3978 17.6891 9.8367 17.6891 9.8367C16.5665 9.2754 15.3114 9.2775 15.3114 9.2775L15.3124 9.2775C15.6576 9.2775 15.9374 9.55733 15.9374 9.9025C15.9374 10.2471 15.6585 10.5267 15.3138 10.5275L18.5616 12.1514Z" fill="#1C1C1C"/>
<path d="M2.86987 10.9547C3.72754 10.5259 4.68645 10.5275 4.68645 10.5275L4.68733 10.5275H4.6875C4.69716 10.5275 4.70683 10.5273 4.71648 10.5268C4.87169 10.5196 5.01865 10.4549 5.1287 10.3452C5.24611 10.2282 5.31222 10.0693 5.3125 9.90355L5.3125 9.90269V9.9025C5.3125 9.8647 5.30907 9.82698 5.30226 9.7898C5.24792 9.49343 4.98986 9.27801 4.68855 9.2775L4.6875 9.2775C3.43298 9.27564 2.31085 9.8367 2.31085 9.8367C1.18865 10.3978 0.437406 11.4026 0.437406 11.4026L0.436954 11.4032C0.35613 11.5114 0.3125 11.6426 0.3125 11.7775L0.312534 11.7841C0.312825 11.8118 0.314962 11.8395 0.31893 11.8669C0.342647 12.031 0.430562 12.1789 0.563337 12.2781C0.671371 12.3589 0.802626 12.4025 0.9375 12.4025C0.945856 12.4025 0.954211 12.4023 0.962561 12.402C1.1507 12.3945 1.32541 12.3025 1.43813 12.1517C2.01219 11.3836 2.86987 10.9547 2.86987 10.9547Z" fill="#1C1C1C"/>
<path d="M12.3217 16.195C13.3867 16.8601 13.9378 17.9881 13.9378 17.9881L13.9382 17.9889L13.9384 17.9892C14.0432 18.2039 14.2611 18.34 14.5 18.34L14.5171 18.3398C14.6063 18.3373 14.694 18.3158 14.7742 18.2766C14.9889 18.1718 15.125 17.9539 15.125 17.715L15.1248 17.6979C15.1223 17.6087 15.1008 17.521 15.0616 17.4408L15.0614 17.4403C14.353 15.9899 12.9839 15.1348 12.9839 15.1348C11.6145 14.2795 10 14.2795 10 14.2795C8.38551 14.2795 7.01614 15.1348 7.01614 15.1348C5.64701 15.9898 4.93862 17.4403 4.93862 17.4403L4.9384 17.4407C4.89668 17.5262 4.875 17.62 4.875 17.715L4.87505 17.7231C4.87592 17.7896 4.88736 17.8554 4.90896 17.9182C4.96285 18.075 5.07681 18.2039 5.22576 18.2766C5.31117 18.3183 5.40496 18.34 5.5 18.34L5.51435 18.3398C5.74797 18.3345 5.95909 18.1992 6.06162 17.9892C6.61282 16.8604 7.6783 16.195 7.6783 16.195C8.74379 15.5295 10 15.5295 10 15.5295C11.2562 15.5295 12.3217 16.195 12.3217 16.195Z" fill="#1C1C1C"/>
<path d="M6.05146 6.11865C6.42453 6.51575 6.52669 7.05093 6.52669 7.05093C6.55777 7.21375 6.65226 7.35756 6.78937 7.45071C6.89297 7.52111 7.01534 7.55875 7.1406 7.55875L7.14466 7.55873C7.18263 7.55849 7.22049 7.55478 7.25779 7.54766C7.55246 7.49141 7.7656 7.23374 7.7656 6.93375L7.76559 6.93022C7.76538 6.89208 7.76167 6.85403 7.75452 6.81656C7.58425 5.92458 6.96247 5.26276 6.96247 5.26276C6.34069 4.60094 5.46106 4.37541 5.46106 4.37541C4.58142 4.14988 3.71791 4.43089 3.71791 4.43089C2.8544 4.7119 2.27596 5.41192 2.27596 5.41192C1.69752 6.11194 1.58432 7.01294 1.58432 7.01294C1.47112 7.91394 1.85841 8.73529 1.85841 8.73529C2.24571 9.55665 3.01287 10.0425 3.01287 10.0425C3.77976 10.5282 4.68748 10.5275 4.68748 10.5275L4.68811 10.5275C4.85387 10.5273 5.01278 10.4613 5.12987 10.344C5.24681 10.2268 5.31248 10.068 5.31248 9.9025L5.31248 9.90186C5.31213 9.55693 5.03241 9.2775 4.68748 9.2775L4.68685 9.2775C4.14199 9.27805 3.6817 8.98652 3.6817 8.98652C3.2214 8.69499 2.98902 8.20218 2.98902 8.20218C2.75665 7.70936 2.82457 7.16876 2.82457 7.16876C2.89249 6.62816 3.23955 6.20815 3.23955 6.20815C3.58662 5.78814 4.10472 5.61953 4.10472 5.61953C4.62283 5.45093 5.15061 5.58624 5.15061 5.58624C5.67839 5.72156 6.05146 6.11865 6.05146 6.11865Z" fill="#1C1C1C"/>
<path d="M16.3183 8.98652C15.858 9.27805 15.3131 9.2775 15.3131 9.2775L15.3125 9.2775C15.3027 9.2775 15.2929 9.27773 15.2831 9.27819L14.6882 9.93189C14.6955 10.0871 14.7604 10.234 14.8701 10.344C14.9872 10.4613 15.1461 10.5273 15.3119 10.5275L15.3125 10.5275C16.2202 10.5282 16.9871 10.0425 16.9871 10.0425C17.7543 9.55665 18.1416 8.73529 18.1416 8.73529C18.5289 7.91394 18.4157 7.01294 18.4157 7.01294C18.3025 6.11194 17.724 5.41192 17.724 5.41192C17.1456 4.71189 16.2821 4.43089 16.2821 4.43089C15.4186 4.14988 14.5389 4.37541 14.5389 4.37541C13.6593 4.60094 13.0375 5.26276 13.0375 5.26276C12.4157 5.92458 12.2455 6.81656 12.2455 6.81656C12.2381 6.85519 12.2344 6.89442 12.2344 6.93375C12.2344 6.95253 12.2352 6.9713 12.2369 6.99001C12.262 7.26782 12.4682 7.49536 12.7422 7.54766C12.7808 7.55503 12.8201 7.55875 12.8594 7.55875C12.8782 7.55875 12.8969 7.5579 12.9156 7.55621C13.1934 7.5311 13.421 7.32493 13.4733 7.05093C13.5755 6.51574 13.9485 6.11865 13.9485 6.11865C14.3216 5.72156 14.8494 5.58624 14.8494 5.58624C15.3771 5.45093 15.8953 5.61953 15.8953 5.61953C16.4134 5.78814 16.7604 6.20815 16.7604 6.20815C17.1075 6.62816 17.1754 7.16876 17.1754 7.16876C17.2433 7.70936 17.011 8.20218 17.011 8.20218C16.7786 8.69499 16.3183 8.98652 16.3183 8.98652Z" fill="#1C1C1C"/>
</svg>
