<svg width="78" height="43" viewBox="0 0 78 43" fill="none" xmlns="http://www.w3.org/2000/svg">
<g clip-path="url(#clip0_1741_16072)">
<path fill-rule="evenodd" clip-rule="evenodd" d="M35.55 19.9518C36.7391 13.5299 31.9655 15.7556 29.8652 9.96711C27.8863 4.54812 33.3282 -2.09365 40.2715 0.624638C35.5327 1.36359 34.5085 7.77664 36.4527 9.68561C40.4104 13.5915 40.0806 18.4475 35.55 19.9518Z" fill="#565656"/>
<path fill-rule="evenodd" clip-rule="evenodd" d="M64.825 41.4341C66.8125 42.4194 68.9389 43 71.0219 43C75.0924 43 77.9913 40.5016 77.9913 37.1148C77.9913 34.6604 76.5853 33.0417 74.0249 32.4523L72.1415 32.0565C71.5079 31.9069 71.2215 31.6606 71.2215 31.3175C71.2215 30.7281 71.6989 30.429 72.5755 30.429C73.5909 30.429 74.563 30.7721 75.8736 31.6606L77.4705 27.4908C75.726 26.5055 74.2679 26.0657 72.48 26.0657C68.3661 26.0657 65.3631 28.564 65.3631 31.9949C65.3631 34.3085 66.8646 35.9184 69.3295 36.367L71.0306 36.7101C71.7596 36.8069 72.0894 37.106 72.0894 37.5458C72.0894 38.1352 71.4645 38.5311 70.64 38.5311C69.5204 38.5311 68.1664 38.0473 67.2551 37.3083L66.6215 36.8157L64.8336 41.4341H64.825Z" fill="#565656"/>
<path fill-rule="evenodd" clip-rule="evenodd" d="M54.5226 33.0329V36.9124H57.1785C56.8921 37.7921 56.0155 38.3376 54.8611 38.3376C53.0645 38.3376 51.806 36.8685 51.806 34.8011C51.806 32.7338 53.16 31.08 55.0521 31.08C56.0675 31.08 56.6924 31.4143 57.2739 32.3028L62.7418 30.2355C62.2558 29.3118 61.8218 28.8103 60.8498 28.0274C59.1573 26.7079 57.1698 26.0745 54.8004 26.0745C49.4713 26.0745 45.8955 29.5053 45.8955 34.5548C45.8955 39.6043 49.48 42.9912 54.7049 42.9912C57.3173 42.9912 59.8343 41.918 61.5354 40.1497C63.0803 38.5311 63.6098 36.7189 63.5664 33.0329H54.514H54.5226Z" fill="#565656"/>
<path fill-rule="evenodd" clip-rule="evenodd" d="M30.4987 42.7009H36.2096V37.4491L36.3051 37.3963C36.3485 37.5898 36.4092 37.6514 36.496 37.8889L38.822 42.7009H45.6005L41.9639 37.1588C41.773 36.8685 41.5733 36.7189 41.096 36.4198V36.2791C42.2069 35.936 42.7884 35.6457 43.2224 35.1443C43.856 34.4053 44.2465 33.2265 44.2465 31.9509C44.2465 29.8924 43.3699 28.3177 41.6254 27.2357C40.5665 26.5495 39.4903 26.312 37.7545 26.312H30.49V42.7009H30.4987ZM36.2096 33.6224V30.8249H37.2251C37.9975 30.8249 38.5356 31.4143 38.5356 32.2588C38.5356 33.1033 37.9541 33.6224 36.982 33.6224H36.2096Z" fill="#565656"/>
<path fill-rule="evenodd" clip-rule="evenodd" d="M17.6709 42.7097H23.5294V36.9652H27.8429V32.6547H23.5294V30.9744H28.4244V26.3208H17.6709V42.7097Z" fill="#565656"/>
<path fill-rule="evenodd" clip-rule="evenodd" d="M0 26.3208V36.6749C0 38.5399 0.729053 40.2553 1.93546 41.2406C3.28942 42.3666 5.27696 43 7.60298 43C12.1509 43 14.9109 40.3961 14.9109 36.2263V26.3208H9.10448V35.6897C9.10448 37.2643 8.66185 37.7922 7.45544 37.7922C6.39657 37.7922 5.81507 37.106 5.81507 35.6897V26.3208H0Z" fill="#565656"/>
<path fill-rule="evenodd" clip-rule="evenodd" d="M33.823 23.6992C34.2917 23.6992 34.6822 24.0951 34.6822 24.5701C34.6822 25.0452 34.2917 25.4234 33.823 25.4234C33.3543 25.4234 32.9724 25.0452 32.9724 24.5701C32.9724 24.0951 33.363 23.6992 33.823 23.6992Z" fill="#565656"/>
<path fill-rule="evenodd" clip-rule="evenodd" d="M38.6137 23.6992C39.0911 23.6992 39.4643 24.0951 39.4643 24.5701C39.4643 25.0452 39.0824 25.4234 38.6137 25.4234C38.1451 25.4234 37.7632 25.0452 37.7632 24.5701C37.7632 24.0951 38.1451 23.6992 38.6137 23.6992Z" fill="#565656"/>
<path fill-rule="evenodd" clip-rule="evenodd" d="M36.2269 23.6992C36.6869 23.6992 37.0688 24.0951 37.0688 24.5701C37.0688 25.0452 36.6782 25.4234 36.2269 25.4234C35.7496 25.4234 35.3677 25.0452 35.3677 24.5701C35.3677 24.0951 35.7496 23.6992 36.2269 23.6992Z" fill="#565656"/>
<path fill-rule="evenodd" clip-rule="evenodd" d="M49.0029 20.4004H23.4426C31.9569 23.6289 40.4973 23.6377 49.0029 20.4004Z" fill="#565656"/>
<path fill-rule="evenodd" clip-rule="evenodd" d="M42.8578 4.88232C41.9638 5.28699 40.2193 7.00241 42.9272 9.31604C46.1385 12.0519 44.4114 20.7786 36.6001 19.9605C40.3322 19.3095 41.4865 14.128 39.4816 11.8496C36.8518 8.87619 38.9869 4.60961 42.8491 4.88232H42.8578Z" fill="#565656"/>
<path fill-rule="evenodd" clip-rule="evenodd" d="M34.9685 19.8461C32.3734 16.1866 32.0349 18.7905 28.4243 16.8639C25.6383 15.3684 24.2583 10.0902 28.8323 7.26636C27.4696 9.95826 27.8255 13.0108 30.9066 14.436C33.6839 15.7291 35.3937 16.3185 34.9598 19.8461H34.9685Z" fill="#565656"/>
</g>
<defs>
<clipPath id="clip0_1741_16072">
<rect width="78" height="43" fill="white"/>
</clipPath>
</defs>
</svg>
