<svg width="110" height="43" viewBox="0 0 110 43" fill="none" xmlns="http://www.w3.org/2000/svg">
<g clip-path="url(#clip0_1741_16095)">
<path d="M52.3208 21.8307C53.1789 21.6344 53.9939 21.5399 54.7727 21.5399C56.1646 21.5399 57.1887 21.8307 57.8521 22.4195C58.5156 23.0084 58.8473 23.9244 58.8473 25.1675V31.8192H56.7632V25.4437C56.7632 24.0407 55.9771 23.3428 54.3977 23.3428C53.6405 23.3428 52.9193 23.4736 52.227 23.7208V31.8192H50.1428V22.5795C50.7414 22.2742 51.4626 22.0197 52.3208 21.8307Z" fill="#565656"/>
<path d="M67.6312 22.3105C68.3956 22.8412 68.7706 23.6917 68.7562 24.8694V29.6819C68.7562 30.5906 68.3596 31.2231 67.5663 31.5793C66.773 31.9355 65.6408 32.11 64.1696 32.11C62.9869 32.11 62.0133 31.8628 61.2488 31.3685C60.4772 30.8742 60.095 30.0454 60.095 28.8823C60.095 27.7846 60.4123 26.9631 61.0397 26.4179C61.6671 25.8726 62.5614 25.5964 63.7152 25.5964C64.8691 25.5964 65.9004 25.8363 66.7009 26.3161V25.3565C66.7009 23.9971 65.886 23.3137 64.2561 23.3137C63.672 23.3137 63.0878 23.401 62.5037 23.5827C61.9195 23.7644 61.4363 24.0116 61.0541 24.3315V22.3687C61.4219 22.1288 61.9628 21.9252 62.6768 21.7653C63.3835 21.6054 64.1191 21.5254 64.8763 21.5254C65.9653 21.5254 66.8884 21.7871 67.6528 22.3178L67.6312 22.3105ZM66.1672 30.2781C66.5134 30.1545 66.6865 29.9146 66.6865 29.5584V27.6174C66.0086 27.3266 65.2658 27.1739 64.458 27.1739C63.7008 27.1739 63.1311 27.3048 62.7417 27.5737C62.3522 27.8427 62.1575 28.2426 62.1575 28.7732C62.1575 29.333 62.3811 29.7546 62.821 30.0382C63.2681 30.3217 63.7946 30.4598 64.4004 30.4598C65.2369 30.4598 65.8283 30.4016 66.1672 30.2781Z" fill="#565656"/>
<path d="M78.0304 22.7831C78.9102 23.6409 79.3501 25.0294 79.3501 26.9486C79.3501 28.5261 78.9463 29.7765 78.1386 30.6997C77.3309 31.623 76.1986 32.081 74.7419 32.081C74.3813 32.081 73.9702 32.0373 73.5087 31.9428C73.0471 31.8483 72.6288 31.7102 72.2538 31.5212V35.8321H70.1841V23.6845C70.1841 22.9212 70.6096 22.3687 71.4678 22.0198C72.326 21.6708 73.35 21.4963 74.5399 21.4963C75.9823 21.4963 77.1506 21.9252 78.0304 22.7758V22.7831ZM76.5015 29.4275C76.9847 28.846 77.2299 28.0099 77.2299 26.9122C77.2299 25.8145 77.028 24.8913 76.6241 24.2661C76.2203 23.6409 75.4991 23.321 74.4678 23.321C73.8044 23.321 73.2707 23.3937 72.8668 23.5391C72.463 23.6845 72.261 23.8881 72.261 24.1425V29.711C72.9101 30.0963 73.6096 30.2926 74.3669 30.2926C75.3044 30.2926 76.0183 30.0018 76.5015 29.4203V29.4275Z" fill="#565656"/>
<path d="M88.5234 23.0157C89.2446 24.0262 89.598 25.4365 89.5908 27.2539H82.5954C82.6603 28.2426 82.9488 28.9914 83.4608 29.5075C83.9729 30.0236 84.694 30.2781 85.6388 30.2781C86.2518 30.2781 86.8287 30.1981 87.3912 30.0455C87.9465 29.8928 88.4369 29.6965 88.8624 29.4566V31.4194C87.8311 31.8701 86.6412 32.1028 85.307 32.1028C83.807 32.1028 82.6315 31.6448 81.7805 30.7288C80.9223 29.8128 80.4968 28.5116 80.4968 26.8323C80.4968 25.153 80.9007 23.7863 81.7084 22.8703C82.5161 21.9543 83.6555 21.4963 85.1267 21.4963C86.6772 21.4963 87.8167 21.9979 88.5379 23.0084L88.5234 23.0157ZM83.4031 23.7863C83.0065 24.157 82.7469 24.7968 82.6315 25.6909H87.4633C87.3696 24.8331 87.1316 24.2079 86.7494 23.8154C86.3671 23.4228 85.8046 23.2265 85.0618 23.2265C84.3623 23.2265 83.807 23.4155 83.4104 23.7863H83.4031Z" fill="#565656"/>
<path d="M98.1727 22.3105C98.9371 22.8412 99.3121 23.6917 99.2977 24.8694V29.6819C99.2977 30.5906 98.9011 31.2231 98.1078 31.5793C97.3145 31.9355 96.1823 32.11 94.7111 32.11C93.5284 32.11 92.5548 31.8628 91.7903 31.3685C91.0187 30.8742 90.6365 30.0454 90.6365 28.8823C90.6365 27.7846 90.9538 26.9631 91.5812 26.4179C92.2086 25.8726 93.1029 25.5964 94.2567 25.5964C95.4106 25.5964 96.4419 25.8363 97.2424 26.3161V25.3565C97.2424 23.9971 96.4275 23.3137 94.7976 23.3137C94.2135 23.3137 93.6293 23.401 93.0452 23.5827C92.461 23.7644 91.9779 24.0116 91.5956 24.3315V22.3687C91.9634 22.1288 92.5043 21.9252 93.2183 21.7653C93.925 21.6054 94.6606 21.5254 95.4178 21.5254C96.5068 21.5254 97.4299 21.7871 98.1943 22.3178L98.1727 22.3105ZM96.7087 30.2781C97.0549 30.1545 97.228 29.9146 97.228 29.5584V27.6174C96.5501 27.3266 95.8073 27.1739 94.9995 27.1739C94.2423 27.1739 93.6726 27.3048 93.2832 27.5737C92.8937 27.8427 92.699 28.2426 92.699 28.7732C92.699 29.333 92.9226 29.7546 93.3625 30.0382C93.8096 30.3217 94.3361 30.4598 94.9419 30.4598C95.7784 30.4598 96.3698 30.4016 96.7087 30.2781Z" fill="#565656"/>
<path d="M109.935 17.5343V29.6819C109.935 30.2198 109.719 30.6706 109.279 31.034C108.839 31.4048 108.291 31.6738 107.627 31.8482C106.964 32.0227 106.279 32.11 105.579 32.11C104.158 32.11 102.997 31.7029 102.081 30.8959C101.166 30.089 100.711 28.6714 100.711 26.6577C100.711 25.0439 101.101 23.7789 101.887 22.8702C102.666 21.9615 103.827 21.5108 105.363 21.5108C105.723 21.5108 106.134 21.5544 106.603 21.6489C107.072 21.7434 107.497 21.8816 107.865 22.0706V17.5416H109.935V17.5343ZM107.865 23.888C107.548 23.699 107.194 23.5608 106.798 23.4591C106.408 23.3573 106.026 23.3064 105.651 23.3064C103.769 23.3064 102.831 24.4332 102.831 26.6941C102.831 27.8136 103.041 28.6932 103.466 29.3257C103.892 29.9581 104.634 30.278 105.694 30.278C106.3 30.278 106.819 30.2053 107.238 30.0599C107.656 29.9145 107.865 29.7182 107.865 29.4783V23.888Z" fill="#565656"/>
<path d="M50.5683 18.3122C50.2293 18.0214 50.0635 17.5634 50.0635 16.9455V14.1539H51.1813V16.9019C51.1813 17.2435 51.2534 17.498 51.3904 17.6652C51.5275 17.8324 51.7438 17.9123 52.0467 17.9123C52.3279 17.9123 52.5371 17.8251 52.6885 17.6579C52.84 17.4907 52.9121 17.2363 52.9121 16.9019V14.1539H53.9362V16.9455C53.9362 17.5489 53.7703 17.9996 53.4386 18.2976C53.1068 18.5957 52.6597 18.7484 52.0972 18.7484C51.4121 18.7484 50.9 18.603 50.5683 18.3049V18.3122Z" fill="#565656"/>
<path d="M54.7511 14.1539H57.7584V14.9899H55.8184V16.0513H57.4916V16.9019H55.8184V18.6102H54.7439V14.1539H54.7511Z" fill="#565656"/>
<path d="M61.0108 18.6102L60.1382 17.0691H59.4747V18.6102H58.4001V14.1539H60.5564C61.0613 14.1539 61.4579 14.2702 61.7392 14.5101C62.0204 14.7428 62.1574 15.099 62.1574 15.5642C62.1574 15.855 62.0781 16.124 61.9195 16.3712C61.7608 16.6183 61.5372 16.7855 61.256 16.8728L62.381 18.6175H61.018L61.0108 18.6102ZM60.9891 15.6151C60.9891 15.4116 60.9387 15.2516 60.8449 15.1499C60.7439 15.0408 60.6069 14.9899 60.4194 14.9899H59.4747V16.2767H60.3761C60.7872 16.2767 60.9964 16.0586 60.9964 15.6151H60.9891Z" fill="#565656"/>
<path d="M63.2175 18.1451C62.8425 17.7743 62.655 17.1855 62.655 16.3858C62.655 15.5861 62.8425 15.0118 63.2248 14.6265C63.607 14.2413 64.1334 14.0522 64.8113 14.0522C65.345 14.0522 65.8714 14.1613 66.3907 14.3794V15.3608C66.0878 15.2009 65.8282 15.0845 65.6118 15.0046C65.3955 14.9319 65.1719 14.8883 64.9483 14.8883C64.5445 14.8883 64.2488 15.0046 64.0469 15.2227C63.8522 15.448 63.7512 15.8333 63.7512 16.3713C63.7512 16.9092 63.8522 17.28 64.0469 17.5126C64.2488 17.7452 64.5301 17.8543 64.8979 17.8543C65.1575 17.8543 65.3594 17.8179 65.5109 17.7452V16.9601H64.7825V16.1168H66.5854V18.2178C66.0085 18.5376 65.4171 18.6976 64.8185 18.6976C64.1334 18.6976 63.5998 18.5085 63.2248 18.1378L63.2175 18.1451Z" fill="#565656"/>
<path d="M67.9269 18.6321C67.6817 18.5885 67.451 18.5085 67.2346 18.3922V17.3599C67.4365 17.5198 67.6601 17.6434 67.9125 17.7306C68.1649 17.8179 68.4173 17.8615 68.6553 17.8615C69.0736 17.8615 69.2755 17.7016 69.2755 17.389C69.2755 17.2508 69.2106 17.1418 69.0736 17.0618C68.9438 16.9819 68.7274 16.8946 68.4317 16.8001C68.2947 16.7565 68.2082 16.7274 68.1793 16.7129C67.862 16.6038 67.6096 16.4584 67.4293 16.2767C67.249 16.095 67.1553 15.8187 67.1553 15.4625C67.1553 15.2081 67.2202 14.9754 67.3428 14.7573C67.4654 14.5393 67.6529 14.3721 67.9125 14.2412C68.1721 14.1103 68.4822 14.0449 68.8572 14.0449C69.1169 14.0449 69.3404 14.0667 69.5279 14.1176C69.7154 14.1612 69.9173 14.2412 70.1265 14.343V15.3825C69.939 15.2371 69.7443 15.1208 69.5279 15.0263C69.3188 14.9318 69.1024 14.8882 68.8861 14.8882C68.6914 14.8882 68.5327 14.9245 68.4173 15.0045C68.3019 15.0845 68.2442 15.1935 68.2442 15.3389C68.2442 15.4552 68.2803 15.5497 68.3524 15.6224C68.4245 15.6951 68.5111 15.7533 68.612 15.7896C68.713 15.8333 68.8861 15.8841 69.1096 15.9568C69.3837 16.0368 69.6072 16.124 69.7875 16.2258C69.9678 16.3276 70.1049 16.4584 70.213 16.6184C70.3212 16.7856 70.3717 16.9964 70.3717 17.2508C70.3717 17.5198 70.3068 17.767 70.1842 17.9851C70.0616 18.2032 69.8741 18.3776 69.6361 18.5012C69.3981 18.6248 69.1096 18.6902 68.7851 18.6902C68.4606 18.6902 68.1577 18.6684 67.9125 18.6175L67.9269 18.6321Z" fill="#565656"/>
<path d="M76.2204 36.7189H75.6362V34.2981H76.718C77.0065 34.2981 77.23 34.3635 77.3815 34.4944C77.5401 34.6252 77.6194 34.8215 77.6194 35.0832C77.6194 35.3449 77.5401 35.5557 77.3815 35.7011C77.2228 35.8465 76.9992 35.9192 76.718 35.9192H76.2204V36.7116V36.7189ZM76.6459 35.4758C76.7613 35.4758 76.8478 35.4467 76.9055 35.3813C76.9632 35.3231 76.992 35.2359 76.992 35.1268C76.992 34.8797 76.8766 34.7561 76.6459 34.7561H76.2204V35.4685H76.6459V35.4758Z" fill="#565656"/>
<path d="M77.9368 35.076C77.9728 35.0469 78.0377 35.0106 78.1243 34.9743C78.2108 34.9379 78.3118 34.9016 78.4272 34.8725C78.5353 34.8434 78.6435 34.8289 78.7517 34.8289C78.9536 34.8289 79.0906 34.8579 79.1628 34.9161V35.3087C79.069 35.2868 78.932 35.2723 78.7517 35.2723C78.6363 35.2723 78.5498 35.2723 78.4776 35.2941V36.7117H77.944V35.0688L77.9368 35.076Z" fill="#565656"/>
<path d="M79.4656 36.5227C79.3142 36.3555 79.2349 36.1156 79.2349 35.7885C79.2349 35.4613 79.3142 35.2069 79.4656 35.047C79.6171 34.8943 79.8479 34.8143 80.158 34.8143C80.4681 34.8143 80.6988 34.8943 80.8575 35.0542C81.0162 35.2142 81.0883 35.4541 81.0883 35.7885C81.0883 36.1229 81.0089 36.3482 80.8503 36.5154C80.6916 36.6826 80.4609 36.7626 80.158 36.7626C79.8551 36.7626 79.6243 36.6826 79.4656 36.5154V36.5227ZM80.4536 36.1956C80.5185 36.1011 80.5546 35.9702 80.5546 35.7885C80.5546 35.5922 80.5185 35.4541 80.4536 35.3668C80.3887 35.2869 80.2878 35.2432 80.1507 35.2432C80.0137 35.2432 79.9128 35.2869 79.8479 35.3668C79.7902 35.4541 79.7541 35.5922 79.7541 35.7885C79.7541 35.9847 79.783 36.1156 79.8479 36.2028C79.9128 36.2901 80.0137 36.3337 80.1435 36.3337C80.2733 36.3337 80.3743 36.2901 80.4392 36.1956H80.4536Z" fill="#565656"/>
<path d="M83.1003 34.1309V36.2391C83.1003 36.3554 83.0642 36.4499 82.9849 36.5299C82.9056 36.6099 82.8046 36.668 82.6748 36.7117C82.545 36.7553 82.408 36.7698 82.2637 36.7698C81.9536 36.7698 81.7156 36.6971 81.5498 36.5517C81.3839 36.4063 81.2974 36.1519 81.2974 35.7884C81.2974 35.4831 81.3695 35.2505 81.5209 35.076C81.6652 34.9088 81.8815 34.8215 82.17 34.8215C82.3431 34.8215 82.4801 34.8506 82.581 34.916V34.1237H83.1147L83.1003 34.1309ZM82.5666 35.3377C82.4729 35.2868 82.3791 35.265 82.2854 35.265C82.1267 35.265 82.0041 35.3086 81.932 35.3886C81.8599 35.4685 81.8238 35.6067 81.8238 35.8029C81.8238 35.9702 81.8599 36.101 81.9248 36.1882C81.9969 36.2755 82.1123 36.3191 82.2709 36.3191C82.3575 36.3191 82.4296 36.3046 82.4801 36.2827C82.5306 36.2609 82.5594 36.2246 82.5594 36.181V35.3377H82.5666Z" fill="#565656"/>
<path d="M83.7349 36.5807C83.5835 36.4572 83.5042 36.2681 83.5042 36.0137V34.8796H84.0378V35.9701C84.0378 36.0864 84.0667 36.1736 84.1171 36.2318C84.1676 36.29 84.2542 36.319 84.3623 36.319C84.4705 36.319 84.5571 36.29 84.6075 36.2318C84.658 36.1736 84.6869 36.0864 84.6869 35.9701V34.8796H85.1917V36.0137C85.1917 36.2681 85.1196 36.4572 84.9753 36.5807C84.8311 36.7043 84.6292 36.7698 84.3623 36.7698C84.0955 36.7698 83.8864 36.7043 83.7349 36.5807Z" fill="#565656"/>
<path d="M87.0235 36.6245C86.8937 36.6972 86.7495 36.7408 86.6052 36.7553L86.4249 37.1988H85.9418L86.2519 36.748C86.0283 36.7117 85.8408 36.6172 85.7038 36.4573C85.5667 36.2973 85.4946 36.0865 85.4946 35.8248C85.4946 35.4977 85.5812 35.2505 85.7543 35.0833C85.9273 34.9161 86.1581 34.8289 86.4466 34.8289C86.5475 34.8289 86.6485 34.8361 86.7495 34.8579C86.8504 34.8797 86.9442 34.9088 87.0235 34.9452V35.4104C86.9225 35.3668 86.836 35.3305 86.7639 35.3087C86.6846 35.2868 86.6124 35.2723 86.5331 35.2723C86.3745 35.2723 86.2519 35.3087 86.1653 35.3886C86.0788 35.4686 86.0355 35.5922 86.0355 35.7594C86.0355 35.9484 86.0788 36.0865 86.1581 36.1737C86.2446 36.261 86.3745 36.3046 86.562 36.3046C86.7062 36.3046 86.8576 36.2537 87.0307 36.1592V36.6172L87.0235 36.6245Z" fill="#565656"/>
<path d="M88.6605 34.967C88.8263 35.0615 88.9057 35.2287 88.9057 35.4686V36.3337C88.9057 36.4863 88.8263 36.5954 88.6749 36.6681C88.5234 36.7408 88.3071 36.7698 88.0258 36.7698C87.4922 36.7698 87.2253 36.559 87.2253 36.1446C87.2253 35.9702 87.283 35.8321 87.3912 35.7303C87.4994 35.6285 87.6653 35.5849 87.8816 35.5849C87.9681 35.5849 88.0619 35.5994 88.1484 35.6212C88.235 35.643 88.3143 35.6721 88.3792 35.7085V35.5922C88.3792 35.3813 88.2422 35.2796 87.9754 35.2796C87.8744 35.2796 87.7662 35.3014 87.658 35.3377C87.5499 35.3741 87.4633 35.4177 87.3984 35.4758V34.996C87.4633 34.9524 87.5643 34.9161 87.6941 34.887C87.8239 34.8579 87.9681 34.8434 88.1268 34.8434C88.3287 34.8434 88.509 34.887 88.6677 34.9815L88.6605 34.967ZM87.4633 34.6616C87.4633 34.5671 87.4705 34.4872 87.5066 34.4072C87.5427 34.3272 87.5859 34.2691 87.6508 34.2255C87.7157 34.1818 87.7879 34.16 87.8672 34.16C87.9249 34.16 87.9826 34.1746 88.0331 34.1964C88.0835 34.2182 88.1412 34.2545 88.1989 34.2982C88.2422 34.3345 88.2855 34.3563 88.3143 34.3709C88.3432 34.3854 88.3792 34.3927 88.4153 34.3927C88.5018 34.3927 88.5451 34.32 88.5307 34.1818H88.7903C88.7903 34.3345 88.7614 34.4581 88.6821 34.5453C88.6028 34.6326 88.509 34.6834 88.3864 34.6834C88.3071 34.6834 88.235 34.6689 88.1845 34.6471C88.134 34.618 88.0691 34.5817 88.0114 34.5381C87.9681 34.509 87.9393 34.4872 87.9177 34.4726C87.896 34.4581 87.8744 34.4581 87.8455 34.4581C87.7951 34.4581 87.759 34.4799 87.7374 34.5235C87.7157 34.5671 87.7013 34.618 87.7085 34.6762H87.4633V34.6616ZM88.2999 36.3627C88.3504 36.3482 88.372 36.3119 88.372 36.261V35.9774C88.2855 35.9484 88.1989 35.9338 88.098 35.9338C87.9826 35.9338 87.896 35.9484 87.8383 35.9847C87.7879 36.0211 87.759 36.072 87.759 36.1519C87.759 36.2246 87.7879 36.2755 87.8455 36.3191C87.9032 36.3627 87.9681 36.3845 88.0475 36.3845C88.1701 36.3845 88.2566 36.3773 88.3071 36.3627H88.2999Z" fill="#565656"/>
<path d="M89.4395 36.5227C89.2881 36.3555 89.2087 36.1156 89.2087 35.7885C89.2087 35.4613 89.2881 35.2069 89.4395 35.047C89.591 34.8943 89.8217 34.8143 90.1318 34.8143C90.4419 34.8143 90.6727 34.8943 90.8314 35.0542C90.99 35.2142 91.0621 35.4541 91.0621 35.7885C91.0621 36.1229 90.9828 36.3482 90.8242 36.5154C90.6655 36.6826 90.4347 36.7626 90.1318 36.7626C89.829 36.7626 89.5982 36.6826 89.4395 36.5154V36.5227ZM90.4275 36.1956C90.4924 36.1011 90.5285 35.9702 90.5285 35.7885C90.5285 35.5922 90.4924 35.4541 90.4275 35.3668C90.3626 35.2869 90.2617 35.2432 90.1246 35.2432C89.9876 35.2432 89.8866 35.2869 89.8217 35.3668C89.764 35.4541 89.728 35.5922 89.728 35.7885C89.728 35.9847 89.7568 36.1156 89.8217 36.2028C89.8866 36.2901 89.9876 36.3337 90.1174 36.3337C90.2472 36.3337 90.3482 36.2901 90.4131 36.1956H90.4275Z" fill="#565656"/>
<path d="M94.9132 34.9815C95.0358 35.0833 95.0935 35.2505 95.0935 35.4831V36.7117H94.5598V35.5922C94.5598 35.3813 94.4444 35.2796 94.2064 35.2796C94.1055 35.2796 94.0261 35.3014 93.9612 35.3523C93.9612 35.4104 93.9612 35.454 93.9612 35.4904V36.719H93.4276V35.5994C93.4276 35.3886 93.3122 35.2868 93.0742 35.2868C92.9804 35.2868 92.8867 35.3086 92.8074 35.3523V36.7262H92.2737V35.0469C92.3674 34.996 92.5117 34.9524 92.6992 34.9088C92.8939 34.8652 93.0598 34.8434 93.2112 34.8434C93.4564 34.8434 93.6295 34.887 93.7449 34.9742C93.8386 34.9306 93.9396 34.9015 94.0405 34.8797C94.1415 34.8579 94.2425 34.8434 94.3362 34.8434C94.5886 34.8434 94.7761 34.8943 94.8987 34.996L94.9132 34.9815Z" fill="#565656"/>
<path d="M95.7281 36.5807C95.5766 36.4572 95.4973 36.2681 95.4973 36.0137V34.8796H96.031V35.9701C96.031 36.0864 96.0598 36.1736 96.1103 36.2318C96.1608 36.29 96.2473 36.319 96.3555 36.319C96.4637 36.319 96.5502 36.29 96.6007 36.2318C96.6512 36.1736 96.68 36.0864 96.68 35.9701V34.8796H97.1848V36.0137C97.1848 36.2681 97.1127 36.4572 96.9685 36.5807C96.8243 36.7043 96.6223 36.7698 96.3555 36.7698C96.0887 36.7698 95.8795 36.7043 95.7281 36.5807Z" fill="#565656"/>
<path d="M97.5886 36.719V34.1964H98.1223V36.719H97.5886Z" fill="#565656"/>
<path d="M98.8002 36.6389C98.6993 36.5371 98.6416 36.399 98.6416 36.21V35.294H98.3748V34.8797H98.6416V34.3781H99.2041V34.8797H99.6007V35.294H99.2041V36.1446C99.2041 36.21 99.2185 36.2536 99.2474 36.2827C99.2762 36.3118 99.3195 36.3263 99.3772 36.3263C99.4132 36.3263 99.4565 36.3263 99.4926 36.3045C99.5358 36.29 99.5719 36.2754 99.6007 36.2464V36.7043C99.507 36.7552 99.3988 36.777 99.269 36.777C99.0599 36.777 98.9012 36.7261 98.8002 36.6316V36.6389Z" fill="#565656"/>
<path d="M99.9397 34.2181H100.495V34.6325H99.9397V34.2181ZM99.9469 34.9088H100.481V36.7189H99.9469V34.9088Z" fill="#565656"/>
<path d="M103.531 34.9815C103.654 35.0833 103.711 35.2505 103.711 35.4831V36.7117H103.178V35.5922C103.178 35.3813 103.062 35.2796 102.824 35.2796C102.723 35.2796 102.644 35.3014 102.579 35.3523C102.579 35.4104 102.586 35.454 102.586 35.4904V36.719H102.053V35.5994C102.053 35.3886 101.937 35.2868 101.699 35.2868C101.606 35.2868 101.512 35.3086 101.433 35.3523V36.7262H100.899V35.0469C100.993 34.996 101.137 34.9524 101.324 34.9088C101.519 34.8652 101.685 34.8434 101.836 34.8434C102.082 34.8434 102.255 34.887 102.37 34.9742C102.464 34.9306 102.565 34.9015 102.666 34.8797C102.767 34.8579 102.868 34.8434 102.961 34.8434C103.214 34.8434 103.401 34.8943 103.524 34.996L103.531 34.9815Z" fill="#565656"/>
<path d="M104.231 34.9088H104.743V36.7189H104.231V34.9088ZM104.57 34.269H104.945L104.62 34.6907H104.353L104.57 34.269Z" fill="#565656"/>
<path d="M106.957 34.1309V36.2391C106.957 36.3554 106.913 36.4499 106.841 36.5299C106.762 36.6099 106.661 36.668 106.531 36.7117C106.401 36.7553 106.264 36.7698 106.12 36.7698C105.81 36.7698 105.572 36.6971 105.406 36.5517C105.24 36.4063 105.154 36.1519 105.154 35.7884C105.154 35.4831 105.226 35.2505 105.377 35.076C105.522 34.9088 105.738 34.8215 106.026 34.8215C106.2 34.8215 106.337 34.8506 106.437 34.916V34.1237H106.971L106.957 34.1309ZM106.423 35.3377C106.329 35.2868 106.236 35.265 106.142 35.265C105.983 35.265 105.861 35.3086 105.788 35.3886C105.716 35.4685 105.68 35.6067 105.68 35.8029C105.68 35.9702 105.716 36.101 105.781 36.1882C105.853 36.2755 105.969 36.3191 106.127 36.3191C106.214 36.3191 106.286 36.3046 106.337 36.2827C106.387 36.2609 106.416 36.2246 106.416 36.181V35.3377H106.423Z" fill="#565656"/>
<path d="M107.353 34.2181H107.909V34.6325H107.353V34.2181ZM107.36 34.9088H107.894V36.7189H107.36V34.9088Z" fill="#565656"/>
<path d="M109.647 34.967C109.812 35.0615 109.892 35.2287 109.892 35.4686V36.3337C109.892 36.4863 109.812 36.5954 109.661 36.6681C109.51 36.7408 109.293 36.7698 109.012 36.7698C108.478 36.7698 108.211 36.559 108.211 36.1447C108.211 35.9702 108.269 35.8321 108.377 35.7303C108.485 35.6285 108.651 35.5849 108.86 35.5849C108.947 35.5849 109.041 35.5994 109.127 35.6212C109.214 35.643 109.293 35.6721 109.358 35.7085V35.5922C109.358 35.3813 109.221 35.2796 108.954 35.2796C108.853 35.2796 108.745 35.3014 108.637 35.3377C108.529 35.3741 108.442 35.4177 108.377 35.4758V34.996C108.442 34.9524 108.543 34.9161 108.673 34.887C108.803 34.8579 108.947 34.8434 109.106 34.8434C109.308 34.8434 109.488 34.887 109.647 34.9815V34.967ZM109.286 36.3627C109.336 36.3482 109.358 36.3119 109.358 36.261V35.9775C109.272 35.9484 109.185 35.9338 109.084 35.9338C108.969 35.9338 108.882 35.9484 108.824 35.9847C108.774 36.0211 108.745 36.072 108.745 36.1519C108.745 36.2246 108.774 36.2755 108.832 36.3191C108.889 36.3627 108.954 36.3845 109.034 36.3845C109.156 36.3845 109.243 36.3773 109.293 36.3627H109.286Z" fill="#565656"/>
<path d="M84.7373 38.6745C84.8959 38.8271 84.9753 39.0816 84.9753 39.445C84.9753 39.7286 84.9032 39.9612 84.7589 40.1357C84.6147 40.3101 84.42 40.3974 84.1676 40.3974C83.9873 40.3974 83.8358 40.3683 83.7132 40.3029V41.0007H83.1868V38.8998C83.1868 38.7544 83.2661 38.6381 83.432 38.5654C83.5906 38.4927 83.7998 38.4491 84.0594 38.4491C84.3479 38.4491 84.5786 38.5291 84.7373 38.6817V38.6745ZM84.3406 39.8376C84.4128 39.7576 84.4416 39.6195 84.4416 39.4232C84.4416 39.2488 84.4128 39.1179 84.3479 39.0307C84.2902 38.9434 84.182 38.8998 84.0305 38.8998C83.8142 38.8998 83.7132 38.9434 83.7132 39.0234V39.8885C83.7565 39.9176 83.807 39.9321 83.8575 39.9466C83.9079 39.9612 83.9584 39.9685 84.0089 39.9685C84.1531 39.9685 84.2613 39.9248 84.3334 39.8449L84.3406 39.8376Z" fill="#565656"/>
<path d="M86.6197 38.5945C86.7856 38.689 86.8649 38.8562 86.8649 39.0961V39.9612C86.8649 40.1139 86.7856 40.2229 86.6341 40.2956C86.4827 40.3683 86.2663 40.3974 85.9851 40.3974C85.4514 40.3974 85.1846 40.1866 85.1846 39.7722C85.1846 39.5977 85.2423 39.4596 85.3504 39.3578C85.4586 39.2561 85.6245 39.2125 85.8408 39.2125C85.9274 39.2125 86.0211 39.227 86.1077 39.2488C86.1942 39.2706 86.2735 39.2997 86.3384 39.336V39.2197C86.3384 39.0089 86.2014 38.9071 85.9346 38.9071C85.8336 38.9071 85.7254 38.9289 85.6173 38.9653C85.5091 39.0016 85.4226 39.0453 85.3576 39.1034V38.6236C85.4226 38.58 85.5235 38.5436 85.6533 38.5146C85.7831 38.4855 85.9274 38.4709 86.086 38.4709C86.288 38.4709 86.4683 38.5146 86.6269 38.6091L86.6197 38.5945ZM86.2591 39.9903C86.3096 39.9758 86.3312 39.9394 86.3312 39.8885V39.605C86.2447 39.5759 86.1581 39.5614 86.0572 39.5614C85.9418 39.5614 85.8553 39.5759 85.7976 39.6123C85.7471 39.6486 85.7182 39.6995 85.7182 39.7795C85.7182 39.8522 85.7471 39.9103 85.8048 39.9467C85.8625 39.9903 85.9274 40.0121 86.0067 40.0121C86.1293 40.0121 86.2158 40.0048 86.2663 39.9903H86.2591Z" fill="#565656"/>
<path d="M87.2688 38.7036C87.2688 38.7036 87.3698 38.6382 87.4563 38.6018C87.5428 38.5655 87.6438 38.5291 87.7592 38.5C87.8674 38.471 87.9755 38.4564 88.0837 38.4564C88.2856 38.4564 88.4227 38.4855 88.4948 38.5437V38.9362C88.401 38.9144 88.264 38.8999 88.0837 38.8999C87.9683 38.8999 87.8818 38.8999 87.8097 38.9217V40.3393H87.276V38.6963L87.2688 38.7036Z" fill="#565656"/>
<path d="M90.074 38.5945C90.2399 38.689 90.3192 38.8562 90.3192 39.0961V39.9612C90.3192 40.1139 90.2399 40.2229 90.0885 40.2956C89.937 40.3683 89.7207 40.3974 89.4394 40.3974C88.9057 40.3974 88.6389 40.1866 88.6389 39.7722C88.6389 39.5977 88.6966 39.4596 88.8048 39.3578C88.913 39.2561 89.0788 39.2125 89.2952 39.2125C89.3817 39.2125 89.4755 39.227 89.562 39.2488C89.6486 39.2706 89.7279 39.2997 89.7928 39.336V39.2197C89.7928 39.0089 89.6558 38.9071 89.3889 38.9071C89.288 38.9071 89.1798 38.9289 89.0716 38.9653C88.9634 39.0016 88.8769 39.0453 88.812 39.1034V38.6236C88.8769 38.58 88.9779 38.5436 89.1077 38.5146C89.2375 38.4855 89.3817 38.4709 89.5404 38.4709C89.7423 38.4709 89.9226 38.5146 90.0813 38.6091L90.074 38.5945ZM89.7135 39.9903C89.7639 39.9758 89.7856 39.9394 89.7856 39.8885V39.605C89.699 39.5759 89.6125 39.5614 89.5115 39.5614C89.3961 39.5614 89.3096 39.5759 89.2519 39.6123C89.2014 39.6486 89.1726 39.6995 89.1726 39.7795C89.1726 39.8522 89.2014 39.9103 89.2591 39.9467C89.3168 39.9903 89.3817 40.0121 89.461 40.0121C89.5836 40.0121 89.6702 40.0048 89.7207 39.9903H89.7135Z" fill="#565656"/>
<path d="M92.9803 38.5945C93.1462 38.689 93.2255 38.8562 93.2255 39.0961V39.9612C93.2255 40.1139 93.1462 40.2229 92.9947 40.2956C92.8433 40.3683 92.6269 40.3974 92.3457 40.3974C91.812 40.3974 91.5452 40.1866 91.5452 39.7722C91.5452 39.5977 91.6029 39.4596 91.711 39.3578C91.8192 39.2561 91.9851 39.2125 92.2014 39.2125C92.288 39.2125 92.3817 39.227 92.4683 39.2488C92.5548 39.2706 92.6341 39.2997 92.699 39.336V39.2197C92.699 39.0089 92.562 38.9071 92.2952 38.9071C92.1942 38.9071 92.086 38.9289 91.9779 38.9653C91.8697 39.0016 91.7832 39.0453 91.7182 39.1034V38.6236C91.7832 38.58 91.8841 38.5436 92.0139 38.5146C92.1437 38.4855 92.288 38.4709 92.4466 38.4709C92.6486 38.4709 92.8288 38.5146 92.9875 38.6091L92.9803 38.5945ZM92.6197 39.9903C92.6702 39.9758 92.6918 39.9394 92.6918 39.8885V39.605C92.6053 39.5759 92.5187 39.5614 92.4178 39.5614C92.3024 39.5614 92.2159 39.5759 92.1582 39.6123C92.1077 39.6486 92.0788 39.6995 92.0788 39.7795C92.0788 39.8522 92.1077 39.9103 92.1654 39.9467C92.2231 39.9903 92.288 40.0121 92.3673 40.0121C92.4899 40.0121 92.5764 40.0048 92.6269 39.9903H92.6197Z" fill="#565656"/>
<path d="M94.5598 37.9257H96.2041V38.3764H95.144V38.8999H96.0671V39.3578H95.144V39.8885H96.2041V40.3393H94.5598V37.9185V37.9257Z" fill="#565656"/>
<path d="M98.3171 37.7584V39.8666C98.3171 39.9829 98.281 40.0774 98.2017 40.1574C98.1224 40.2374 98.0214 40.2955 97.8916 40.3392C97.7618 40.3828 97.6248 40.3973 97.4805 40.3973C97.1704 40.3973 96.9324 40.3246 96.7666 40.1792C96.6007 40.0338 96.5142 39.7794 96.5142 39.4159C96.5142 39.1106 96.5863 38.878 96.7377 38.7107C96.882 38.5435 97.0983 38.4563 97.3868 38.4563C97.5599 38.4563 97.6969 38.4854 97.7978 38.5508V37.7584H98.3315H98.3171ZM97.7834 38.9652C97.6897 38.9143 97.5959 38.8925 97.5022 38.8925C97.3435 38.8925 97.2209 38.9361 97.1488 39.0161C97.0767 39.096 97.0406 39.2342 97.0406 39.4304C97.0406 39.5976 97.0767 39.7285 97.1416 39.8157C97.2137 39.903 97.3291 39.9466 97.4877 39.9466C97.5743 39.9466 97.6464 39.9321 97.6969 39.9102C97.7474 39.8884 97.7762 39.8521 97.7762 39.8085V38.9652H97.7834Z" fill="#565656"/>
<path d="M98.9517 40.2083C98.8003 40.0847 98.7209 39.8957 98.7209 39.6413V38.5072H99.2546V39.5977C99.2546 39.714 99.2835 39.8012 99.3339 39.8594C99.3844 39.9175 99.471 39.9466 99.5791 39.9466C99.6873 39.9466 99.7739 39.9175 99.8243 39.8594C99.8748 39.8012 99.9037 39.714 99.9037 39.5977V38.5072H100.408V39.6413C100.408 39.8957 100.336 40.0847 100.192 40.2083C100.048 40.3319 99.846 40.3973 99.5791 40.3973C99.3123 40.3973 99.1032 40.3319 98.9517 40.2083Z" fill="#565656"/>
<path d="M101.18 40.2884C101.036 40.2157 100.92 40.1139 100.834 39.9685C100.747 39.8304 100.704 39.6559 100.704 39.4524C100.704 39.1252 100.791 38.8781 100.964 38.7109C101.137 38.5437 101.368 38.4564 101.656 38.4564C101.757 38.4564 101.858 38.4637 101.959 38.4855C102.06 38.5073 102.154 38.5364 102.233 38.5727V39.038C102.132 38.9944 102.045 38.958 101.973 38.9362C101.894 38.9144 101.822 38.8999 101.743 38.8999C101.584 38.8999 101.461 38.9362 101.375 39.0162C101.288 39.0961 101.245 39.2197 101.245 39.3869C101.245 39.5759 101.288 39.7141 101.368 39.8013C101.454 39.8885 101.584 39.9322 101.771 39.9322C101.916 39.9322 102.067 39.8813 102.24 39.7868V40.2448C102.154 40.2884 102.067 40.3247 101.973 40.3465C101.88 40.3683 101.779 40.3829 101.663 40.3829C101.483 40.3829 101.324 40.3465 101.18 40.2811V40.2884Z" fill="#565656"/>
<path d="M103.884 38.5945C104.05 38.689 104.13 38.8562 104.13 39.0961V39.9612C104.13 40.1139 104.05 40.2229 103.899 40.2956C103.747 40.3683 103.531 40.3974 103.25 40.3974C102.716 40.3974 102.449 40.1866 102.449 39.7722C102.449 39.5977 102.507 39.4596 102.615 39.3578C102.723 39.2561 102.889 39.2125 103.105 39.2125C103.192 39.2125 103.286 39.227 103.372 39.2488C103.459 39.2706 103.538 39.2997 103.603 39.336V39.2197C103.603 39.0089 103.466 38.9071 103.199 38.9071C103.098 38.9071 102.99 38.9289 102.882 38.9653C102.774 39.0016 102.687 39.0453 102.622 39.1034V38.6236C102.687 38.58 102.788 38.5436 102.918 38.5146C103.048 38.4855 103.192 38.4709 103.351 38.4709C103.553 38.4709 103.733 38.5146 103.892 38.6091L103.884 38.5945ZM103.524 39.9903C103.574 39.9758 103.596 39.9394 103.596 39.8885V39.605C103.509 39.5759 103.423 39.5614 103.322 39.5614C103.206 39.5614 103.12 39.5759 103.062 39.6123C103.012 39.6486 102.983 39.6995 102.983 39.7795C102.983 39.8522 103.012 39.9103 103.069 39.9467C103.127 39.9903 103.192 40.0121 103.271 40.0121C103.394 40.0121 103.48 40.0048 103.531 39.9903H103.524Z" fill="#565656"/>
<path d="M105.961 40.252C105.832 40.3247 105.687 40.3683 105.543 40.3829L105.363 40.8263H104.88L105.19 40.3756C104.966 40.3393 104.779 40.2448 104.642 40.0848C104.498 39.9249 104.433 39.7141 104.433 39.4524C104.433 39.1252 104.519 38.8781 104.692 38.7109C104.865 38.5437 105.096 38.4564 105.385 38.4564C105.486 38.4564 105.586 38.4637 105.687 38.4855C105.788 38.5073 105.882 38.5364 105.961 38.5727V39.038C105.861 38.9944 105.774 38.958 105.702 38.9362C105.623 38.9144 105.55 38.8999 105.471 38.8999C105.312 38.8999 105.19 38.9362 105.103 39.0162C105.017 39.0961 104.973 39.2197 104.973 39.3869C104.973 39.5759 105.017 39.7141 105.096 39.8013C105.175 39.8885 105.312 39.9322 105.5 39.9322C105.644 39.9322 105.796 39.8813 105.969 39.7868V40.2448L105.961 40.252Z" fill="#565656"/>
<path d="M107.598 38.5945C107.764 38.689 107.844 38.8562 107.844 39.0961V39.9612C107.844 40.1139 107.764 40.2229 107.613 40.2956C107.461 40.3683 107.245 40.3974 106.964 40.3974C106.43 40.3974 106.163 40.1866 106.163 39.7722C106.163 39.5977 106.221 39.4596 106.329 39.3578C106.437 39.2561 106.603 39.2124 106.82 39.2124C106.906 39.2124 107 39.227 107.086 39.2488C107.173 39.2706 107.252 39.2997 107.317 39.336V39.2197C107.317 39.0089 107.18 38.9071 106.913 38.9071C106.812 38.9071 106.704 38.9289 106.596 38.9653C106.488 39.0016 106.401 39.0452 106.336 39.1034V38.6236C106.401 38.58 106.502 38.5436 106.632 38.5146C106.762 38.4855 106.906 38.4709 107.065 38.4709C107.267 38.4709 107.447 38.5146 107.606 38.6091L107.598 38.5945ZM106.401 38.2892C106.401 38.1947 106.409 38.1147 106.445 38.0348C106.481 37.9548 106.524 37.8966 106.589 37.853C106.654 37.8094 106.726 37.7876 106.805 37.7876C106.863 37.7876 106.921 37.8021 106.971 37.8239C107.022 37.8458 107.072 37.8821 107.137 37.9257C107.18 37.9621 107.223 37.9839 107.252 37.9984C107.281 38.013 107.317 38.0202 107.353 38.0202C107.44 38.0202 107.483 37.9475 107.469 37.8094H107.728C107.728 37.9621 107.699 38.0857 107.62 38.1729C107.541 38.2601 107.447 38.311 107.324 38.311C107.245 38.311 107.173 38.2965 107.122 38.2747C107.072 38.2456 107.007 38.2092 106.949 38.1656C106.906 38.1365 106.877 38.1147 106.856 38.1002C106.834 38.0857 106.812 38.0857 106.784 38.0857C106.733 38.0857 106.697 38.1075 106.675 38.1511C106.654 38.1947 106.639 38.2456 106.647 38.3037H106.401V38.2892ZM107.238 39.9903C107.288 39.9758 107.31 39.9394 107.31 39.8885V39.605C107.223 39.5759 107.137 39.5614 107.036 39.5614C106.921 39.5614 106.834 39.5759 106.776 39.6123C106.726 39.6486 106.697 39.6995 106.697 39.7795C106.697 39.8522 106.726 39.9103 106.784 39.9467C106.841 39.9903 106.906 40.0121 106.985 40.0121C107.108 40.0121 107.195 40.0048 107.245 39.9903H107.238Z" fill="#565656"/>
<path d="M108.377 40.1501C108.226 39.9829 108.146 39.743 108.146 39.4159C108.146 39.0888 108.226 38.8343 108.377 38.6744C108.529 38.5217 108.759 38.4418 109.07 38.4418C109.38 38.4418 109.61 38.5217 109.769 38.6817C109.928 38.8416 110 39.0815 110 39.4159C110 39.7503 109.921 39.9757 109.762 40.1429C109.603 40.3101 109.372 40.39 109.07 40.39C108.767 40.39 108.536 40.3101 108.377 40.1429V40.1501ZM109.365 39.823C109.43 39.7285 109.466 39.5976 109.466 39.4159C109.466 39.2196 109.43 39.0815 109.365 38.9943C109.3 38.907 109.199 38.8707 109.062 38.8707C108.925 38.8707 108.824 38.9143 108.759 38.9943C108.702 39.0742 108.666 39.2196 108.666 39.4159C108.666 39.6122 108.695 39.743 108.759 39.8303C108.824 39.9175 108.925 39.9611 109.055 39.9611C109.185 39.9611 109.286 39.9175 109.351 39.823H109.365Z" fill="#565656"/>
<path d="M29.1281 2.46444C26.8347 1.58481 24.4982 0.770607 22.1399 0.021833C21.8587 -0.0654028 21.563 0.0799903 21.4548 0.356237C20.3586 3.17686 19.3562 6.04838 18.4692 8.97078C12.3465 10.4901 6.41844 12.4747 0.713986 14.8955C0.259649 15.0918 -0.0288186 15.5498 2.81606e-05 16.0514C0.266861 20.3841 0.750044 24.6587 1.44958 28.8533C1.52891 29.304 1.86065 29.6747 2.30056 29.7911C4.26935 30.3072 6.26699 30.7797 8.27184 31.1941C8.45214 31.2305 8.618 31.0851 8.59637 30.896C8.48819 29.8274 8.39444 28.7588 8.3079 27.6901C8.30069 27.5665 8.21415 27.472 8.09155 27.443C7.06749 27.2249 6.04343 26.985 5.02658 26.7378C4.8535 26.6942 4.72369 26.5488 4.69484 26.3743C4.27656 23.5828 3.95204 20.7622 3.72848 17.9124C3.71405 17.7162 3.82223 17.5344 4.00252 17.4617C8.23579 15.7534 12.5989 14.2922 17.0557 13.0854C17.1567 13.0563 17.2432 13.1508 17.2216 13.2526C17.0701 13.8124 16.9259 14.3794 16.7889 14.9392C16.7095 15.259 16.8826 15.5934 17.1855 15.717C17.7985 15.9569 18.4187 16.1895 19.0389 16.4149C19.111 16.444 19.1615 16.5094 19.1615 16.5821C19.2697 18.3486 19.3346 20.1224 19.3634 21.9108C19.3779 22.5796 19.3779 23.2484 19.3779 23.9172C19.3779 24.4842 19.3779 25.044 19.3634 25.611C19.349 26.6724 19.3202 27.7337 19.2769 28.7806C19.2697 29.0496 19.0317 29.2531 18.7649 29.224C18.2745 29.1659 17.7769 29.1004 17.2865 29.035C17.1134 29.0132 16.9619 29.1586 16.9764 29.3331C17.0773 30.3944 17.1927 31.4485 17.3153 32.4954C17.3297 32.619 17.4307 32.7207 17.5533 32.7353C18.9091 32.9097 20.2649 33.0551 21.6279 33.1787C22.176 33.2296 22.6592 32.8152 22.6952 32.2627C22.825 30.3145 22.9116 28.3517 22.9476 26.3743C22.9621 25.5529 22.9693 24.7387 22.9693 23.9099C22.9693 23.4883 22.9693 23.0666 22.9693 22.6523C22.9549 21.0384 22.9044 19.4391 22.825 17.8398C22.825 17.7889 22.8755 17.7525 22.9188 17.7671C22.9549 17.7816 22.9909 17.7889 23.0342 17.8034C23.3515 17.9052 23.6904 17.7598 23.8347 17.4545C25.9838 12.8382 27.8588 8.06207 29.4237 3.14778C29.5175 2.86427 29.3661 2.55167 29.092 2.4499L29.1281 2.46444ZM22.6159 14.0377C22.551 14.1831 22.4861 14.3285 22.4212 14.4812C22.3347 14.6775 22.1039 14.7792 21.9019 14.7065C21.289 14.4884 20.676 14.2704 20.063 14.045C19.861 13.9723 19.7457 13.7469 19.8033 13.5361C20.2793 11.7696 20.7913 10.0249 21.3466 8.28743C21.8659 6.65903 22.4212 5.03789 23.0125 3.43857C23.0919 3.22775 23.3227 3.11144 23.539 3.18413C24.3756 3.46765 25.2121 3.75843 26.0415 4.05649C26.2578 4.13646 26.3732 4.37636 26.2939 4.59445C25.1977 7.80763 23.9717 10.9554 22.6159 14.0305V14.0377Z" fill="#565656"/>
<path d="M33.2821 26.4034C32.9503 30.2854 32.4455 34.1093 31.7604 37.8822C31.6811 38.3039 31.3854 38.6528 30.9815 38.7837C25.4285 40.5938 19.7024 42.0041 13.8321 42.9928C13.3129 43.08 12.8081 42.7384 12.7071 42.2149C12.022 38.7764 11.4811 35.287 11.0917 31.7466C10.9547 30.4963 10.8321 29.2386 10.7311 27.981C10.5652 25.9018 10.4498 23.8009 10.3921 21.6927C10.3777 21.0893 10.897 20.6095 11.4883 20.6822C13.3057 20.9076 15.1158 21.1693 16.9043 21.4746C17.0341 21.4964 17.1279 21.6055 17.1351 21.7436C17.1495 22.4706 17.1567 23.2048 17.1567 23.9318C17.1567 24.2516 17.1567 24.5642 17.1567 24.8841C17.1567 25.0513 17.0053 25.1821 16.8394 25.1531C16.1254 25.0295 15.4115 24.9132 14.6903 24.8041C14.4018 24.7605 14.1422 24.9931 14.1639 25.2912C14.2288 26.4107 14.3153 27.523 14.4091 28.6352C14.5172 29.8856 14.647 31.1287 14.7985 32.3718C15.0437 34.4291 15.3394 36.4719 15.6927 38.5002C15.736 38.7546 15.9812 38.9218 16.2336 38.8782C20.3082 38.0858 24.3035 37.0753 28.2195 35.8685C28.3781 35.8176 28.4935 35.6795 28.5223 35.5196C28.9046 33.1933 29.2219 30.8452 29.4743 28.4826C29.4959 28.2717 29.3661 28.0682 29.157 28.01C27.9238 27.6538 26.6761 27.3194 25.4285 26.9996C25.3059 26.9705 25.2194 26.8542 25.2266 26.7306C25.2482 25.8073 25.2554 24.8841 25.2554 23.9536C25.2554 23.8227 25.2554 23.6919 25.2554 23.561C25.2554 23.3865 25.4213 23.2484 25.5944 23.292C27.5848 23.7791 29.5536 24.3243 31.5008 24.9132C31.8253 25.0149 32.157 25.1094 32.4816 25.2112C33.0008 25.3712 33.3398 25.88 33.2965 26.4325L33.2821 26.4034Z" fill="#565656"/>
<path d="M34.6017 7.75682C31.3276 10.4321 28.1905 13.2745 25.212 16.2769C24.9741 16.5168 24.9524 16.9093 25.176 17.171C26.1207 18.2906 27.0799 19.3883 28.0679 20.4714C28.2914 20.7113 28.652 20.755 28.9261 20.566C32.4093 18.1452 35.7555 15.5426 38.9575 12.7656C39.1883 12.5621 39.2172 12.2131 39.0224 11.9732C37.8397 10.5556 36.621 9.16714 35.3733 7.80771C35.1714 7.58962 34.8397 7.56781 34.6089 7.74955L34.6017 7.75682ZM27.9669 16.5458C30.0655 14.4885 32.2435 12.5112 34.4935 10.6211C34.6666 10.4757 34.9262 10.4975 35.0704 10.6647C35.4166 11.0572 35.7628 11.4425 36.1017 11.8424C36.2532 12.0241 36.2315 12.2931 36.0512 12.4458C33.794 14.3359 31.4646 16.1387 29.0703 17.8544C28.8972 17.978 28.6592 17.9489 28.515 17.7889C28.3203 17.5709 28.1328 17.3528 27.9381 17.1347C27.7938 16.9675 27.801 16.713 27.9597 16.5531L27.9669 16.5458Z" fill="#565656"/>
<path d="M39.9023 16.553C36.8517 17.5562 33.8589 18.6757 30.9165 19.9188C30.6064 20.0497 30.4406 20.4059 30.5487 20.7258C30.9021 21.8308 31.2627 22.9358 31.6449 24.0262C31.7603 24.3461 32.092 24.5278 32.4238 24.4478C35.5464 23.67 38.6258 22.7758 41.6547 21.7508C41.9432 21.6563 42.1019 21.3364 42.0081 21.0456C41.5682 19.6499 41.0994 18.2686 40.6018 16.8947C40.5009 16.6112 40.1908 16.4585 39.9023 16.553ZM32.8853 22.0416C32.8348 21.8817 32.7771 21.729 32.7267 21.5691C32.6545 21.3582 32.7627 21.1256 32.9646 21.0456C34.919 20.246 36.9022 19.5045 38.9143 18.8139C39.1306 18.7412 39.3686 18.8575 39.448 19.0756C39.5561 19.3809 39.6571 19.6935 39.7653 20.0061C39.8374 20.2314 39.7148 20.4713 39.4984 20.544C37.4864 21.191 35.4527 21.7799 33.3973 22.3178C33.1882 22.376 32.9646 22.2524 32.8925 22.0416H32.8853Z" fill="#565656"/>
</g>
<defs>
<clipPath id="clip0_1741_16095">
<rect width="110" height="43" fill="white"/>
</clipPath>
</defs>
</svg>
