<svg width="152" height="26" viewBox="0 0 152 26" fill="none" xmlns="http://www.w3.org/2000/svg">
<g clip-path="url(#clip0_1722_14380)">
<path d="M15.64 25.36H8.09C5.24 25.36 3.18 24.81 1.91 23.7C0.64 22.6 0 20.8 0 18.3V0H4.95V18.31C4.95 19.31 5.18 20 5.63 20.38C6.08 20.76 6.9 20.95 8.09 20.95H15.64V25.37V25.36Z" fill="black"/>
<path d="M38.22 0V16.67C38.22 19.42 37.29 21.6 35.42 23.19C33.56 24.78 31.26 25.58 28.53 25.58C25.8 25.58 23.5 24.78 21.64 23.19C19.78 21.6 18.84 19.43 18.84 16.67V0H23.79V16.49C23.79 18.06 24.22 19.23 25.09 20C25.96 20.77 27.1 21.16 28.53 21.16C29.96 21.16 31.11 20.77 31.99 20C32.87 19.23 33.31 18.06 33.31 16.49V0H38.23H38.22Z" fill="black"/>
<path d="M62.12 10.22L57.56 19.84C56.89 21.12 56.07 21.76 55.08 21.76C54.09 21.76 53.27 21.08 52.6 19.73L47.97 10.22V25.36H43.02V0H47.9L55.06 14.64L62.19 0H67.07V25.36H62.12V10.22Z" fill="black"/>
<path d="M77.22 25.36H72.27V0H77.22V25.36Z" fill="black"/>
<path d="M109.17 25.36H101.62C98.77 25.36 96.71 24.81 95.44 23.7C94.17 22.6 93.53 20.8 93.53 18.3V0H98.48V18.31C98.48 19.31 98.71 20 99.16 20.38C99.61 20.76 100.43 20.95 101.62 20.95H109.17V25.37V25.36Z" fill="black"/>
<path d="M132.36 25.36H127.2L125.78 20.98H117.27L115.88 25.36H110.72L118.83 2.14001C119.19 1.33001 119.58 0.77001 120.02 0.47001C120.46 0.16001 121 0.0100098 121.64 0.0100098C122.28 0.0100098 122.8 0.15001 123.19 0.44001C123.58 0.72001 123.93 1.29001 124.24 2.15001L132.36 25.37V25.36ZM124.63 16.81L121.64 6.77001L118.51 16.81H124.64H124.63Z" fill="black"/>
<path d="M151.38 18.06C151.38 20.41 150.74 22.22 149.47 23.47C148.2 24.73 146.42 25.36 144.14 25.36H140.72C137.92 25.36 135.93 24.87 134.75 23.9C133.57 22.93 132.99 21.24 132.99 18.84V0H143.71C146.13 0 147.95 0.61 149.18 1.82C150.4 3.03 151.01 4.74 151.01 6.95C151.01 8.23 150.68 9.32 150.03 10.23C149.38 11.13 148.66 11.77 147.87 12.15C150.2 13.24 151.36 15.21 151.36 18.06H151.38ZM143.33 9.9C145.16 9.9 146.07 8.99 146.07 7.16C146.07 5.33 145.16 4.42 143.33 4.42H137.95V9.91H143.33V9.9ZM146.43 17.81C146.43 16.67 146.23 15.81 145.82 15.23C145.42 14.65 144.69 14.36 143.65 14.36H137.95V18.35C137.95 19.32 138.19 20 138.68 20.38C139.17 20.76 139.97 20.95 141.08 20.95H143.64C145.49 20.95 146.42 19.91 146.42 17.82L146.43 17.81Z" fill="black"/>
<path d="M88.61 17.11H81.52V25.57H88.61V17.11Z" fill="#ED6D2C"/>
</g>
<defs>
<clipPath id="clip0_1722_14380">
<rect width="151.38" height="25.57" fill="white"/>
</clipPath>
</defs>
</svg>
