<svg width="71" height="43" viewBox="0 0 71 43" fill="none" xmlns="http://www.w3.org/2000/svg">
<g clip-path="url(#clip0_1741_16035)">
<path d="M10.1663 15.5208L12.2893 4.79873L22.3058 0L15.7801 20.9133L13.9565 21.1088L10.1663 15.5208Z" fill="#565656"/>
<path d="M7.46473 24.1962H14.8138L8.11118 14.3193H0L7.46473 24.1962Z" fill="#565656"/>
<path d="M19.8424 11.686L27.3071 7.97693L17.4471 26.1311H9.28833L9.92797 25.0484H16.6238L14.63 22.1007L16.5285 21.8213L19.8424 11.686Z" fill="#565656"/>
<path d="M27.3071 21.1787L28.5523 20.585C28.668 21.025 28.8858 21.3603 29.1988 21.5908C29.5118 21.8213 29.9133 21.9331 30.4032 21.9331C30.8931 21.9331 31.2334 21.8004 31.5056 21.5349C31.7777 21.2695 31.9138 20.9202 31.9138 20.4732C31.9138 19.8934 31.4443 19.3835 30.5121 18.9295C30.3828 18.8596 30.2807 18.8108 30.2127 18.7828C29.1579 18.2519 28.4503 17.777 28.1032 17.3509C27.7494 16.9248 27.5724 16.4009 27.5724 15.7792C27.5724 14.976 27.8378 14.3263 28.3686 13.8304C28.8994 13.3345 29.5934 13.083 30.4508 13.083C31.1585 13.083 31.7505 13.2227 32.2268 13.5021C32.7032 13.7815 33.0298 14.1866 33.2135 14.7105L31.9955 15.3532C31.805 15.0458 31.594 14.8153 31.3627 14.6756C31.1313 14.5359 30.8727 14.4591 30.5733 14.4591C30.1514 14.4591 29.818 14.5708 29.573 14.7943C29.3281 15.0179 29.1988 15.3182 29.1988 15.6954C29.1988 16.2891 29.7431 16.841 30.8251 17.3509C30.9067 17.3928 30.9748 17.4207 31.0224 17.4417C31.9683 17.8887 32.6215 18.3288 32.9754 18.7549C33.3292 19.181 33.5061 19.7188 33.5061 20.3614C33.5061 21.2904 33.2203 22.0309 32.6487 22.5827C32.0771 23.1345 31.3014 23.4069 30.3283 23.4069C29.5118 23.4069 28.8449 23.2183 28.321 22.8272C27.797 22.443 27.4568 21.8912 27.2935 21.1717L27.3071 21.1787Z" fill="#565656"/>
<path d="M35.9763 23.4069V13.083H41.5902V14.508H37.6094V17.0924H41.5902V18.5663H37.6094V21.8981H41.5902V23.3999H35.9763V23.4069Z" fill="#565656"/>
<path d="M51.2731 23.4349L50.1708 20.8713H46.3261L45.2033 23.4349H43.5498L48.245 13.083L52.9335 23.4349H51.2731ZM46.9113 19.5232H49.6128L48.2586 16.2333L46.9113 19.5232Z" fill="#565656"/>
<path d="M54.7707 23.4349V13.083H56.9822C58.418 13.083 59.4319 13.1598 60.0103 13.3065C60.5955 13.4532 61.1127 13.7047 61.5482 14.0539C62.1334 14.508 62.5757 15.0947 62.8751 15.8142C63.1745 16.5266 63.3242 17.3509 63.3242 18.2659C63.3242 19.181 63.1745 19.9982 62.8751 20.7107C62.5757 21.4162 62.1334 22.0029 61.5482 22.4639C61.1059 22.8132 60.6091 23.0577 60.0443 23.2113C59.4864 23.358 58.6086 23.4349 57.4177 23.4349H54.7639H54.7707ZM56.4106 21.9121H57.7852C58.5405 21.9121 59.1121 21.8632 59.4864 21.7584C59.8674 21.6537 60.194 21.479 60.473 21.2346C60.8541 20.8993 61.1399 20.4872 61.3304 19.9842C61.521 19.4883 61.6162 18.9085 61.6162 18.2519C61.6162 17.5954 61.521 17.0156 61.3304 16.5197C61.1399 16.0237 60.8541 15.6046 60.473 15.2693C60.1872 15.0249 59.847 14.8502 59.4523 14.7455C59.0577 14.6407 58.4316 14.5918 57.5879 14.5918H56.4038V21.9191L56.4106 21.9121Z" fill="#565656"/>
<path d="M27.3071 26.1311H28.8858V32.25C28.8858 33.1581 29.09 33.8426 29.4982 34.2967C29.9065 34.7507 30.5189 34.9812 31.3355 34.9812C32.1521 34.9812 32.7509 34.7507 33.166 34.2967C33.5742 33.8356 33.7784 33.1581 33.7784 32.25V26.1311H35.3775V32.4037C35.3775 33.7658 35.044 34.7856 34.3704 35.4632C33.6967 36.1407 32.6896 36.476 31.3423 36.476C29.995 36.476 28.9811 36.1407 28.3142 35.4632C27.6474 34.7856 27.3139 33.7658 27.3139 32.3967V26.1241L27.3071 26.1311Z" fill="#565656"/>
<path d="M38.2693 36.441V26.1311H43.8763V27.5561H39.9024V30.1266H43.8763V31.6004H39.9024V36.448H38.2693V36.441Z" fill="#565656"/>
<path d="M47.6871 31.8379V36.455H46.156V26.1311H48.4356C49.1024 26.1311 49.6196 26.173 49.9938 26.2638C50.3613 26.3546 50.6743 26.5013 50.9397 26.7109C51.2527 26.9623 51.4909 27.2836 51.661 27.6748C51.8311 28.0729 51.9128 28.506 51.9128 28.974C51.9128 29.7983 51.7154 30.4479 51.3276 30.9159C50.9397 31.3839 50.3613 31.6633 49.606 31.7611L53.0696 36.455H51.2255L47.8776 31.8379H47.6939H47.6871ZM47.7891 30.5317H48.0885C48.9527 30.5317 49.5311 30.4269 49.8101 30.2243C50.0959 30.0148 50.232 29.6516 50.232 29.1207C50.232 28.5549 50.0823 28.1498 49.7761 27.9193C49.4699 27.6888 48.9051 27.57 48.0817 27.57H47.7823V30.5317H47.7891Z" fill="#565656"/>
<path d="M64.7939 34.2198L66.0392 33.6261C66.1549 34.0661 66.3726 34.4014 66.6856 34.6319C66.9987 34.8624 67.4001 34.9812 67.8901 34.9812C68.38 34.9812 68.7202 34.8485 68.9924 34.583C69.2646 34.3176 69.4007 33.9614 69.4007 33.5213C69.4007 32.9415 68.9312 32.4246 67.9989 31.9776C67.8697 31.9077 67.7676 31.8588 67.6995 31.8309C66.6448 31.3 65.9371 30.8251 65.5901 30.399C65.2362 29.9729 65.0661 29.449 65.0661 28.8273C65.0661 28.0241 65.3315 27.3744 65.8623 26.8785C66.393 26.3826 67.0871 26.1311 67.9445 26.1311C68.6522 26.1311 69.2442 26.2708 69.7205 26.5502C70.1969 26.8296 70.5235 27.2347 70.7072 27.7586L69.4892 28.4012C69.2986 28.0939 69.0877 27.8634 68.8563 27.7237C68.6318 27.584 68.3664 27.5072 68.067 27.5072C67.6451 27.5072 67.3185 27.6189 67.0667 27.8424C66.8217 28.066 66.6993 28.3663 66.6993 28.7435C66.6993 29.3372 67.2436 29.8891 68.3256 30.399C68.4072 30.4409 68.4753 30.4688 68.5229 30.4898C69.4688 30.9368 70.122 31.3769 70.4758 31.803C70.8297 32.2291 71.0066 32.7669 71.0066 33.4025C71.0066 34.3316 70.7208 35.072 70.1492 35.6238C69.5776 36.1756 68.8019 36.448 67.8288 36.448C67.0123 36.448 66.3454 36.2594 65.8215 35.8683C65.2975 35.4841 64.9573 34.9323 64.7939 34.2128V34.2198Z" fill="#565656"/>
<path d="M63.8347 31.1394H59.5069V32.5015H62.1879C61.7048 33.9334 60.3779 34.9672 58.8128 34.9672C56.8394 34.9672 55.2404 33.3257 55.2404 31.3C55.2404 29.2744 56.8394 27.6259 58.8128 27.6259C59.8131 27.6259 60.7113 28.045 61.3578 28.7226L62.5486 27.8424C61.6299 26.7947 60.2962 26.1311 58.8128 26.1311C56.0365 26.1311 53.7773 28.4432 53.7773 31.3C53.7773 34.1569 56.0297 36.462 58.8128 36.462C61.5959 36.462 63.8483 34.1499 63.8483 31.3C63.8483 31.2442 63.8483 31.1953 63.8415 31.1464L63.8347 31.1394Z" fill="#565656"/>
<path d="M27.6814 42.2037V39.5074H29.1444V39.8777H28.1033V40.5552H29.1444V40.9394H28.1033V41.8125H29.1444V42.2037H27.6814Z" fill="#565656"/>
<path d="M29.6343 42.2037V39.5074H30.2127C30.5869 39.5074 30.8523 39.5284 31.002 39.5633C31.1517 39.6052 31.2878 39.6681 31.4035 39.7589C31.5532 39.8777 31.6689 40.0313 31.7505 40.2199C31.8322 40.4085 31.8662 40.6181 31.8662 40.8625C31.8662 41.107 31.8254 41.3166 31.7505 41.4982C31.6689 41.6868 31.56 41.8335 31.4035 41.9592C31.2878 42.05 31.1585 42.1129 31.0156 42.1548C30.8659 42.1967 30.6414 42.2107 30.3284 42.2107H29.6411L29.6343 42.2037ZM30.063 41.8055H30.4236C30.621 41.8055 30.7707 41.7916 30.8659 41.7636C30.968 41.7357 31.0497 41.6938 31.1245 41.6239C31.2198 41.5401 31.2946 41.4283 31.3491 41.3026C31.3967 41.1699 31.4239 41.0232 31.4239 40.8486C31.4239 40.6739 31.3967 40.5273 31.3491 40.3945C31.3014 40.2618 31.2266 40.1571 31.1245 40.0663C31.0497 40.0034 30.9612 39.9545 30.8591 39.9265C30.757 39.8986 30.5937 39.8846 30.3692 39.8846H30.063V41.7916V41.8055Z" fill="#565656"/>
<path d="M32.3425 39.5074H32.7644V41.1489C32.7644 41.3934 32.8189 41.575 32.9277 41.7008C33.0366 41.8195 33.1999 41.8824 33.4177 41.8824C33.6354 41.8824 33.7987 41.8195 33.9076 41.7008C34.0165 41.575 34.0709 41.3934 34.0709 41.1489V39.5074H34.4996V41.1839C34.4996 41.5471 34.4112 41.8195 34.2342 42.0011C34.0573 42.1827 33.7851 42.2735 33.4245 42.2735C33.0638 42.2735 32.7916 42.1827 32.6147 42.0011C32.431 41.8195 32.3493 41.5471 32.3493 41.1839V39.5074H32.3425Z" fill="#565656"/>
<path d="M37.2012 40.164C37.0787 40.0592 36.9495 39.9824 36.8202 39.9265C36.6841 39.8706 36.5412 39.8497 36.3983 39.8497C36.1125 39.8497 35.8811 39.9405 35.6974 40.1291C35.5205 40.3177 35.4252 40.5622 35.4252 40.8625C35.4252 41.1629 35.5137 41.3934 35.6906 41.582C35.8607 41.7706 36.0853 41.8684 36.3506 41.8684C36.5072 41.8684 36.6569 41.8404 36.793 41.7845C36.9359 41.7287 37.0719 41.6448 37.2012 41.5331V42.029C37.0856 42.1128 36.9631 42.1757 36.827 42.2176C36.6909 42.2595 36.5412 42.2805 36.3847 42.2805C36.1873 42.2805 35.9968 42.2456 35.8267 42.1827C35.6566 42.1128 35.5069 42.0151 35.3776 41.8823C35.2483 41.7566 35.153 41.6029 35.085 41.4283C35.0169 41.2537 34.9829 41.0651 34.9829 40.8695C34.9829 40.6739 35.0169 40.4853 35.085 40.3107C35.153 40.1361 35.2551 39.9824 35.3844 39.8567C35.5137 39.724 35.6634 39.6192 35.8335 39.5563C36.0036 39.4865 36.1873 39.4515 36.3779 39.4515C36.5344 39.4515 36.6773 39.4725 36.8202 39.5214C36.9563 39.5703 37.0924 39.6401 37.2285 39.7309L37.208 40.171L37.2012 40.164Z" fill="#565656"/>
<path d="M39.4672 42.2037L39.1678 41.5122H38.1267L37.8204 42.2037H37.3713L38.6438 39.3958L39.9163 42.2037H39.4672ZM38.2832 41.142H39.0181L38.7459 40.5273C38.7323 40.4924 38.7119 40.4435 38.6983 40.3946C38.6778 40.3457 38.6642 40.2898 38.6506 40.227C38.637 40.2829 38.6234 40.3387 38.603 40.3946C38.5894 40.4435 38.569 40.4924 38.5554 40.5343L38.29 41.149L38.2832 41.142Z" fill="#565656"/>
<path d="M42.2706 40.164C42.1481 40.0592 42.0256 39.9824 41.8895 39.9265C41.7534 39.8706 41.6105 39.8497 41.4676 39.8497C41.1818 39.8497 40.9437 39.9405 40.7667 40.1291C40.583 40.3177 40.4945 40.5622 40.4945 40.8625C40.4945 41.1629 40.583 41.3934 40.7599 41.582C40.9369 41.7706 41.1546 41.8684 41.42 41.8684C41.5765 41.8684 41.7262 41.8404 41.8623 41.7845C42.0052 41.7287 42.1413 41.6448 42.2706 41.5331V42.029C42.1549 42.1128 42.0324 42.1757 41.8963 42.2176C41.7602 42.2595 41.6173 42.2805 41.454 42.2805C41.2499 42.2805 41.0661 42.2456 40.896 42.1827C40.7259 42.1128 40.5762 42.0151 40.4469 41.8823C40.3176 41.7566 40.2224 41.6029 40.1543 41.4283C40.0863 41.2537 40.0522 41.0651 40.0522 40.8695C40.0522 40.6739 40.0863 40.4853 40.1543 40.3107C40.2224 40.1361 40.3244 39.9824 40.4537 39.8567C40.583 39.724 40.7327 39.6192 40.9028 39.5563C41.0729 39.4865 41.2567 39.4515 41.454 39.4515C41.6105 39.4515 41.7534 39.4725 41.8963 39.5214C42.0392 39.5703 42.1753 39.6401 42.3046 39.7309L42.2774 40.171L42.2706 40.164ZM40.9913 42.9301V42.7345C41.0866 42.7555 41.175 42.7764 41.2431 42.7834C41.3179 42.7974 41.3724 42.7974 41.4268 42.7974C41.488 42.7974 41.5357 42.7834 41.5629 42.7694C41.5969 42.7485 41.6105 42.7205 41.6105 42.6716C41.6105 42.6228 41.5901 42.5878 41.5561 42.5669C41.5153 42.5459 41.454 42.5319 41.3724 42.5319C41.3655 42.5319 41.3519 42.5319 41.3383 42.5319C41.3247 42.5319 41.3111 42.5319 41.3043 42.5319V42.1967H41.4608V42.3573H41.4948C41.6309 42.3573 41.7262 42.3853 41.7942 42.4342C41.8623 42.49 41.8895 42.5669 41.8895 42.6716C41.8895 42.7764 41.8555 42.8533 41.7806 42.9091C41.7058 42.965 41.6037 42.993 41.4608 42.993C41.4064 42.993 41.3383 42.993 41.2567 42.979C41.1818 42.965 41.0934 42.9441 40.9981 42.9231L40.9913 42.9301Z" fill="#565656"/>
<path d="M44.5365 42.2037L44.2371 41.5122H43.196L42.8898 42.2037H42.4407L43.7131 39.3957L44.9856 42.2037H44.5365ZM44.2439 38.781C44.2235 38.8998 44.1827 38.9975 44.1214 39.0604C44.0602 39.1303 43.9853 39.1582 43.8969 39.1582C43.8833 39.1582 43.8629 39.1582 43.8492 39.1582C43.8356 39.1582 43.8152 39.1582 43.8016 39.1582L43.5771 39.0953C43.5771 39.0953 43.543 39.0953 43.5362 39.0953C43.5294 39.0953 43.5158 39.0953 43.509 39.0953C43.4682 39.0953 43.4342 39.1023 43.4137 39.1233C43.3865 39.1442 43.3661 39.1722 43.3593 39.2211H43.196C43.2232 39.0883 43.264 38.9975 43.3185 38.9347C43.3729 38.8718 43.4478 38.8369 43.5362 38.8369C43.5498 38.8369 43.5702 38.8369 43.5907 38.8369C43.6111 38.8369 43.6315 38.8439 43.6451 38.8509L43.856 38.9067C43.856 38.9067 43.8765 38.9067 43.8901 38.9067C43.9037 38.9067 43.9173 38.9067 43.9445 38.9067C43.9785 38.9067 44.0126 38.8998 44.0398 38.8788C44.067 38.8578 44.0806 38.8229 44.0942 38.788H44.2575L44.2439 38.781ZM43.3593 41.142H44.0942L43.822 40.5273C43.8084 40.4923 43.788 40.4435 43.7744 40.3946C43.754 40.3457 43.7404 40.2898 43.7268 40.2269C43.7132 40.2828 43.6995 40.3387 43.6791 40.3946C43.6655 40.4435 43.6451 40.4923 43.6315 40.5343L43.3661 41.1489L43.3593 41.142Z" fill="#565656"/>
<path d="M47.9322 40.8625C47.9322 41.0511 47.8982 41.2328 47.8301 41.4074C47.7621 41.582 47.66 41.7287 47.5239 41.8614C47.3878 41.9941 47.2381 42.0989 47.068 42.1688C46.8979 42.2386 46.721 42.2735 46.5304 42.2735C46.3399 42.2735 46.163 42.2386 45.9929 42.1688C45.8227 42.0989 45.673 41.9941 45.5369 41.8614C45.4077 41.7287 45.3056 41.575 45.2375 41.4074C45.1695 41.2397 45.1287 41.0581 45.1287 40.8625C45.1287 40.667 45.1627 40.4854 45.2375 40.3177C45.3056 40.1431 45.4077 39.9964 45.5369 39.8567C45.673 39.724 45.8227 39.6192 45.9929 39.5494C46.163 39.4795 46.3467 39.4446 46.5304 39.4446C46.7142 39.4446 46.8979 39.4795 47.068 39.5494C47.2381 39.6192 47.3878 39.724 47.5239 39.8567C47.66 39.9894 47.7621 40.1431 47.8301 40.3177C47.8982 40.4923 47.9322 40.667 47.9322 40.8625ZM47.4899 40.8625C47.4899 40.7298 47.4627 40.5971 47.415 40.4714C47.3674 40.3457 47.2994 40.2409 47.2041 40.1431C47.1156 40.0453 47.0136 39.9754 46.8979 39.9265C46.7822 39.8777 46.6597 39.8497 46.5236 39.8497C46.3875 39.8497 46.2718 39.8777 46.1562 39.9265C46.0405 39.9754 45.9384 40.0453 45.8432 40.1431C45.7547 40.2339 45.6866 40.3457 45.639 40.4714C45.5914 40.5971 45.5642 40.7228 45.5642 40.8625C45.5642 41.0022 45.5914 41.128 45.639 41.2467C45.6866 41.3725 45.7547 41.4772 45.8432 41.575C45.9384 41.6728 46.0405 41.7427 46.1562 41.7985C46.2718 41.8474 46.3943 41.8754 46.5236 41.8754C46.6529 41.8754 46.7754 41.8474 46.8911 41.7985C47.0068 41.7496 47.1088 41.6728 47.2041 41.575C47.2926 41.4842 47.3674 41.3725 47.415 41.2467C47.4627 41.128 47.4899 40.9953 47.4899 40.8625Z" fill="#565656"/>
<path d="M50.62 42.2037L50.3206 41.5122H49.2795L48.9733 42.2037H48.5242L49.7966 39.3958L51.0691 42.2037H50.62ZM49.436 41.142H50.1641L49.8987 40.5273C49.8783 40.4924 49.8647 40.4435 49.8511 40.3946C49.8307 40.3457 49.8171 40.2898 49.8035 40.227C49.7898 40.2829 49.7694 40.3387 49.7558 40.3946C49.7354 40.4435 49.7218 40.4924 49.7082 40.5343L49.436 41.149V41.142Z" fill="#565656"/>
<path d="M52.083 42.2037V39.5074H52.6614C53.0357 39.5074 53.301 39.5284 53.4507 39.5633C53.6073 39.6052 53.7365 39.6681 53.8522 39.7589C54.0019 39.8777 54.1176 40.0313 54.1993 40.2199C54.2741 40.4085 54.3149 40.6181 54.3149 40.8625C54.3149 41.107 54.2741 41.3166 54.1993 41.4982C54.1244 41.6868 54.0087 41.8335 53.8522 41.9592C53.7365 42.05 53.6073 42.1129 53.4576 42.1548C53.3147 42.1967 53.0833 42.2107 52.7703 42.2107H52.083V42.2037ZM52.5117 41.8055H52.8723C53.0697 41.8055 53.2194 41.7916 53.3147 41.7636C53.4099 41.7357 53.4984 41.6938 53.5732 41.6239C53.6753 41.5401 53.7433 41.4283 53.7978 41.3026C53.8454 41.1699 53.8726 41.0232 53.8726 40.8486C53.8726 40.6739 53.8454 40.5273 53.7978 40.3945C53.7502 40.2618 53.6753 40.1571 53.5732 40.0663C53.4984 40.0034 53.4099 39.9545 53.3078 39.9265C53.2058 39.8986 53.0425 39.8846 52.8247 39.8846H52.5117V41.7916V41.8055Z" fill="#565656"/>
<path d="M54.8118 42.2037V39.5074H55.2405V42.2037H54.8118Z" fill="#565656"/>
<path d="M55.7031 41.6658L56.0434 41.5052C56.0706 41.6239 56.1318 41.7147 56.2203 41.7776C56.3087 41.8405 56.4176 41.8754 56.5537 41.8754C56.683 41.8754 56.7783 41.8405 56.8531 41.7636C56.928 41.6938 56.9688 41.596 56.9688 41.4702C56.9688 41.3166 56.8395 41.1699 56.5877 41.0511C56.5537 41.0302 56.5265 41.0162 56.5061 41.0092C56.2203 40.8625 56.0229 40.7298 55.9277 40.6181C55.8324 40.4993 55.7848 40.3596 55.7848 40.185C55.7848 39.9685 55.8596 39.7868 56.0025 39.6471C56.1454 39.5144 56.336 39.4446 56.5741 39.4446C56.7647 39.4446 56.928 39.4865 57.0573 39.5633C57.1865 39.6402 57.2818 39.7519 57.3294 39.8916L56.996 40.0662C56.9416 39.9824 56.8871 39.9196 56.8259 39.8777C56.7647 39.8427 56.6898 39.8218 56.6081 39.8218C56.4925 39.8218 56.404 39.8497 56.336 39.9126C56.2679 39.9754 56.2339 40.0593 56.2339 40.1571C56.2339 40.3177 56.3836 40.4714 56.6762 40.6111C56.6966 40.6251 56.717 40.632 56.7306 40.639C56.9892 40.7648 57.1661 40.8835 57.2682 41.0022C57.3635 41.121 57.4111 41.2677 57.4111 41.4423C57.4111 41.7008 57.3294 41.9033 57.1797 42.05C57.0232 42.1967 56.8123 42.2735 56.5469 42.2735C56.3223 42.2735 56.1386 42.2246 55.9957 42.1129C55.8528 42.0081 55.7576 41.8544 55.7167 41.6588L55.7031 41.6658Z" fill="#565656"/>
<path d="M58.7175 39.8777V42.2037H58.2888V39.8777H57.5947V39.5074H59.4116V39.8777H58.7175Z" fill="#565656"/>
<path d="M61.4804 42.2037L61.181 41.5122H60.1398L59.8336 42.2037H59.3845L60.657 39.3957L61.9295 42.2037H61.4804ZM60.1262 39.2421L60.4733 38.7391H60.8475L61.1946 39.2421H60.9768L60.6638 38.9557L60.3508 39.2421H60.133H60.1262ZM60.2964 41.142H61.0313L60.7591 40.5273C60.7455 40.4924 60.725 40.4435 60.7114 40.3946C60.6978 40.3457 60.6774 40.2898 60.6638 40.227C60.6502 40.2828 60.6298 40.3387 60.6162 40.3946C60.6026 40.4435 60.5821 40.4924 60.5685 40.5343L60.2964 41.149V41.142Z" fill="#565656"/>
<path d="M62.1743 42.2037V39.3958L63.8414 41.0442C63.8891 41.0931 63.9367 41.142 63.9775 41.1909C64.0252 41.2468 64.0728 41.3027 64.1204 41.3725V39.5005H64.5151V42.3015L62.8139 40.6251C62.7663 40.5762 62.7255 40.5343 62.6846 40.4784C62.6438 40.4295 62.603 40.3737 62.5622 40.3178V42.1898H62.1675L62.1743 42.2037Z" fill="#565656"/>
<path d="M67.2371 40.1641C67.1146 40.0594 66.9853 39.9825 66.8561 39.9266C66.72 39.8708 66.5839 39.8498 66.4274 39.8498C66.1416 39.8498 65.9102 39.9406 65.7265 40.1292C65.5496 40.3178 65.4543 40.5623 65.4543 40.8626C65.4543 41.163 65.5428 41.3935 65.7197 41.5821C65.8966 41.7707 66.1143 41.8685 66.3865 41.8685C66.543 41.8685 66.6927 41.8405 66.8288 41.7847C66.9717 41.7288 67.1078 41.645 67.2371 41.5332V42.0291C67.1214 42.113 66.9922 42.1758 66.8629 42.2177C66.7268 42.2597 66.5771 42.2806 66.4206 42.2806C66.2232 42.2806 66.0327 42.2457 65.8626 42.1828C65.6925 42.113 65.5428 42.0152 65.4135 41.8825C65.2842 41.7567 65.1889 41.6031 65.1209 41.4284C65.0528 41.2538 65.0188 41.0652 65.0188 40.8696C65.0188 40.674 65.0528 40.4854 65.1209 40.3108C65.1889 40.1362 65.291 39.9825 65.4203 39.8568C65.5496 39.7241 65.6993 39.6193 65.8694 39.5564C66.0395 39.4866 66.2232 39.4517 66.4206 39.4517C66.5771 39.4517 66.72 39.4726 66.8629 39.5215C67.0058 39.5704 67.1419 39.6403 67.2711 39.7311L67.2507 40.1711L67.2371 40.1641Z" fill="#565656"/>
<path d="M67.7747 42.2037V39.5074H68.2034V42.2037H67.7747Z" fill="#565656"/>
<path d="M70.5509 42.2037L70.2515 41.5122H69.2104L68.9042 42.2037H68.4551L69.7276 39.3958L71 42.2037H70.5509ZM69.3669 41.142H70.1018L69.8296 40.5273C69.816 40.4924 69.8024 40.4435 69.782 40.3946C69.7616 40.3457 69.748 40.2898 69.7344 40.227C69.7208 40.2829 69.7003 40.3387 69.6867 40.3946C69.6663 40.4435 69.6527 40.4924 69.6391 40.5343L69.3669 41.149V41.142Z" fill="#565656"/>
</g>
<defs>
<clipPath id="clip0_1741_16035">
<rect width="71" height="43" fill="white"/>
</clipPath>
</defs>
</svg>
