<svg width="100" height="43" viewBox="0 0 100 43" fill="none" xmlns="http://www.w3.org/2000/svg">
<g clip-path="url(#clip0_1741_16085)">
<path d="M24.6832 10.0801C25.1823 12.0898 25.1268 13.1823 24.7862 14.7932C24.3426 16.5955 23.3603 17.9273 22.4256 18.7647L25.7447 30.1846H22.4573C21.3562 26.0058 19.9779 21.3964 18.8451 17.2255C19.5185 16.8587 21.3958 15.7901 21.7048 13.278C21.9979 10.9255 20.5324 9.08329 19.5343 8.40544C18.655 7.87113 17.3638 7.44846 16.1598 7.69568C13.823 7.95885 12.2387 9.7771 11.8743 11.7867C11.8188 12.0659 11.8188 12.2014 11.7872 12.5842C11.7872 12.5842 10.8762 15.168 10.5673 15.9815H11.2564L11.2406 22.6883H19.1541L20.065 25.942H7.96903V18.4377H6.29761C6.89964 16.6195 8.45223 12.5842 8.45223 12.5842C8.64235 11.1248 8.72948 8.34164 11.6683 6.05288C13.0467 4.88856 15.1934 4.11501 17.5064 4.3064C21.3087 4.77691 23.8436 7.39264 24.6832 10.0961V10.0801Z" fill="#565656"/>
<path d="M28.0577 7.09729C30.4658 12.4484 28.8973 17.4725 27.1071 19.849L29.84 30.0886H26.608L23.4395 19.0674C25.404 17.1774 26.6239 13.3336 25.6733 10.1596C24.8099 6.95375 22.1641 4.2503 18.4094 3.50864C14.3853 2.67927 10.5751 4.75271 8.95913 7.6316C7.92934 9.21061 7.75507 10.7178 7.5808 12.568C7.5808 12.568 5.55292 17.4725 4.86375 19.2588H7.01838L7.03422 26.795H20.3105L21.2373 30.1364H3.75475V22.2015L0 22.1856C0 22.1856 4.06369 12.8471 4.04785 12.568C4.28549 9.29036 5.75095 5.22322 8.84823 2.79889C10.4325 1.55482 12.5475 0.358606 15.3676 0.079489C18.4331 -0.215578 19.7402 0.342657 21.7839 1.03646C25.206 2.5118 27.5349 5.83728 28.0497 7.09729H28.0577Z" fill="#565656"/>
<path d="M13.5139 12.6799C13.5139 10.8617 14.9794 9.38635 16.7696 9.38635C18.5599 9.38635 20.0412 10.8617 20.0412 12.6799C20.0412 14.4982 18.5757 15.9336 16.7696 15.9336C14.9635 15.9336 13.5139 14.4743 13.5139 12.6799Z" fill="#565656"/>
<path d="M52.7329 35.7908V35.2884C52.8676 35.2565 52.9706 35.1848 53.0577 35.0811C53.1924 34.9216 53.2795 34.7382 53.3191 34.5468C53.3349 34.5308 53.335 34.5149 53.335 34.4909V34.459C53.3508 34.4032 53.3508 34.3713 53.3508 34.3235C53.3666 34.2916 53.3666 34.2358 53.3666 34.2039C53.3666 34.0444 53.3349 33.9247 53.2637 33.8211C53.1924 33.7174 53.0735 33.6616 52.8993 33.6616C52.828 33.6616 52.7805 33.6775 52.725 33.6775V33.0555H52.8121C52.9864 33.0555 53.1211 33.0874 53.2241 33.1432C53.3112 33.215 53.3825 33.2628 53.43 33.3506C53.4459 33.3665 53.4617 33.3824 53.4617 33.4223C53.4775 33.4383 53.4934 33.4542 53.4934 33.4781H53.5092L53.7865 32.1783H54.4915L53.7152 35.8307H53.026L53.0973 35.4878H53.0815C52.9943 35.6074 52.9072 35.6951 52.8042 35.751C52.7725 35.7669 52.7329 35.7829 52.7171 35.8068L52.7329 35.7908ZM52.7329 33.0555V33.6775C52.5745 33.7094 52.4715 33.7971 52.3685 33.9168C52.2497 34.0922 52.1626 34.2836 52.1309 34.4909C52.1151 34.5468 52.1151 34.5787 52.0992 34.6265V34.7621C52.0992 34.8977 52.1309 35.0253 52.1863 35.1449C52.2576 35.2485 52.3765 35.3203 52.527 35.3203C52.5983 35.3203 52.6616 35.3044 52.7329 35.2884V35.7908C52.6458 35.8227 52.5745 35.8626 52.4953 35.8786C52.4636 35.8786 52.4081 35.8945 52.3765 35.8945H52.2418C51.917 35.8945 51.6873 35.8068 51.5685 35.6154C51.4338 35.424 51.3625 35.1847 51.3625 34.9056C51.3625 34.8339 51.3625 34.7461 51.3784 34.6823C51.3784 34.5946 51.3942 34.5228 51.41 34.4431C51.4972 34.0125 51.6715 33.6775 51.9091 33.4542C52.1705 33.215 52.424 33.0874 52.7012 33.0555C52.7012 33.0555 52.7118 33.0555 52.7329 33.0555ZM46.879 35.7589V35.3442C46.9661 35.3123 47.0533 35.2725 47.1166 35.2087C47.2355 35.121 47.3226 35.0173 47.3384 34.8658L47.4097 34.5228C47.4097 34.5228 47.3226 34.5787 47.2355 34.6106C47.1642 34.6265 47.0612 34.6425 46.9107 34.6823H46.879V34.2118L47.2434 34.156H47.2988C47.2988 34.156 47.3147 34.156 47.3305 34.1401C47.386 34.1401 47.4177 34.1241 47.4652 34.0842C47.4969 34.0523 47.5365 34.0125 47.5523 33.9487V33.8609C47.5523 33.7732 47.5206 33.7254 47.4652 33.6855C47.4097 33.6695 47.3464 33.6297 47.2751 33.6297H47.1404C47.0374 33.6297 46.9503 33.6456 46.879 33.6855V33.1113C46.9661 33.0794 47.0691 33.0794 47.1562 33.0555H47.5206C47.5761 33.0714 47.6395 33.0714 47.6949 33.0874C47.8533 33.1033 47.988 33.1751 48.1068 33.2628C48.2256 33.3506 48.2811 33.4861 48.2811 33.6616V33.7493C48.2811 33.7493 48.2652 33.8051 48.2652 33.837L47.9563 35.3123C47.9405 35.3682 47.9405 35.4001 47.9405 35.4479C47.9246 35.4798 47.9246 35.5197 47.9246 35.5356C47.9246 35.6074 47.9405 35.6553 47.9563 35.6712C47.9722 35.7031 47.988 35.727 48.0276 35.727L48.0118 35.8307H47.2355V35.6951V35.5197L47.18 35.5755C47.18 35.5755 47.1246 35.6074 47.1087 35.6313C47.0374 35.6872 46.9741 35.735 46.8869 35.7669L46.879 35.7589ZM49.2 35.8307H48.495L49.2713 32.1783H49.9763L49.2 35.8307ZM46.879 33.1113V33.6855C46.879 33.6855 46.8473 33.7014 46.8235 33.7174C46.7523 33.7732 46.7047 33.8211 46.6651 33.8928C46.6651 33.9088 46.6493 33.9247 46.6493 33.9487C46.6334 33.9806 46.6334 34.0045 46.6334 34.0204L45.9443 34.0045C46.0472 33.6376 46.2215 33.3984 46.4433 33.2788C46.578 33.207 46.7206 33.1592 46.8711 33.1193L46.879 33.1113ZM46.879 34.2039V34.6744C46.7602 34.7063 46.6414 34.7461 46.5542 34.778C46.4512 34.8339 46.3799 34.9375 46.3483 35.0731V35.105C46.3483 35.105 46.3324 35.121 46.3324 35.1369V35.1688C46.3324 35.2406 46.3483 35.2884 46.4037 35.3283C46.4354 35.3602 46.4908 35.3841 46.5384 35.4001H46.673C46.673 35.4001 46.7285 35.4001 46.7443 35.3841C46.7998 35.3841 46.8315 35.3682 46.879 35.3522V35.7669C46.879 35.7669 46.8077 35.7988 46.7602 35.8227C46.6414 35.8945 46.4671 35.9105 46.277 35.9105C46.1027 35.9105 45.9522 35.8786 45.8096 35.7749C45.6749 35.6872 45.6036 35.5356 45.6036 35.3283V35.2406C45.6036 35.2406 45.6195 35.1688 45.6195 35.1369C45.6749 34.8737 45.7938 34.6664 45.9601 34.5308C46.1502 34.3952 46.3562 34.3075 46.578 34.2677L46.8711 34.2118L46.879 34.2039ZM40.9775 35.8865V35.2964C41.0964 35.2645 41.2152 35.2087 41.2865 35.121C41.4053 35.0013 41.4924 34.8578 41.5479 34.7222C41.5637 34.6903 41.5796 34.6345 41.6033 34.6026C41.6271 34.5707 41.6192 34.5149 41.635 34.483C41.635 34.483 41.635 34.4271 41.6509 34.3952V34.1879C41.6509 34.0523 41.6192 33.9247 41.5479 33.8211C41.4766 33.7174 41.3578 33.6616 41.1518 33.6616H40.9775V33.0714C41.0488 33.0714 41.1122 33.0555 41.1835 33.0555H41.2706C41.5796 33.0555 41.8568 33.1432 42.0628 33.3187C42.2846 33.4781 42.3876 33.7493 42.3876 34.1002V34.2916C42.3876 34.3474 42.3717 34.4112 42.3559 34.483C42.2529 34.9535 42.0628 35.2964 41.7538 35.5436C41.5162 35.7191 41.2548 35.8387 40.9775 35.8865ZM45.3818 33.9646L45.0016 35.8387H44.2808L44.6452 34.1959C44.6452 34.1959 44.6452 34.1401 44.661 34.1241V33.9885C44.661 33.9008 44.6452 33.829 44.5897 33.7652C44.5343 33.6935 44.4313 33.6775 44.2808 33.6775C44.1303 33.6775 43.9877 33.7333 43.853 33.837C43.7342 33.9407 43.6471 34.1002 43.5916 34.3075L43.2668 35.8467H42.5618L43.1322 33.1432H43.8213L43.7342 33.5419H43.75C43.75 33.5419 43.7817 33.4861 43.8213 33.4542C43.8372 33.4223 43.8768 33.3824 43.9085 33.3506C43.9956 33.2788 44.0986 33.215 44.2016 33.1592C44.3204 33.1033 44.4788 33.0714 44.6452 33.0714C44.8828 33.0714 45.0571 33.1273 45.2155 33.2469C45.3502 33.3505 45.4215 33.526 45.4215 33.7493C45.4215 33.7812 45.4215 33.8211 45.4056 33.853C45.4056 33.9088 45.4056 33.9407 45.3898 33.9726L45.3818 33.9646ZM40.9775 33.0794V33.6695C40.8429 33.7014 40.7399 33.7573 40.6528 33.845C40.5339 33.9646 40.4468 34.1082 40.3914 34.2437C40.3755 34.2995 40.3755 34.3314 40.3597 34.3633C40.3438 34.4192 40.3438 34.4511 40.328 34.483C40.328 34.5388 40.3121 34.5866 40.3121 34.6425C40.2963 34.6983 40.2963 34.7461 40.2963 34.802C40.2963 34.9216 40.328 35.0412 40.3993 35.1688C40.4864 35.2725 40.6052 35.3283 40.8112 35.3283C40.8666 35.3283 40.93 35.3283 40.9855 35.3123V35.9025C40.9142 35.9025 40.8508 35.9184 40.7795 35.9184H40.6765C40.3676 35.9184 40.1062 35.8307 39.8844 35.6792C39.6784 35.5037 39.5596 35.2485 39.5596 34.8977C39.5596 34.8259 39.5754 34.778 39.5754 34.7063C39.5754 34.6345 39.5913 34.5707 39.6071 34.4989C39.7101 34.0284 39.9002 33.6855 40.2092 33.4622C40.4468 33.2708 40.7082 33.1512 40.9855 33.0954L40.9775 33.0794ZM33.6423 35.7669V35.3522C33.7294 35.3203 33.8166 35.2804 33.9037 35.2166C34.0225 35.1289 34.0938 35.0253 34.1255 34.8737L34.1968 34.5308C34.1968 34.5308 34.0938 34.5866 34.0225 34.6185C33.9512 34.6345 33.8324 34.6504 33.6819 34.6903H33.6502V34.2198L34.0305 34.164H34.0621C34.0621 34.164 34.0938 34.164 34.0938 34.148C34.1493 34.148 34.1968 34.1321 34.2285 34.0922C34.2839 34.0603 34.2998 34.0204 34.3156 33.9566C34.3156 33.9407 34.3156 33.9247 34.3315 33.9247V33.8689C34.3315 33.7812 34.2998 33.7333 34.2443 33.6935C34.173 33.6775 34.1255 33.6376 34.0542 33.6376H33.9196C33.8007 33.6376 33.7136 33.6536 33.6423 33.6935V33.1193C33.7453 33.0874 33.8324 33.0874 33.9354 33.0635H34.276C34.3473 33.0794 34.3948 33.0794 34.4661 33.0954C34.6008 33.1113 34.7434 33.1831 34.8622 33.2708C34.981 33.3585 35.0523 33.4941 35.0523 33.6695C35.0523 33.7014 35.0523 33.7254 35.0365 33.7573V33.845L34.7275 35.3203C34.7117 35.3761 34.7117 35.408 34.6959 35.4559V35.5436C34.6959 35.6154 34.6959 35.6632 34.7275 35.6792C34.7434 35.7111 34.7592 35.735 34.783 35.735L34.7671 35.8387H34.0067C34.0067 35.8387 33.9908 35.8068 33.9908 35.7669V35.6951V35.6074C33.9908 35.6074 34.0067 35.5516 34.0067 35.5197C33.9908 35.5356 33.9512 35.5516 33.9354 35.5755C33.9196 35.5915 33.9037 35.6074 33.8641 35.6313C33.8087 35.6872 33.7294 35.735 33.6423 35.7669ZM37.0485 34.8498H37.7694C37.7535 34.9056 37.7139 34.9854 37.6822 35.0731C37.6268 35.1608 37.5793 35.2485 37.508 35.3363C37.405 35.4718 37.2465 35.6154 37.0406 35.735C36.8505 35.8546 36.6128 35.9105 36.3039 35.9105C35.9078 35.9105 35.6464 35.8227 35.5118 35.6154C35.3771 35.424 35.3058 35.2007 35.3058 34.9535C35.3058 34.8817 35.3058 34.8179 35.3216 34.7621C35.3216 34.6903 35.3375 34.6265 35.3375 34.5707C35.4405 34.1241 35.6147 33.7732 35.8682 33.4781C36.1455 33.199 36.4861 33.0635 36.9535 33.0635H37.1119C37.1673 33.0794 37.2149 33.0794 37.2703 33.0954C37.4446 33.1273 37.5951 33.215 37.7377 33.3346C37.8803 33.4542 37.9436 33.6456 37.9436 33.9247V34.0125C37.9436 34.0125 37.9436 34.0683 37.9278 34.1002H37.2228V34.0125C37.2228 34.0125 37.2069 33.9566 37.2069 33.9407C37.1911 33.8689 37.1515 33.8051 37.1198 33.7493C37.0644 33.6775 36.9851 33.6456 36.8584 33.6616H36.8426C36.6524 33.6616 36.5178 33.7174 36.4148 33.837C36.296 33.9566 36.2247 34.0763 36.1772 34.2358C36.1613 34.2677 36.1455 34.3075 36.1455 34.3394C36.1296 34.3713 36.1296 34.4112 36.1138 34.4431V34.4989C36.1138 34.4989 36.0979 34.5866 36.0821 34.6345C36.0821 34.6664 36.0663 34.7222 36.0663 34.7701V34.8578C36.0663 34.9774 36.0979 35.0811 36.1534 35.1847C36.2088 35.2725 36.3277 35.3203 36.4782 35.3203C36.597 35.3203 36.6841 35.2884 36.7713 35.2326C36.8426 35.1768 36.9059 35.113 36.9614 35.0572C36.9931 35.0013 37.0168 34.9694 37.0327 34.9375C37.0485 34.9056 37.0644 34.8658 37.0644 34.8339L37.0485 34.8498ZM39.3536 33.1352L38.7833 35.8387H38.0783L38.6486 33.1352H39.3536ZM39.4249 32.8083H38.7199L38.8546 32.1464H39.5596L39.4249 32.8083ZM33.6423 33.1193V33.6935C33.6423 33.6935 33.6106 33.7094 33.6106 33.7254C33.5235 33.7812 33.4918 33.829 33.4522 33.9008C33.4363 33.9168 33.4363 33.9327 33.4205 33.9566C33.4205 33.9885 33.4205 34.0125 33.4047 34.0284L32.7155 34.0125C32.8343 33.6456 33.0086 33.4064 33.2304 33.2868C33.3651 33.215 33.5076 33.1671 33.6423 33.1273V33.1193ZM33.6423 34.2118V34.6823C33.5235 34.7142 33.4205 34.7541 33.3175 34.786C33.2146 34.8418 33.1433 34.9455 33.1116 35.0811V35.1847C33.1116 35.2565 33.1274 35.3044 33.167 35.3442C33.2225 35.3761 33.2542 35.4001 33.3017 35.416H33.4363C33.4363 35.416 33.4918 35.416 33.5235 35.4001C33.5552 35.4001 33.6106 35.3841 33.6423 35.3682V35.7829C33.6423 35.7829 33.571 35.8148 33.5393 35.8387C33.4047 35.9105 33.2462 35.9264 33.0561 35.9264C32.866 35.9264 32.7155 35.8945 32.5729 35.7908C32.5175 35.7589 32.4858 35.7191 32.4541 35.6712V34.9615C32.5254 34.786 32.6125 34.6504 32.7472 34.5468C32.9215 34.4112 33.1274 34.3235 33.3651 34.2836L33.6423 34.2278V34.2118ZM32.4541 32.5451V32.1783H32.5254L32.4541 32.5451ZM32.4541 32.1783V32.5451L31.7491 35.8387H30.9886L30.0618 33.2389H30.046L29.4915 35.8387H28.7865L29.5628 32.1862H30.3708L31.2659 34.7302H31.2817L31.8125 32.1862H32.4462L32.4541 32.1783ZM32.4541 34.9296C32.4382 34.9854 32.3986 35.0492 32.3986 35.121C32.3828 35.1529 32.3828 35.1927 32.3828 35.2246C32.3828 35.2565 32.367 35.2964 32.367 35.3123C32.367 35.4479 32.3986 35.5516 32.4541 35.6393V34.9296ZM25.7763 35.8865V35.2964C25.911 35.2645 26.014 35.2087 26.1011 35.121C26.2041 35.0013 26.2912 34.8578 26.3625 34.7222C26.3784 34.6903 26.3784 34.6345 26.3942 34.6026C26.41 34.5707 26.41 34.5149 26.4259 34.483C26.4259 34.483 26.4259 34.4271 26.4417 34.3952V34.2916C26.4417 34.2916 26.4576 34.2597 26.4576 34.2358V34.1799C26.4576 34.0444 26.4021 33.9168 26.3388 33.8131C26.2754 33.7094 26.1486 33.6536 25.9427 33.6536H25.7684V33.0635C25.8397 33.0635 25.9031 33.0475 25.9744 33.0475H26.0615C26.3704 33.0475 26.6477 33.1352 26.8536 33.3107C27.0754 33.4702 27.1784 33.7413 27.1784 34.0922V34.2836C27.1784 34.3394 27.1626 34.4032 27.1467 34.475C27.0438 34.9455 26.8536 35.2884 26.5447 35.5356C26.3071 35.7111 26.0457 35.8307 25.7684 35.8786L25.7763 35.8865ZM25.7763 33.0794V33.6695C25.6417 33.7014 25.5387 33.7573 25.4516 33.845C25.3327 33.9646 25.2456 34.1082 25.1901 34.2437C25.1743 34.2995 25.1743 34.3314 25.1585 34.3633C25.1426 34.4192 25.1426 34.4511 25.1268 34.483C25.1268 34.5388 25.1109 34.5866 25.1109 34.6425C25.1109 34.6983 25.0951 34.7461 25.0951 34.802C25.0951 34.9216 25.1268 35.0412 25.2139 35.1688C25.2852 35.2725 25.404 35.3283 25.61 35.3283C25.6654 35.3283 25.7288 35.3283 25.7843 35.3123V35.9025C25.713 35.9025 25.6496 35.9184 25.5783 35.9184H25.4753C25.1664 35.9184 24.905 35.8307 24.6832 35.6792C24.4772 35.5037 24.3584 35.2485 24.3584 34.8977C24.3584 34.8259 24.3742 34.778 24.3742 34.7063C24.3901 34.6345 24.3901 34.5707 24.4059 34.4989C24.5089 34.0284 24.699 33.6855 25.008 33.4622C25.2456 33.2708 25.507 33.1512 25.7843 33.0954L25.7763 33.0794ZM21.2136 35.8307V35.6074L21.9503 32.1783H22.6553L22.378 33.4781C22.4493 33.3745 22.5682 33.2708 22.7187 33.1831C22.8692 33.0954 23.0593 33.0635 23.2494 33.0635C23.4712 33.0635 23.6613 33.1193 23.8039 33.2389C23.9386 33.3426 24.0257 33.518 24.0257 33.7413C24.0257 33.7732 24.0099 33.8131 24.0099 33.845C24.0099 33.9008 23.994 33.9327 23.994 33.9646L23.5979 35.8387H22.8929L23.2336 34.1959C23.2336 34.1959 23.2494 34.1401 23.2494 34.1241C23.2652 34.0922 23.2652 34.0523 23.2652 34.0204V33.9885C23.2652 33.9008 23.2336 33.829 23.1781 33.7652C23.1464 33.6935 23.0434 33.6775 22.885 33.6775C22.7266 33.6775 22.5919 33.7333 22.4573 33.837C22.3384 33.9407 22.2513 34.1002 22.1959 34.3075L21.8711 35.8467H21.1978L21.2136 35.8307ZM21.2136 32.4016L21.269 32.1783H21.2136V32.4016ZM21.2136 32.1783V32.4016L20.4927 35.8307H19.7877L20.564 32.1783H21.2215H21.2136ZM21.2136 35.6074L21.1819 35.8307H21.2136V35.6074ZM18.354 35.8865V35.3123C18.4253 35.2964 18.4728 35.2804 18.5282 35.2406C18.5995 35.1847 18.6629 35.121 18.7025 35.0492V35.0332H19.4234C19.3204 35.2565 19.1857 35.432 19.0273 35.5675C18.8689 35.6872 18.7025 35.7749 18.5282 35.8307C18.4728 35.8467 18.4253 35.8626 18.354 35.8865ZM18.354 34.6744V34.2039H18.9085V34.1002C18.9085 33.9407 18.8768 33.8211 18.7896 33.7573C18.7183 33.6855 18.6154 33.6536 18.5282 33.6536H18.354V33.0794C18.4411 33.0635 18.5282 33.0635 18.6154 33.0635H18.7342C18.7342 33.0635 18.8055 33.0635 18.8372 33.0794C19.0273 33.0954 19.2174 33.1831 19.3679 33.3426C19.5422 33.4781 19.6293 33.7254 19.6293 34.0523C19.6293 34.1401 19.6135 34.2118 19.6135 34.2916C19.5976 34.3633 19.5976 34.467 19.558 34.5547L19.5422 34.6744H18.354ZM18.354 33.0794V33.6536C18.251 33.6695 18.148 33.7254 18.0609 33.7892C17.9579 33.8928 17.8708 34.0284 17.7995 34.2039H18.354V34.6744H17.6806V34.9535C17.6965 35.0572 17.7361 35.1449 17.7995 35.2326C17.8708 35.3044 17.9896 35.3522 18.1797 35.3522C18.1955 35.3522 18.2114 35.3522 18.2351 35.3363H18.2906C18.2906 35.3363 18.346 35.3203 18.3619 35.3203V35.8945H18.2906C18.2193 35.9105 18.1322 35.9105 18.0688 35.9105C17.7599 35.9105 17.4826 35.8387 17.2925 35.7031C17.0865 35.5436 16.9836 35.3044 16.9836 34.9375C16.9836 34.8498 16.9836 34.778 16.9994 34.6983C16.9994 34.6265 17.0152 34.5228 17.0311 34.4351C17.0469 34.3633 17.0865 34.2756 17.1182 34.156C17.1499 34.0364 17.2054 33.9168 17.2925 33.7892C17.3955 33.6137 17.5697 33.4462 17.7757 33.2868C17.9341 33.1671 18.1401 33.0954 18.3619 33.0794H18.354ZM9.45821 35.8865V35.2964C9.57703 35.2645 9.69585 35.2087 9.76715 35.121C9.88597 35.0013 9.9731 34.8578 10.0286 34.7222C10.0444 34.6903 10.0602 34.6345 10.084 34.6026C10.1078 34.5707 10.0998 34.5149 10.1157 34.483C10.1157 34.483 10.1157 34.4271 10.1315 34.3952V34.1879C10.1315 34.0523 10.0998 33.9247 10.0286 33.8211C9.95726 33.7174 9.8226 33.6616 9.63248 33.6616H9.45821V33.0714C9.5295 33.0714 9.59288 33.0555 9.66417 33.0555H9.7513C10.0602 33.0555 10.3375 33.1432 10.5434 33.3187C10.7652 33.4781 10.8682 33.7493 10.8682 34.1002V34.2916C10.8682 34.3474 10.8524 34.4112 10.8365 34.483C10.7336 34.9535 10.5434 35.2964 10.2345 35.5436C9.99687 35.7191 9.73546 35.8387 9.45821 35.8865ZM13.8625 33.9646L13.4664 35.8387H12.7614L13.1258 34.1959C13.1258 34.1959 13.1258 34.1401 13.1417 34.1241V33.9885C13.1417 33.9008 13.1258 33.829 13.0704 33.7652C13.0149 33.6935 12.912 33.6775 12.7614 33.6775C12.6109 33.6775 12.4683 33.7333 12.3337 33.837C12.2149 33.9407 12.1277 34.1002 12.0723 34.3075L11.7475 35.8467H11.0425L11.6128 33.1432H12.302L12.2149 33.5419H12.2307C12.2307 33.5419 12.2624 33.4861 12.302 33.4542C12.3178 33.4223 12.3575 33.3824 12.3891 33.3506C12.4763 33.2788 12.5634 33.215 12.6822 33.1592C12.8011 33.1033 12.9595 33.0714 13.1258 33.0714C13.3635 33.0714 13.5377 33.1273 13.6962 33.2469C13.8308 33.3505 13.9021 33.526 13.9021 33.7493C13.9021 33.7812 13.9021 33.8211 13.8863 33.853C13.8863 33.9088 13.8863 33.9407 13.8704 33.9726L13.8625 33.9646ZM16.7538 33.9487H16.0647V33.9327C16.0647 33.845 16.033 33.7732 15.9934 33.7094C15.9379 33.6376 15.835 33.6057 15.6528 33.6057C15.4943 33.6057 15.3755 33.6217 15.3121 33.6775C15.2408 33.7094 15.2092 33.7652 15.1933 33.8131C15.1775 33.8131 15.1775 33.829 15.1775 33.845C15.1775 33.845 15.1775 33.8609 15.1616 33.8609V33.8769V33.8928C15.1616 33.9646 15.2171 34.0125 15.2963 34.0523C15.3755 34.0922 15.4864 34.1241 15.6052 34.1401C15.6607 34.156 15.7082 34.156 15.7637 34.172C15.8191 34.172 15.8508 34.1879 15.8983 34.2039C16.0884 34.2358 16.2627 34.3075 16.4132 34.3952C16.5637 34.483 16.635 34.6185 16.635 34.8259V34.8977C16.635 34.8977 16.6192 34.9535 16.6192 34.9854C16.5637 35.2246 16.4607 35.416 16.3102 35.5596C16.1518 35.6792 15.9855 35.7669 15.8112 35.8387C15.7082 35.8546 15.6052 35.8945 15.5023 35.8945C15.4151 35.9105 15.3121 35.9105 15.2408 35.9105H15.225C14.9478 35.9105 14.6943 35.8546 14.4645 35.751C14.2427 35.6473 14.1239 35.4559 14.1239 35.1608V35.0731C14.1239 35.0731 14.1398 35.0013 14.1398 34.9694H14.8606V35.0731C14.8606 35.1608 14.8923 35.2326 14.9636 35.2964C15.0507 35.3522 15.1854 35.3682 15.3755 35.3682C15.4943 35.3682 15.5973 35.3522 15.6686 35.3123C15.7557 35.2804 15.8033 35.2406 15.827 35.1927C15.8429 35.1768 15.8587 35.1608 15.8587 35.1369C15.8746 35.121 15.8746 35.105 15.8746 35.0811L15.8904 35.0651V35.0492C15.8904 34.9774 15.835 34.9296 15.7557 34.8897C15.6686 34.8578 15.5498 34.8179 15.431 34.802C15.3755 34.786 15.3438 34.786 15.2963 34.7701C15.2646 34.7701 15.2092 34.7541 15.1616 34.7382C14.9874 34.7063 14.821 34.6345 14.6626 34.5468C14.5042 34.459 14.4408 34.3235 14.4408 34.1161V34.0444C14.4408 34.0444 14.4566 33.9885 14.4566 33.9566C14.4566 33.9247 14.4725 33.8849 14.4883 33.853C14.5042 33.8211 14.5042 33.7652 14.52 33.7333C14.6071 33.5579 14.7418 33.4064 14.9319 33.2628C15.122 33.1193 15.3755 33.0555 15.7241 33.0555H15.8825C16.1043 33.0714 16.3102 33.1273 16.4845 33.215C16.6746 33.3187 16.7618 33.51 16.7618 33.7892V33.9487H16.7538ZM7.94522 33.3745H7.18476C7.18476 33.3745 7.18476 33.3027 7.16892 33.2708C7.16892 33.215 7.16892 33.1831 7.15308 33.1352C7.12139 33.0316 7.06594 32.9438 6.96296 32.8721C6.87583 32.7843 6.72532 32.7524 6.51936 32.7524C6.44807 32.7524 6.3847 32.7524 6.29756 32.7843C6.21043 32.8003 6.12329 32.8402 6.03616 32.888C5.90149 32.9598 5.77475 33.0954 5.64009 33.2708C5.52127 33.4622 5.41829 33.7014 5.34699 34.0364C5.33115 34.1082 5.31531 34.172 5.31531 34.2597C5.29947 34.3314 5.29947 34.3952 5.29947 34.467C5.29947 34.6903 5.35492 34.8817 5.45789 35.0412C5.57672 35.2007 5.75099 35.2804 5.98863 35.2804C6.19459 35.2804 6.3847 35.2087 6.55897 35.105C6.7174 34.9854 6.85206 34.8099 6.9392 34.5866H7.69966C7.54123 34.9854 7.30359 35.3123 6.99465 35.5596C6.68571 35.8227 6.28964 35.9424 5.83812 35.9424C5.44205 35.9424 5.11727 35.8227 4.87171 35.5994C4.63407 35.3921 4.50732 35.0412 4.50732 34.6106C4.50732 34.5228 4.50732 34.4192 4.52317 34.3314C4.53901 34.2278 4.55485 34.1241 4.57862 34.0204C4.71328 33.3824 4.97469 32.896 5.37076 32.585C5.76683 32.258 6.19459 32.0985 6.66195 32.0985C7.07386 32.0985 7.3828 32.1862 7.58876 32.3776C7.77887 32.569 7.89769 32.7764 7.95314 32.9997C7.95314 33.0316 7.95314 33.0714 7.96898 33.1193V33.3107C7.96898 33.3107 7.95314 33.3665 7.95314 33.3825L7.94522 33.3745ZM9.45821 33.0794V33.6695C9.32355 33.7014 9.22057 33.7573 9.13343 33.845C9.01461 33.9646 8.92748 34.1082 8.87203 34.2437C8.85618 34.2995 8.85618 34.3314 8.84034 34.3633C8.8245 34.4192 8.8245 34.4511 8.80865 34.483C8.80865 34.5388 8.79281 34.5866 8.79281 34.6425C8.77697 34.6983 8.77697 34.7461 8.77697 34.802C8.77697 34.9216 8.80865 35.0412 8.87995 35.1688C8.95124 35.2725 9.0859 35.3283 9.29186 35.3283C9.34731 35.3283 9.41068 35.3283 9.46613 35.3123V35.9025C9.39484 35.9025 9.33147 35.9184 9.26018 35.9184H9.1572C8.84826 35.9184 8.58686 35.8307 8.36506 35.6792C8.1591 35.5037 8.04028 35.2485 8.04028 34.8977C8.04028 34.8259 8.04028 34.778 8.05612 34.7063C8.05612 34.6345 8.07196 34.5707 8.08781 34.4989C8.19078 34.0284 8.3809 33.6855 8.68983 33.4622C8.92748 33.2708 9.18888 33.1512 9.46613 33.0954L9.45821 33.0794Z" fill="#565656"/>
<path d="M98.5662 35.8785V35.2883C98.7008 35.2564 98.8038 35.2006 98.8909 35.1129C99.0098 34.9933 99.0969 34.8497 99.1523 34.7142C99.1682 34.6823 99.184 34.6264 99.184 34.5945C99.1999 34.5626 99.2157 34.5068 99.2157 34.4749C99.2157 34.4749 99.2316 34.4191 99.2316 34.3872V34.2835C99.2316 34.2835 99.2474 34.2516 99.2474 34.2277V34.1719C99.2474 34.0363 99.2157 33.9087 99.1444 33.805C99.0731 33.7014 98.9385 33.6455 98.7325 33.6455H98.5582V33.0554C98.6295 33.0554 98.6929 33.0395 98.7642 33.0395H98.8672C99.1761 33.0395 99.4375 33.1272 99.6593 33.3026C99.8653 33.4621 99.9841 33.7333 99.9841 34.0842C99.9841 34.14 99.9682 34.2038 99.9682 34.2755C99.9682 34.3314 99.9524 34.3952 99.9366 34.4669C99.8494 34.9375 99.6435 35.2804 99.3345 35.5276C99.0969 35.703 98.8355 35.8227 98.5582 35.8705L98.5662 35.8785ZM98.5662 33.0714V33.6615C98.4315 33.6934 98.3285 33.7492 98.2414 33.8369C98.1384 33.9566 98.0513 34.1001 97.98 34.2357C97.98 34.2915 97.9641 34.3234 97.9483 34.3553C97.9483 34.4111 97.9324 34.443 97.9324 34.4749C97.9166 34.5307 97.9166 34.5786 97.9008 34.6344V34.7939C97.9008 34.9135 97.9324 35.0331 98.0037 35.1607C98.075 35.2644 98.2097 35.3202 98.3998 35.3202C98.4711 35.3202 98.5186 35.3202 98.5741 35.3043V35.8944C98.5028 35.8944 98.4394 35.9104 98.3681 35.9104H98.281C97.972 35.9104 97.6948 35.8227 97.4888 35.6711C97.3146 35.5356 97.2116 35.3601 97.1799 35.1129V34.6663C97.1799 34.5945 97.1957 34.5467 97.1957 34.4909C97.2987 34.0204 97.5047 33.6774 97.7978 33.4541C98.0354 33.2627 98.2968 33.1431 98.5741 33.0873L98.5662 33.0714ZM97.172 33.2069L97.1878 33.1192H97.172V33.2069ZM97.172 33.1192V33.2069L97.069 33.6216H96.6413L96.3323 35.0969C96.3323 35.0969 96.3165 35.1528 96.3165 35.1687V35.2245C96.3165 35.2245 96.3323 35.2963 96.3719 35.3123C96.4115 35.3282 96.4749 35.3282 96.5779 35.3282H96.6492C96.6492 35.3282 96.7046 35.3282 96.7363 35.3123L96.6175 35.8466C96.562 35.8625 96.5145 35.8625 96.4591 35.8625H96.1818C95.9442 35.8625 95.7699 35.8306 95.6828 35.7589C95.5956 35.6871 95.5639 35.5994 95.5639 35.4797V35.3761C95.5639 35.3761 95.5798 35.3043 95.5798 35.2724L95.9442 33.6296H95.5639L95.6828 33.1272H96.0471L96.2056 32.3855H96.9106L96.7522 33.1272H97.1799L97.172 33.1192ZM97.172 34.6424C97.172 34.6424 97.1561 34.6583 97.1561 34.6743V34.8657C97.1561 34.9375 97.1561 35.0252 97.172 35.089V34.6424ZM90.8745 35.8705V35.2963C90.9457 35.2804 90.9933 35.2644 91.0487 35.2245C91.12 35.1687 91.1834 35.1049 91.223 35.0331V35.0172H91.9438C91.8409 35.2405 91.7062 35.4159 91.5478 35.5515C91.3894 35.6711 91.223 35.7589 91.0487 35.8147C90.9933 35.8306 90.9457 35.8466 90.8745 35.8705ZM90.8745 34.6583V34.1878H91.429V34.0842C91.429 33.9247 91.3973 33.805 91.3101 33.7412C91.2388 33.6695 91.1359 33.6376 91.0487 33.6376H90.8745V33.0634C90.9616 33.0474 91.0487 33.0474 91.1359 33.0474H91.2547C91.2547 33.0474 91.326 33.0474 91.3577 33.0634C91.5478 33.0793 91.7379 33.1671 91.8884 33.3265C92.0627 33.4621 92.1498 33.7093 92.1498 34.0363C92.1498 34.124 92.134 34.1958 92.134 34.2755C92.1181 34.3473 92.1181 34.451 92.0785 34.5387L92.0627 34.6583H90.8745ZM95.1045 33.9486L94.7084 35.8226H94.0034L94.344 34.1798C94.344 34.1798 94.3599 34.124 94.3757 34.1081V33.9725C94.3757 33.8848 94.3599 33.813 94.3044 33.7492C94.249 33.6774 94.146 33.6615 93.9955 33.6615C93.845 33.6615 93.7024 33.7173 93.5677 33.821C93.4489 33.9247 93.3618 34.0841 93.3063 34.2915L92.9816 35.8306H92.2766L92.8469 33.1272H93.5361L93.4489 33.5259C93.4489 33.5259 93.5044 33.4701 93.5361 33.4382C93.5519 33.4063 93.5915 33.3664 93.6232 33.3345C93.7103 33.2627 93.7975 33.199 93.9163 33.1431C94.0351 33.0873 94.1935 33.0554 94.3599 33.0554C94.5817 33.0554 94.7718 33.1112 94.9144 33.2308C95.0728 33.3345 95.1362 33.51 95.1362 33.7333C95.1362 33.7652 95.1362 33.805 95.1203 33.8369C95.1203 33.8928 95.1203 33.9247 95.1045 33.9566V33.9486ZM90.8745 33.0634V33.6376C90.7715 33.6535 90.6685 33.7093 90.5814 33.7731C90.4784 33.8768 90.3913 34.0124 90.32 34.1878H90.8745V34.6583H90.2011V34.9375C90.217 35.0411 90.2566 35.1288 90.32 35.2166C90.3913 35.2883 90.5101 35.3362 90.7002 35.3362C90.716 35.3362 90.7319 35.3362 90.7556 35.3202H90.8111C90.8111 35.3202 90.8665 35.3043 90.8824 35.3043V35.8785H90.8111C90.7398 35.8944 90.6527 35.8944 90.5893 35.8944C90.2803 35.8944 90.0031 35.8227 89.813 35.6871C89.607 35.5276 89.5041 35.2883 89.5041 34.9215C89.5041 34.8338 89.5041 34.762 89.5199 34.6823C89.5199 34.6105 89.5357 34.5068 89.5516 34.4191C89.5674 34.3473 89.607 34.2596 89.6387 34.14C89.6704 34.0204 89.7258 33.9007 89.813 33.7731C89.916 33.5977 90.0902 33.4302 90.2962 33.2707C90.4546 33.1511 90.6606 33.0793 90.8824 33.0634H90.8745ZM83.666 35.8147V35.4478L84.1492 33.1112H84.87L84.2838 35.8147H83.666ZM83.666 33.2468L83.7373 33.1112H83.666V33.2468ZM84.9255 32.7763H84.2205L84.3551 32.1144H85.076L84.9175 32.7763H84.9255ZM89.2268 33.9406L88.8307 35.8147H88.1099L88.4743 34.1719C88.4743 34.1719 88.4743 34.1001 88.4901 34.0682V33.9805C88.4901 33.8609 88.4584 33.7731 88.403 33.7173C88.3475 33.6615 88.2841 33.6455 88.197 33.6455C88.0227 33.6455 87.8881 33.7014 87.7851 33.805C87.698 33.9087 87.6267 34.0283 87.595 34.2038L87.2544 35.8147H86.5494L86.89 34.1878C86.89 34.1878 86.9058 34.132 86.9058 34.1001C86.9058 34.0841 86.9217 34.0443 86.9217 34.0124V33.9247C86.9217 33.8529 86.9058 33.7891 86.8504 33.7333C86.7949 33.6615 86.7157 33.6455 86.5731 33.6455C86.3989 33.6455 86.28 33.6774 86.1929 33.7811C86.1058 33.8848 86.0582 34.0204 86.0186 34.1639L85.678 35.8067H84.9572L85.5433 33.1033H86.2167L86.1295 33.502H86.1454C86.1454 33.502 86.1771 33.4462 86.2167 33.4143C86.2325 33.3983 86.2484 33.3584 86.288 33.3265C86.3592 33.2548 86.4622 33.191 86.581 33.1192C86.6999 33.0634 86.8425 33.0315 87.0088 33.0315C87.1989 33.0315 87.3494 33.0634 87.4366 33.1352C87.5237 33.2069 87.6108 33.3106 87.6584 33.4621C87.6742 33.4302 87.7138 33.4063 87.7455 33.3744C87.7772 33.3425 87.8168 33.3026 87.8485 33.2707C87.9198 33.2149 88.0069 33.1511 88.1099 33.0953C88.2129 33.0395 88.3317 33.0235 88.4743 33.0235C88.7119 33.0235 88.8862 33.0793 89.0446 33.199C89.1793 33.3026 89.2506 33.4781 89.2506 33.7014V33.805C89.2347 33.8609 89.2347 33.8928 89.2347 33.9247L89.2268 33.9406ZM83.666 33.1112V33.2468L82.2005 35.8147H81.44L81.044 33.1112H81.8361L81.9708 35.1049H81.9866L82.9689 33.1112H83.658H83.666ZM83.666 35.4478L83.5788 35.8147H83.666V35.4478ZM77.7487 35.8625V35.2724C77.8833 35.2405 77.9863 35.1847 78.0734 35.0969C78.1923 34.9773 78.2794 34.8338 78.3348 34.6982C78.3507 34.6663 78.3665 34.6105 78.3903 34.5786C78.3903 34.5467 78.4061 34.4909 78.4061 34.459C78.4061 34.459 78.422 34.4031 78.422 34.3712C78.4378 34.3393 78.4378 34.2995 78.4378 34.2676V34.1639C78.4378 34.0283 78.4061 33.9007 78.3348 33.7971C78.2636 33.6934 78.1289 33.6376 77.9388 33.6376H77.7487V33.0474C77.82 33.0474 77.8833 33.0315 77.9546 33.0315H78.0576C78.3665 33.0315 78.6279 33.1192 78.8497 33.2946C79.0715 33.4541 79.1745 33.7253 79.1745 34.0762C79.1745 34.132 79.1745 34.1958 79.1587 34.2676C79.1587 34.3234 79.1587 34.3872 79.1428 34.459C79.0399 34.9295 78.8339 35.2724 78.525 35.5196C78.2873 35.6951 78.0259 35.8147 77.7487 35.8625ZM80.0696 35.8067H79.3646L80.1409 32.1543H80.8459L80.0696 35.8067ZM77.7487 33.0554V33.6455C77.6298 33.6774 77.5269 33.7333 77.4397 33.821C77.3209 33.9406 77.2338 34.0841 77.1783 34.2197C77.1625 34.2755 77.1466 34.3074 77.1229 34.3393C77.1229 34.3952 77.107 34.4271 77.107 34.459C77.0912 34.5148 77.0912 34.5626 77.0753 34.6185V34.778C77.0753 34.8976 77.107 35.0172 77.1783 35.1448C77.2496 35.2485 77.3843 35.3043 77.5744 35.3043C77.6457 35.3043 77.6932 35.3043 77.7487 35.2883V35.8785C77.6774 35.8785 77.614 35.8944 77.5427 35.8944H77.4556C77.1466 35.8944 76.8694 35.8067 76.6634 35.6552C76.5763 35.5834 76.505 35.4957 76.4575 35.4159V34.2038C76.5604 33.8768 76.7506 33.6136 76.9882 33.4382C77.2259 33.2468 77.4873 33.1272 77.7487 33.0714V33.0554ZM76.4575 33.3186L76.5763 33.1112H76.4575V33.3186ZM76.4575 33.1112V33.3186L75.0316 35.8147H74.2949L73.8989 33.1112H74.691L74.8257 35.1049L75.8238 33.1112H76.4575ZM76.4575 34.1878C76.4258 34.2755 76.402 34.3633 76.3862 34.4669C76.3703 34.5387 76.3545 34.6025 76.3545 34.6743C76.3387 34.7461 76.3387 34.7939 76.3387 34.8657C76.3387 35.073 76.3703 35.2485 76.4575 35.4V34.1878ZM69.2965 35.8705V35.2963C69.352 35.2804 69.3995 35.2644 69.4549 35.2245C69.5421 35.1687 69.5896 35.1049 69.6292 35.0331V35.0172H70.3659C70.2471 35.2405 70.1045 35.4159 69.954 35.5515C69.7956 35.6711 69.6292 35.7589 69.4549 35.8147C69.3995 35.8306 69.352 35.8466 69.2965 35.8705ZM69.2965 34.6583V34.1878H69.8272C69.8272 34.1878 69.8431 34.1559 69.8431 34.132V34.0762C69.8431 33.9167 69.7876 33.7971 69.7243 33.7333C69.6371 33.6615 69.55 33.6296 69.447 33.6296H69.2886V33.0554C69.3599 33.0395 69.447 33.0395 69.5262 33.0395H69.6451C69.6451 33.0395 69.7163 33.0395 69.748 33.0554C69.954 33.0714 70.1283 33.1591 70.3025 33.3186C70.461 33.4541 70.5402 33.7014 70.5402 34.0283C70.5402 34.116 70.5402 34.1878 70.5243 34.2676C70.5243 34.3393 70.5085 34.443 70.4926 34.5307L70.461 34.6504H69.2886L69.2965 34.6583ZM73.5266 33.9486L73.1305 35.8226H72.4096L72.774 34.1798C72.774 34.1798 72.774 34.124 72.7899 34.1081V33.9725C72.7899 33.8848 72.774 33.813 72.7186 33.7492C72.6631 33.6774 72.5601 33.6615 72.4096 33.6615C72.2591 33.6615 72.1165 33.7173 71.9977 33.821C71.8631 33.9247 71.7759 34.0841 71.7205 34.2915L71.3957 35.8306H70.6907L71.261 33.1272H71.9502L71.8631 33.5259H71.8789C71.8789 33.5259 71.9106 33.4701 71.9502 33.4382C71.966 33.4063 72.0056 33.3664 72.0373 33.3345C72.1245 33.2627 72.2274 33.199 72.3463 33.1431C72.4651 33.0873 72.6077 33.0554 72.774 33.0554C73.0117 33.0554 73.1859 33.1112 73.3444 33.2308C73.479 33.3345 73.5503 33.51 73.5503 33.7333V33.8369C73.5345 33.8928 73.5345 33.9247 73.5345 33.9566L73.5266 33.9486ZM69.2965 33.0634V33.6376C69.1777 33.6535 69.0747 33.7093 68.9876 33.7731C68.8846 33.8768 68.7975 34.0124 68.7499 34.1878H69.3044V34.6583H68.6311C68.6311 34.6583 68.6153 34.7142 68.6153 34.7461V34.9375C68.6311 35.0411 68.6707 35.1288 68.7341 35.2166C68.8054 35.2883 68.94 35.3362 69.1143 35.3362C69.1302 35.3362 69.146 35.3362 69.1698 35.3202H69.2252C69.2252 35.3202 69.2807 35.3043 69.3124 35.3043V35.8785H69.2411C69.1539 35.8944 69.0826 35.8944 69.0034 35.8944C68.6945 35.8944 68.4331 35.8227 68.2271 35.6871C68.0212 35.5276 67.9182 35.2883 67.9182 34.9215C67.9182 34.8338 67.9182 34.762 67.934 34.6823C67.9499 34.6105 67.9499 34.5068 67.9895 34.4191C67.9895 34.3473 68.0212 34.2596 68.0608 34.14C68.0925 34.0204 68.1637 33.9007 68.235 33.7731C68.3539 33.5977 68.5123 33.4302 68.7182 33.2707C68.8925 33.1511 69.0826 33.0793 69.3203 33.0634H69.2965ZM63.6723 35.8705V35.2963C63.7277 35.2804 63.7753 35.2644 63.8307 35.2245C63.902 35.1687 63.9654 35.1049 64.005 35.0331V35.0172H64.7417C64.6229 35.2405 64.4803 35.4159 64.3298 35.5515C64.1713 35.6711 64.005 35.7589 63.8307 35.8147C63.7753 35.8306 63.7277 35.8466 63.6723 35.8705ZM63.6723 34.6583V34.1878H64.203C64.203 34.1878 64.2189 34.1559 64.2189 34.132V34.0762C64.2189 33.9167 64.1634 33.7971 64.1001 33.7333C64.0129 33.6615 63.9258 33.6296 63.8228 33.6296H63.6644V33.0554C63.7357 33.0395 63.8228 33.0395 63.902 33.0395H64.0208C64.0208 33.0395 64.0921 33.0395 64.1238 33.0554C64.3298 33.0714 64.5041 33.1591 64.6546 33.3186C64.8288 33.4541 64.916 33.7014 64.916 34.0283C64.916 34.116 64.916 34.1878 64.9001 34.2676C64.9001 34.3393 64.8843 34.443 64.8684 34.5307L64.8368 34.6504H63.6644L63.6723 34.6583ZM67.6805 33.9326H66.9914V33.9167C66.9914 33.829 66.9755 33.7572 66.9201 33.6934C66.8646 33.6216 66.7617 33.5897 66.5953 33.5897C66.429 33.5897 66.3181 33.6057 66.2547 33.6615C66.1834 33.6934 66.1359 33.7492 66.12 33.7971C66.12 33.7971 66.1042 33.813 66.1042 33.829V33.8609L66.0883 33.8768C66.1042 33.9486 66.1438 33.9964 66.223 34.0363C66.3022 34.0762 66.429 34.1081 66.5478 34.124C66.5795 34.14 66.6349 34.14 66.6824 34.1559C66.7379 34.1559 66.7854 34.1719 66.8171 34.1878C67.0072 34.2197 67.1815 34.2915 67.332 34.3792C67.4825 34.4669 67.5538 34.6025 67.5538 34.8099V34.8816C67.5538 34.8816 67.5538 34.9374 67.538 34.9693C67.4825 35.2086 67.3795 35.4 67.229 35.5435C67.0706 35.6632 66.9201 35.7509 66.73 35.8226C66.627 35.8386 66.524 35.8785 66.4369 35.8785C66.3339 35.8944 66.2468 35.8944 66.1596 35.8944H66.1438C65.8665 35.8944 65.613 35.8386 65.3833 35.7349C65.1615 35.6313 65.0427 35.4399 65.0427 35.1448C65.0427 35.1288 65.0427 35.089 65.0585 35.0571V34.9534H65.7952C65.7952 34.9534 65.7794 34.9853 65.7794 35.0092V35.065C65.7794 35.1528 65.8111 35.2245 65.8982 35.2883C65.9695 35.3442 66.1042 35.3601 66.2943 35.3601C66.429 35.3601 66.5161 35.3442 66.6032 35.3043C66.6745 35.2724 66.722 35.2325 66.7617 35.1847C66.7617 35.1687 66.7775 35.1528 66.7775 35.1288C66.7933 35.1129 66.7933 35.0969 66.7933 35.073H66.8092V35.0411C66.8092 34.9693 66.7537 34.9215 66.6745 34.8816C66.5953 34.8418 66.4686 34.8099 66.3497 34.7939C66.2943 34.778 66.2626 34.778 66.2151 34.762C66.1834 34.762 66.1279 34.7461 66.0804 34.7301C65.9061 34.6982 65.7398 34.6264 65.5814 34.5387C65.4229 34.451 65.3596 34.3154 65.3596 34.1081V34.0363C65.3596 34.0363 65.3754 33.9805 65.3754 33.9486C65.3913 33.9167 65.3913 33.8768 65.4071 33.8449C65.4229 33.813 65.4388 33.7572 65.4625 33.7253C65.5338 33.5498 65.6685 33.3983 65.8586 33.2548C66.0487 33.1112 66.326 33.0474 66.6666 33.0474H66.8013C67.0231 33.0634 67.229 33.1192 67.4191 33.2069C67.5934 33.3106 67.6964 33.502 67.6964 33.7811V33.8529C67.6964 33.8529 67.6805 33.9247 67.6805 33.9566V33.9406V33.9326ZM63.6723 33.0634V33.6376C63.5535 33.6535 63.4505 33.7093 63.3634 33.7731C63.2604 33.8768 63.1733 34.0124 63.102 34.1878H63.6723V34.6583H62.9831V34.9375C62.999 35.0411 63.0386 35.1288 63.102 35.2166C63.1733 35.2883 63.2921 35.3362 63.4822 35.3362C63.498 35.3362 63.5139 35.3362 63.5376 35.3202H63.5931C63.5931 35.3202 63.6485 35.3043 63.6802 35.3043V35.8785H63.6089C63.5218 35.8944 63.4347 35.8944 63.3713 35.8944C63.0624 35.8944 62.8009 35.8227 62.595 35.6871C62.389 35.5276 62.2861 35.2883 62.2861 34.9215C62.2861 34.8338 62.2861 34.762 62.3019 34.6823C62.3019 34.6105 62.3177 34.5068 62.3336 34.4191C62.3494 34.3473 62.389 34.2596 62.4207 34.14C62.4524 34.0204 62.5237 33.9007 62.595 33.7731C62.7138 33.5977 62.8722 33.4302 63.0782 33.2707C63.2366 33.1511 63.4426 33.0793 63.6802 33.0634H63.6723ZM60.472 35.7987V35.1767C60.678 35.1209 60.8364 35.0172 60.9711 34.8338C61.1454 34.5945 61.2642 34.3314 61.3355 34.0363C61.3355 34.0363 61.3408 34.0257 61.3513 34.0044V33.9725C61.383 33.8688 61.383 33.7811 61.4068 33.6934C61.4068 33.6216 61.4226 33.5578 61.4226 33.486C61.4226 33.2468 61.3672 33.0714 61.2642 32.9836C61.1771 32.8959 61.0741 32.8241 60.9553 32.8082H60.8523C60.8523 32.8082 60.7968 32.7922 60.7651 32.7922H60.472V32.1702H61.0424C61.486 32.1702 61.8028 32.2898 61.9534 32.553C62.1276 32.7922 62.191 33.0554 62.191 33.3505V33.3664C62.191 33.4701 62.191 33.5578 62.1752 33.6615C62.1752 33.7492 62.1593 33.8369 62.1435 33.9247C62.1276 34.0124 62.088 34.116 62.0722 34.2038C62.0405 34.3074 62.0009 34.4111 61.9534 34.5148C61.8187 34.8418 61.6127 35.1368 61.3355 35.4159C61.1137 35.6392 60.8206 35.7828 60.472 35.8147V35.7987ZM56.1153 35.0172H56.852C56.7331 35.2405 56.5906 35.4159 56.44 35.5515C56.2816 35.6711 56.1153 35.7589 55.941 35.8147C55.8855 35.8306 55.838 35.8466 55.7826 35.8705V35.2963C55.838 35.2804 55.8855 35.2644 55.941 35.2245C56.0281 35.1687 56.0757 35.1049 56.1153 35.0331V35.0172ZM55.7905 33.0554C55.8618 33.0395 55.9489 33.0395 56.0281 33.0395H56.1469C56.1469 33.0395 56.2182 33.0395 56.2499 33.0554C56.4559 33.0714 56.6302 33.1591 56.8044 33.3186C56.9629 33.4541 57.0421 33.7014 57.0421 34.0283C57.0421 34.116 57.0421 34.1878 57.0262 34.2676C57.0262 34.3393 57.0104 34.443 56.9945 34.5307L56.9629 34.6504H55.7905V34.1798H56.345V34.0762C56.345 33.9167 56.2895 33.7971 56.2262 33.7333C56.139 33.6615 56.0519 33.6296 55.9489 33.6296H55.7905V33.0554ZM60.472 32.1543V32.7763H60.0443L59.5294 35.1847H60.2661C60.3374 35.1847 60.4008 35.1687 60.472 35.1687V35.7908C60.3849 35.8067 60.3136 35.8067 60.2344 35.8067H58.6501L59.4264 32.1543H60.48H60.472ZM55.7905 35.8625H55.7192C55.6321 35.8785 55.5608 35.8785 55.4816 35.8785C55.1726 35.8785 54.9112 35.8067 54.7052 35.6711C54.4993 35.5116 54.3963 35.2724 54.3963 34.9056C54.3963 34.8178 54.3963 34.7461 54.4122 34.6663C54.428 34.5945 54.428 34.4909 54.4676 34.4031C54.4676 34.3314 54.4993 34.2436 54.5389 34.124C54.5785 34.0044 54.6419 33.8848 54.7132 33.7572C54.832 33.5817 54.9904 33.4143 55.1964 33.2548C55.3707 33.1352 55.5608 33.0634 55.7984 33.0474V33.6216C55.6796 33.6376 55.5766 33.6934 55.5053 33.7572C55.3865 33.8609 55.2994 33.9964 55.2439 34.1719H55.7984V34.6424H55.1251C55.1251 34.6424 55.1092 34.6982 55.1092 34.7301V34.9215C55.1251 35.0252 55.1647 35.1129 55.2281 35.2006C55.2994 35.2724 55.434 35.3202 55.6083 35.3202C55.6241 35.3202 55.64 35.3202 55.6637 35.3043H55.7192C55.7192 35.3043 55.7746 35.2883 55.8063 35.2883V35.8625H55.7905ZM20.2471 41.8755V41.078L20.6431 39.1721H21.364L20.7778 41.8755H20.2471ZM20.2471 38.7574V38.1832H20.4213L20.3025 38.7574H20.2471ZM21.4194 38.8451H20.7144L20.8729 38.1832H21.5779L21.4194 38.8451ZM20.2471 38.1832V38.7574H20.0886C19.9857 38.7574 19.9144 38.7893 19.8827 38.8291C19.851 38.869 19.8114 38.9169 19.7956 39.0046V39.0365C19.7956 39.0365 19.7956 39.0524 19.7797 39.0684L19.7639 39.1721H20.2312L20.1283 39.6745H19.6609L19.1935 41.8755H18.7975V40.4002L18.9559 39.6745H18.7975V39.1721H19.0589L19.0906 38.9488C19.1618 38.6696 19.2807 38.4783 19.4312 38.3586C19.6054 38.239 19.8114 38.1832 20.049 38.1832H20.2392H20.2471ZM20.2471 41.078L20.0728 41.8755H20.2471V41.078ZM18.7975 38.3028L19.1064 38.0636H18.7975V38.3028ZM18.7975 38.0636V38.3028L18.1954 38.8052H17.6964L18.3143 38.0636H18.7975ZM18.7975 39.1721V39.6745H18.5598L18.6628 39.1721H18.7975ZM18.7975 40.4002V41.8755H18.4885L18.7975 40.4002ZM17.0231 41.8755V41.6363L17.5538 39.1721H18.2588L17.6885 41.8755H17.0151H17.0231ZM17.0231 39.4113L17.0785 39.1721H17.0231V39.4113ZM17.0231 39.1721V39.4113L16.9676 39.6745H16.5399L16.2151 41.1498V41.2216C16.2151 41.2216 16.1992 41.2535 16.1992 41.2774C16.1992 41.3093 16.2151 41.3492 16.2705 41.3651C16.3022 41.3811 16.3735 41.3811 16.4765 41.3811H16.6349L16.5161 41.8994C16.4606 41.9154 16.3973 41.9154 16.3418 41.9154H16.0804C15.8428 41.9154 15.6685 41.8835 15.5814 41.8117C15.4942 41.7399 15.4625 41.6522 15.4625 41.5326V41.4289C15.4625 41.4289 15.4784 41.3571 15.4784 41.3252L15.819 39.6824H15.4546L15.5576 39.18H15.9378L16.0963 38.4384H16.8013L16.6428 39.18H17.0231V39.1721ZM17.0231 41.6363L16.9676 41.8755H17.0231V41.6363ZM10.7731 41.9313V41.3571C10.8285 41.3412 10.8919 41.3252 10.9473 41.2854C11.0186 41.2296 11.0662 41.1658 11.1216 41.094V41.078H11.8425C11.7395 41.3013 11.6048 41.4768 11.4464 41.6123C11.2721 41.732 11.1216 41.8197 10.9473 41.8755C10.8919 41.8915 10.8285 41.9074 10.7731 41.9313ZM10.7731 40.7192V40.2487H11.3276V40.145C11.3276 39.9855 11.2959 39.8659 11.2087 39.8021C11.1216 39.7303 11.0345 39.6984 10.9473 39.6984H10.7731V39.1242C10.8602 39.1083 10.9473 39.1083 11.0345 39.1083H11.1374C11.1374 39.1083 11.2246 39.1083 11.2563 39.1242C11.4464 39.1561 11.6365 39.2438 11.787 39.3874C11.9613 39.5229 12.0246 39.7702 12.0246 40.1131V40.3364C12.0088 40.4241 11.993 40.5118 11.9692 40.5995L11.9375 40.7192H10.7651H10.7731ZM15.0031 40.0094L14.607 41.8835H13.902L14.2426 40.2407C14.2426 40.2407 14.2585 40.2088 14.2585 40.1689C14.2743 40.137 14.2743 40.0971 14.2743 40.0812V40.0254C14.2743 39.9376 14.2426 39.8659 14.1872 39.8021C14.1555 39.7303 14.0525 39.7143 13.8941 39.7143C13.7357 39.7143 13.601 39.7702 13.4663 39.8738C13.3317 39.9775 13.2445 40.137 13.2049 40.3443L12.8802 41.8835H12.1751L12.7455 39.18H13.4188L13.3475 39.5788C13.3475 39.5788 13.403 39.5229 13.4188 39.491C13.4505 39.4591 13.4901 39.4193 13.5218 39.3874C13.5931 39.3156 13.6961 39.2518 13.8149 39.196C13.9337 39.1402 14.0921 39.1083 14.2585 39.1083C14.4803 39.1083 14.6704 39.1641 14.813 39.2837C14.9476 39.3874 15.0348 39.5628 15.0348 39.7861C15.0348 39.818 15.0189 39.8579 15.0189 39.8898C15.0189 39.9456 15.0031 39.9775 15.0031 40.0094ZM10.7731 39.1242V39.6984C10.6701 39.7143 10.5671 39.7702 10.48 39.834C10.3611 39.9376 10.274 40.0732 10.2186 40.2487H10.7731V40.7192H10.0997V40.8069C10.0997 40.8069 10.0839 40.8787 10.0839 40.9106C10.0839 40.9265 10.0839 40.9425 10.0997 40.9664V40.9983C10.0997 41.102 10.1552 41.1897 10.2186 41.2774C10.2899 41.3492 10.4087 41.397 10.5988 41.397H10.6542C10.6542 41.397 10.6859 41.3811 10.7097 41.3811C10.7335 41.3811 10.7651 41.3811 10.781 41.3651V41.9393H10.7097C10.6384 41.9553 10.5513 41.9553 10.4879 41.9553C10.1631 41.9553 9.9017 41.8835 9.69574 41.7479C9.48979 41.6123 9.38681 41.3492 9.38681 40.9823C9.38681 40.9106 9.40265 40.8228 9.40265 40.7431C9.4185 40.6713 9.43434 40.5836 9.4581 40.4799C9.47395 40.4081 9.48979 40.3204 9.54524 40.2008C9.57692 40.0812 9.63237 39.9775 9.71951 39.834C9.82249 39.6585 9.99676 39.491 10.2027 39.3316C10.3611 39.2279 10.5433 39.1402 10.7889 39.1242H10.7731ZM7.95303 39.4193H7.19258C7.19258 39.4193 7.19258 39.3475 7.17673 39.3156C7.17673 39.2598 7.17673 39.2279 7.16089 39.18C7.12921 39.0923 7.07376 38.9886 6.97078 38.9169C6.88364 38.8291 6.73313 38.7972 6.52718 38.7972C6.45588 38.7972 6.39251 38.8132 6.30538 38.8291C6.21824 38.8451 6.13111 38.885 6.04397 38.9328C5.90931 39.0046 5.78256 39.1402 5.6479 39.3156C5.52908 39.507 5.4261 39.7462 5.35481 40.0812C5.33896 40.153 5.32312 40.2168 5.32312 40.3045C5.30728 40.3762 5.30728 40.44 5.30728 40.5118C5.30728 40.7511 5.36273 40.9425 5.46571 41.102C5.58453 41.2375 5.7588 41.3252 5.99644 41.3252C6.2024 41.3252 6.39251 41.2694 6.56678 41.1498C6.72521 41.0302 6.85988 40.8547 6.94701 40.6314H7.70747C7.54904 41.0302 7.3114 41.3571 7.00246 41.6044C6.69353 41.8675 6.29746 41.9872 5.84594 41.9872C5.44986 41.9872 5.12509 41.8675 4.87952 41.6602C4.64188 41.4369 4.51514 41.102 4.51514 40.6554C4.51514 40.5676 4.51514 40.4799 4.53098 40.3762C4.54682 40.2726 4.56267 40.1689 4.58643 40.0652C4.72109 39.4273 4.9825 38.9567 5.37857 38.6298C5.77464 38.3028 6.2024 38.1433 6.66976 38.1433C7.08168 38.1433 7.39061 38.231 7.59657 38.4224C7.78668 38.6138 7.9055 38.8212 7.96095 39.0445C7.96095 39.0764 7.96095 39.1162 7.9768 39.1641V39.3555C7.9768 39.3555 7.96095 39.4113 7.96095 39.4272L7.95303 39.4193ZM9.26007 39.18L8.68973 41.8835H7.96888L8.55506 39.18H9.26007ZM9.33136 38.8531H8.61051L8.76894 38.1912H9.47395L9.33928 38.8531H9.33136Z" fill="#565656"/>
<path d="M60.9077 41.9473V41.3572C61.0424 41.3412 61.1454 41.2695 61.2325 41.1817C61.3513 41.0621 61.4385 40.9425 61.4939 40.783C61.5098 40.7511 61.5256 40.6953 61.5256 40.6634C61.5414 40.6315 61.5573 40.5757 61.5573 40.5438C61.5573 40.5438 61.5731 40.4879 61.5731 40.456V40.3524C61.5731 40.3524 61.589 40.3205 61.589 40.2965V40.2646C61.589 40.1051 61.5573 39.9855 61.486 39.8818C61.4147 39.7782 61.28 39.7224 61.0741 39.7224C61.0186 39.7224 60.9553 39.7224 60.8998 39.7383V39.1482C60.9711 39.1322 61.0345 39.1163 61.1058 39.1163H61.2087C61.5177 39.1163 61.7791 39.204 62.0009 39.3794C62.2068 39.5389 62.3257 39.8101 62.3257 40.161C62.3257 40.2327 62.3257 40.2806 62.3098 40.3524C62.3098 40.4241 62.294 40.472 62.2781 40.5438C62.191 41.0143 61.985 41.3731 61.6761 41.6044C61.4385 41.7798 61.1771 41.8995 60.8998 41.9473H60.9077ZM60.9077 39.1561V39.7463C60.7889 39.7622 60.6701 39.8181 60.5988 39.9058C60.48 40.0254 60.3928 40.1689 60.3374 40.3045C60.3215 40.3603 60.3057 40.3922 60.2819 40.4401C60.2819 40.472 60.2661 40.5119 60.2661 40.5438C60.2503 40.5996 60.2503 40.6474 60.2344 40.7033V40.8627C60.2344 40.9824 60.2661 41.1259 60.3374 41.2296C60.4087 41.3333 60.5433 41.3891 60.7335 41.3891C60.8048 41.3891 60.8523 41.3891 60.9077 41.3731V41.9633C60.8364 41.9633 60.7731 41.9792 60.7018 41.9792H60.6146C60.3057 41.9792 60.0285 41.9074 59.8225 41.74C59.6007 41.5645 59.4977 41.3093 59.4977 40.9584V40.7671C59.5136 40.6953 59.5294 40.6315 59.5294 40.5597C59.6324 40.0892 59.8383 39.7463 60.1314 39.523C60.3691 39.3316 60.6305 39.212 60.9077 39.1801V39.1561ZM53.5567 42.9521V42.362C53.5567 42.362 53.6121 42.3461 53.6279 42.3301C53.7309 42.2264 53.8181 42.0669 53.8656 41.8436L53.9369 41.5167H53.921C53.8497 41.6204 53.7468 41.7081 53.6279 41.7958C53.5963 41.8117 53.5725 41.8277 53.5567 41.8277V41.3093C53.6913 41.2774 53.7943 41.2057 53.8814 41.102C53.9844 40.9664 54.0715 40.8069 54.1191 40.6315V40.5757C54.1191 40.5757 54.1349 40.5438 54.1349 40.5198C54.1508 40.4879 54.1508 40.4321 54.1508 40.4002V40.2806C54.1508 40.1211 54.1191 39.9855 54.0478 39.8818C53.9607 39.7782 53.8577 39.7463 53.6834 39.7463H53.5804C53.5804 39.7463 53.5646 39.7463 53.5487 39.7622V39.1242H53.6517C53.8418 39.1242 53.9765 39.1561 54.0636 39.212C54.1666 39.2837 54.2379 39.3475 54.2854 39.4193C54.3013 39.4512 54.3013 39.4911 54.3171 39.523C54.3171 39.5389 54.333 39.5788 54.333 39.5948H54.3488L54.4359 39.196H55.1093L54.5785 41.7639C54.5627 41.8357 54.5468 41.8995 54.5231 41.9872C54.5072 42.059 54.4676 42.1228 54.4359 42.2105C54.3488 42.4178 54.1983 42.5933 53.9923 42.7687C53.8735 42.8564 53.7151 42.9043 53.5487 42.9601L53.5567 42.9521ZM56.4797 39.196L55.9093 41.8995H55.1885L55.7747 39.196H56.4797ZM56.551 38.8691H55.8459L55.9806 38.2071H56.6856L56.551 38.8691ZM58.3887 40.9106H59.1096C59.0937 40.9824 59.0541 41.0462 59.0224 41.1339C58.9907 41.2216 58.9195 41.3093 58.8482 41.3971C58.7452 41.5566 58.5868 41.6762 58.4046 41.7958C58.1986 41.9154 57.961 41.9712 57.6441 41.9712C57.248 41.9712 56.9866 41.8835 56.852 41.6762C56.7173 41.4848 56.646 41.2615 56.646 41.0143C56.646 40.9425 56.646 40.8946 56.6618 40.8229C56.6618 40.7511 56.6777 40.6873 56.6935 40.6315C56.7807 40.1849 56.9549 39.834 57.2243 39.5389C57.4857 39.2598 57.8421 39.1242 58.2937 39.1242H58.4521C58.5075 39.1402 58.5709 39.1402 58.6264 39.1561C58.7848 39.188 58.9353 39.2758 59.07 39.3954C59.2046 39.515 59.2759 39.7224 59.2759 39.9855V40.161H58.5551V40.0732C58.5551 40.0732 58.5392 40.0413 58.5392 40.0015C58.5234 39.9297 58.5075 39.8659 58.4521 39.8101C58.3966 39.7383 58.3174 39.7064 58.2144 39.7224H58.1828C57.9926 39.7224 57.858 39.7782 57.755 39.8978C57.6362 40.0174 57.5649 40.137 57.5174 40.2965C57.5015 40.3284 57.4857 40.3683 57.4857 40.4002C57.4698 40.4321 57.4698 40.472 57.454 40.5039V40.5597C57.454 40.5597 57.4381 40.6474 57.4223 40.6953C57.4223 40.7511 57.4223 40.783 57.4065 40.8308V40.9186C57.4065 41.0382 57.4382 41.1419 57.4936 41.2455C57.5491 41.3333 57.6679 41.3811 57.8184 41.3811C57.9372 41.3811 58.0243 41.3492 58.1115 41.2934C58.1986 41.2376 58.2461 41.1897 58.3016 41.1179C58.3333 41.0621 58.357 41.0302 58.3729 40.9983C58.3887 40.9664 58.4046 40.9265 58.4046 40.8946L58.3887 40.9106ZM53.5487 39.1242V39.7622C53.5487 39.7622 53.4933 39.7622 53.4774 39.7782C53.3745 39.8101 53.2715 39.8978 53.1843 40.0174C53.0814 40.137 53.0101 40.3284 52.9625 40.5517C52.9625 40.5517 52.9625 40.6076 52.9467 40.6235V40.6953C52.9467 40.6953 52.9467 40.7272 52.9309 40.7511V40.8229C52.9309 40.9584 52.9625 41.0621 53.0338 41.1658C53.1051 41.2695 53.2081 41.3253 53.3586 41.3253C53.4299 41.3253 53.4933 41.3093 53.5487 41.3093V41.8277C53.4299 41.8835 53.2873 41.9154 53.1051 41.9154C52.8437 41.9154 52.6219 41.8436 52.4477 41.6921C52.2734 41.5326 52.1862 41.2934 52.1862 40.9664C52.1862 40.8946 52.2021 40.8308 52.2021 40.7591C52.2179 40.6873 52.2179 40.5996 52.2338 40.5358C52.3368 40.0892 52.4952 39.7543 52.7487 39.531C52.9863 39.2917 53.2477 39.1641 53.5408 39.1322L53.5487 39.1242ZM53.5487 42.362V42.9521C53.3745 42.984 53.1843 43.008 52.9467 43.008C52.7091 43.008 52.4635 42.9521 52.2575 42.8485C52.0516 42.7288 51.9486 42.5534 51.9486 42.3142V42.1945H52.7249C52.7249 42.2663 52.7407 42.3301 52.7962 42.3859C52.8279 42.4418 52.9546 42.4737 53.1606 42.4737C53.319 42.4737 53.4537 42.4418 53.5567 42.37L53.5487 42.362ZM50.4831 41.9473V41.3572C50.6178 41.3412 50.7208 41.2695 50.8079 41.1817C50.9267 41.0621 51.0139 40.9425 51.0693 40.783C51.0852 40.7511 51.101 40.6953 51.1248 40.6634C51.1248 40.6315 51.1406 40.5757 51.1406 40.5438C51.1406 40.5438 51.1565 40.4879 51.1565 40.456C51.1565 40.4241 51.1723 40.3843 51.1723 40.3524V40.2646C51.1723 40.1051 51.1406 39.9855 51.0693 39.8818C50.998 39.7782 50.8634 39.7224 50.6574 39.7224C50.602 39.7224 50.5386 39.7224 50.4831 39.7383V39.1482C50.5544 39.1322 50.6178 39.1163 50.6891 39.1163H50.7921C51.101 39.1163 51.3624 39.204 51.5842 39.3794C51.806 39.5389 51.909 39.8101 51.909 40.161C51.909 40.2327 51.909 40.2806 51.8932 40.3524C51.8932 40.4241 51.8773 40.472 51.8773 40.5438C51.7743 41.0143 51.5684 41.3731 51.2594 41.6044C51.0218 41.7798 50.7604 41.8995 50.4831 41.9473ZM51.0693 38.8292H50.5544L51.1882 38.0875H51.9644L51.0693 38.8292ZM50.4831 39.1561V39.7463C50.3643 39.7622 50.2613 39.8181 50.1742 39.9058C50.0554 40.0254 49.9841 40.1689 49.9366 40.3045C49.9207 40.3603 49.9049 40.3922 49.8811 40.4401C49.8811 40.472 49.8653 40.5119 49.8653 40.5438C49.8494 40.5996 49.8494 40.6474 49.8336 40.7033V40.8627C49.8336 40.9824 49.8653 41.1259 49.9366 41.2296C49.992 41.3333 50.1267 41.3891 50.3168 41.3891C50.3881 41.3891 50.4356 41.3891 50.4911 41.3731V41.9633C50.4198 41.9633 50.3564 41.9792 50.2851 41.9792H50.198C49.9049 41.9792 49.6276 41.9074 49.4217 41.74C49.2316 41.5805 49.1127 41.3731 49.0969 41.0781V40.8388C49.0969 40.8388 49.0969 40.783 49.1127 40.7671C49.1127 40.6953 49.1286 40.6315 49.1286 40.5597C49.2316 40.0892 49.4375 39.7463 49.7306 39.523C49.992 39.3316 50.2297 39.212 50.4911 39.1801L50.4831 39.1561ZM49.089 38.255V38.239V38.255ZM49.089 38.239V38.255L48.3127 41.8915H47.6077L48.384 38.239H49.089ZM46.0075 41.9473V41.3572C46.1264 41.3412 46.2452 41.2695 46.3165 41.1817C46.4353 41.0621 46.5224 40.9425 46.5779 40.783C46.5937 40.7511 46.6096 40.6953 46.6333 40.6634C46.6571 40.6315 46.6492 40.5757 46.665 40.5438C46.665 40.5438 46.665 40.4879 46.6809 40.456V40.2646C46.6809 40.1051 46.6492 39.9855 46.5779 39.8818C46.5066 39.7782 46.3878 39.7224 46.1818 39.7224C46.1105 39.7224 46.063 39.7224 46.0075 39.7383V39.1482C46.0788 39.1322 46.1422 39.1163 46.2135 39.1163H46.3006C46.6096 39.1163 46.8868 39.204 47.0928 39.3794C47.3146 39.5389 47.4176 39.8101 47.4176 40.161V40.3524C47.4176 40.4241 47.4017 40.472 47.3859 40.5438C47.2829 41.0143 47.0928 41.3731 46.7838 41.6044C46.5462 41.7798 46.2848 41.8995 46.0075 41.9473ZM46.0075 39.1561V39.7463C45.8729 39.7622 45.7699 39.8181 45.6828 39.9058C45.5639 40.0254 45.4768 40.1689 45.4214 40.3045C45.4055 40.3603 45.4055 40.3922 45.3897 40.4401C45.3738 40.472 45.3738 40.5119 45.358 40.5438C45.358 40.5996 45.3421 40.6474 45.3421 40.7033C45.3263 40.7591 45.3263 40.8069 45.3263 40.8627C45.3263 40.9824 45.358 41.1259 45.4293 41.2296C45.5164 41.3333 45.6352 41.3891 45.8412 41.3891C45.8966 41.3891 45.96 41.3891 46.0155 41.3731V41.9633C45.9442 41.9633 45.8808 41.9792 45.8095 41.9792H45.7065C45.3976 41.9792 45.1362 41.9074 44.9144 41.74C44.7084 41.5645 44.5896 41.3093 44.5896 40.9584C44.5896 40.8867 44.6055 40.8388 44.6055 40.7671C44.6213 40.6953 44.6213 40.6315 44.6371 40.5597C44.7401 40.0892 44.9302 39.7463 45.2392 39.523C45.4768 39.3316 45.7382 39.212 46.0155 39.1801L46.0075 39.1561ZM37.1752 41.9473V41.3731C37.2465 41.3572 37.294 41.3412 37.3494 41.3014C37.4207 41.2455 37.4841 41.1817 37.5237 41.11V41.094H38.2604C38.1416 41.3173 37.999 41.4928 37.8485 41.6283C37.6901 41.7479 37.5237 41.8357 37.3494 41.8915C37.294 41.9074 37.2465 41.9234 37.1752 41.9473ZM37.1752 40.7352V40.2646H37.7297C37.7297 40.2646 37.7455 40.2327 37.7455 40.2088V40.153C37.7455 39.9935 37.6901 39.8739 37.6108 39.8101C37.5395 39.7383 37.4524 39.7064 37.3494 39.7064H37.1752V39.1322C37.2623 39.1163 37.3494 39.1163 37.4366 39.1163H37.5554C37.5554 39.1163 37.6267 39.1163 37.6584 39.1322C37.8485 39.1641 38.0386 39.2518 38.1891 39.3954C38.3634 39.531 38.4505 39.7782 38.4505 40.1211C38.4505 40.1929 38.4347 40.2567 38.4347 40.3444C38.4188 40.4321 38.4188 40.5198 38.3792 40.6076L38.3634 40.7272H37.1752V40.7352ZM40.3913 40.9106H41.1121C41.0963 40.9824 41.0567 41.0462 41.025 41.1339C40.9695 41.2216 40.922 41.3093 40.8507 41.3971C40.7477 41.5566 40.5893 41.6762 40.3833 41.7958C40.1932 41.9154 39.9556 41.9712 39.6466 41.9712C39.2506 41.9712 38.9892 41.8835 38.8545 41.6762C38.7198 41.4848 38.6485 41.2615 38.6485 41.0143C38.6485 40.9425 38.6485 40.8946 38.6644 40.8229C38.6644 40.7511 38.6802 40.6873 38.6802 40.6315C38.7832 40.1849 38.9575 39.834 39.211 39.5389C39.4882 39.2598 39.8447 39.1242 40.2962 39.1242H40.4546C40.5101 39.1402 40.5576 39.1402 40.6289 39.1561C40.7873 39.188 40.9378 39.2758 41.0725 39.3954C41.2072 39.515 41.2785 39.7224 41.2785 39.9855V40.0732C41.2785 40.0732 41.2785 40.1291 41.2626 40.161H40.5576V40.0732C40.5576 40.0732 40.5418 40.0413 40.5418 40.0015C40.5259 39.9297 40.5101 39.8659 40.4546 39.8101C40.3992 39.7383 40.32 39.7064 40.1932 39.7224H40.1774C39.9873 39.7224 39.8526 39.7782 39.7496 39.8978C39.6308 40.0174 39.5595 40.137 39.512 40.2965C39.4961 40.3284 39.4803 40.3683 39.4803 40.4002C39.4645 40.4321 39.4645 40.472 39.4486 40.5039V40.5597C39.4486 40.5597 39.4328 40.6474 39.4169 40.6953C39.4169 40.7511 39.4169 40.783 39.4011 40.8308V40.9186C39.4011 41.0382 39.4328 41.1419 39.4882 41.2455C39.5437 41.3333 39.6625 41.3811 39.813 41.3811C39.9318 41.3811 40.019 41.3492 40.1061 41.2934C40.1774 41.2376 40.2407 41.1897 40.2962 41.1179C40.3279 41.0621 40.3516 41.0302 40.3675 40.9983C40.3833 40.9664 40.3992 40.9265 40.3992 40.8946L40.3913 40.9106ZM44.2331 40.0254L43.8371 41.8995H43.1321L43.4727 40.2567C43.4727 40.2567 43.4885 40.2248 43.4885 40.1849C43.4885 40.145 43.5044 40.1131 43.5044 40.0972V40.0413C43.5044 39.9536 43.4727 39.8819 43.4172 39.8181C43.3856 39.7463 43.2826 39.7303 43.1241 39.7303C42.9657 39.7303 42.8311 39.7862 42.6964 39.8898C42.5617 39.9935 42.4746 40.153 42.435 40.3603L42.1102 41.8995H41.4052L41.9755 39.196H42.6489L42.5617 39.5948H42.5776C42.5776 39.5948 42.633 39.5389 42.6489 39.507L42.7518 39.4034C42.8231 39.3316 42.9261 39.2678 43.0449 39.212C43.1638 39.1561 43.3222 39.1242 43.4885 39.1242C43.7103 39.1242 43.9004 39.1801 44.043 39.2997C44.1777 39.4034 44.249 39.5788 44.249 39.8021V39.9058C44.249 39.9616 44.2331 39.9935 44.2331 40.0254ZM37.1752 39.1402V39.7144C37.0722 39.7303 36.9692 39.7862 36.8821 39.85C36.7791 39.9536 36.692 40.0892 36.6207 40.2646H37.1752V40.7352H36.5018V41.0143C36.5177 41.1179 36.5573 41.2057 36.6207 41.2934C36.692 41.3652 36.8108 41.413 37.0009 41.413H37.0563C37.0563 41.413 37.088 41.3971 37.1118 41.3971C37.1435 41.3971 37.1672 41.3971 37.1831 41.3811V41.9553H37.1118C37.0405 41.9712 36.9534 41.9712 36.89 41.9712C36.5811 41.9712 36.3355 41.8995 36.1295 41.7798V39.842C36.2325 39.6665 36.3909 39.515 36.5969 39.3555C36.7553 39.2518 36.9613 39.1641 37.1831 39.1482L37.1752 39.1402ZM36.1216 38.877V38.239H36.4464L36.3117 38.877H36.1216ZM36.1216 38.239V38.877H35.2106L34.5769 41.8915H33.8165L34.4502 38.877H33.3491L33.4838 38.239H36.1137H36.1216ZM36.1216 39.834L36.1058 39.85C36.0345 39.9855 35.9711 40.0892 35.9315 40.2168C35.8919 40.3444 35.8602 40.4241 35.8444 40.4959C35.8285 40.5996 35.8127 40.6873 35.8127 40.7591C35.7968 40.8468 35.7968 40.9345 35.7968 40.9983C35.7968 41.3652 35.8998 41.6204 36.1058 41.7639C36.1058 41.7639 36.1216 41.7639 36.1216 41.7798V39.842V39.834ZM30.1647 41.9473V41.3731C30.2202 41.3572 30.2835 41.3412 30.339 41.3014C30.4103 41.2455 30.4578 41.1817 30.5132 41.11V41.094H31.2341C31.1311 41.3173 30.9965 41.4928 30.838 41.6283C30.6638 41.7479 30.5132 41.8357 30.339 41.8915C30.2835 41.9074 30.2202 41.9234 30.1647 41.9473ZM30.1647 40.7352V40.2646H30.7192V40.161C30.7192 40.0015 30.6875 39.8819 30.6004 39.8181C30.5132 39.7463 30.4261 39.7144 30.3231 39.7144H30.1647V39.1402C30.2518 39.1242 30.339 39.1242 30.4261 39.1242H30.5291C30.5291 39.1242 30.6162 39.1242 30.6479 39.1402C30.838 39.1721 31.0123 39.2598 31.1786 39.4034C31.345 39.5469 31.4163 39.7862 31.4163 40.1291V40.3524C31.4004 40.4401 31.3846 40.5278 31.3608 40.6155L31.3292 40.7352H30.1568H30.1647ZM30.1647 39.1402V39.7144C30.0459 39.7303 29.9587 39.7862 29.8716 39.85C29.7528 39.9536 29.6657 40.0892 29.6102 40.2646H30.1647V40.7352H29.4914C29.4914 40.7352 29.4914 40.791 29.4755 40.8229V40.9824L29.4914 41.0143C29.4914 41.1179 29.5468 41.2057 29.6102 41.2934C29.6815 41.3652 29.8003 41.413 29.9904 41.413H30.0459C30.0459 41.413 30.0776 41.3971 30.1013 41.3971C30.1251 41.3971 30.1568 41.3971 30.1726 41.3811V41.9553H30.1013C30.0142 41.9712 29.9429 41.9712 29.8795 41.9712C29.5548 41.9712 29.2933 41.8995 29.0874 41.7639C28.8814 41.6283 28.7785 41.3652 28.7785 40.9983C28.7785 40.9265 28.7943 40.8388 28.7943 40.7591C28.8101 40.6873 28.826 40.5996 28.8497 40.4959C28.8656 40.4241 28.8814 40.3364 28.9369 40.2168C28.9686 40.0972 29.024 39.9935 29.1112 39.85C29.2141 39.6745 29.3726 39.507 29.5944 39.3475C29.7528 39.2439 29.935 39.1561 30.1805 39.1402H30.1647ZM25.7604 41.9473V41.3572C25.8951 41.3412 25.998 41.2695 26.0852 41.1817C26.1882 41.0621 26.2753 40.9425 26.3466 40.783C26.3624 40.7511 26.3624 40.6953 26.3783 40.6634C26.3941 40.6315 26.3941 40.5757 26.41 40.5438C26.41 40.5438 26.41 40.4879 26.4258 40.456V40.3524C26.4258 40.3524 26.4416 40.3205 26.4416 40.2965V40.2646C26.4416 40.1051 26.3862 39.9855 26.3228 39.8818C26.2515 39.7782 26.1327 39.7224 25.9267 39.7224C25.8555 39.7224 25.8079 39.7224 25.7525 39.7383V39.1482C25.8238 39.1322 25.8871 39.1163 25.9584 39.1163H26.0456C26.3545 39.1163 26.6318 39.204 26.8377 39.3794C27.0595 39.5389 27.1625 39.8101 27.1625 40.161V40.3524C27.1625 40.4241 27.1466 40.472 27.1308 40.5438C27.0278 41.0143 26.8377 41.3731 26.5288 41.6044C26.2911 41.7798 26.0297 41.8995 25.7525 41.9473H25.7604ZM23.2493 40.9106H23.9702C23.9543 40.9824 23.9147 41.0462 23.883 41.1339C23.8276 41.2216 23.78 41.3093 23.7087 41.3971C23.5899 41.5566 23.4473 41.6762 23.2414 41.7958C23.0513 41.9154 22.8136 41.9712 22.5047 41.9712C22.1086 41.9712 21.8472 41.8835 21.7125 41.6762C21.5779 41.4848 21.5066 41.2615 21.5066 41.0143C21.5066 40.9425 21.5066 40.8946 21.5224 40.8229C21.5224 40.7511 21.5383 40.6873 21.5383 40.6315C21.6413 40.1849 21.8155 39.834 22.069 39.5389C22.3463 39.2598 22.6869 39.1242 23.1542 39.1242H23.3127C23.3681 39.1402 23.4157 39.1402 23.4711 39.1561C23.6454 39.188 23.7959 39.2758 23.9385 39.3954C24.0731 39.515 24.1444 39.7224 24.1444 39.9855V40.0732C24.1444 40.0732 24.1444 40.1291 24.1286 40.161H23.4236V40.1291C23.4236 40.1291 23.4236 40.0972 23.4077 40.0732V40.0015C23.3919 39.9297 23.3523 39.8659 23.3206 39.8101C23.2651 39.7383 23.1859 39.7064 23.0592 39.7224H23.0275C22.8532 39.7224 22.7186 39.7782 22.5997 39.8978C22.4968 40.0174 22.4255 40.137 22.3779 40.2965C22.3621 40.3284 22.3463 40.3683 22.3463 40.4002C22.3304 40.4321 22.3304 40.472 22.3146 40.5039V40.5597C22.3146 40.5597 22.2829 40.6474 22.2829 40.6953C22.2829 40.7431 22.267 40.783 22.267 40.8308V40.9186C22.267 41.0382 22.2987 41.1419 22.3542 41.2455C22.4096 41.3333 22.5126 41.3811 22.679 41.3811C22.7978 41.3811 22.8849 41.3492 22.9721 41.2934C23.0433 41.2376 23.1067 41.1897 23.1622 41.1179C23.178 41.0621 23.2176 41.0302 23.2335 40.9983C23.2493 40.9664 23.2651 40.9265 23.2651 40.8946L23.2493 40.9106ZM25.7604 39.1641V39.7543C25.6257 39.7702 25.5228 39.826 25.4356 39.9137C25.3168 40.0334 25.2297 40.1769 25.1742 40.3125C25.1584 40.3683 25.1584 40.4002 25.1425 40.4481C25.1267 40.48 25.1267 40.5198 25.1108 40.5517C25.1108 40.6076 25.095 40.6554 25.095 40.7112C25.095 40.7671 25.0792 40.8149 25.0792 40.8707C25.0792 40.9903 25.1108 41.1339 25.198 41.2376C25.2693 41.3412 25.3881 41.3971 25.594 41.3971C25.6495 41.3971 25.7129 41.3971 25.7683 41.3811V41.9712C25.697 41.9712 25.6337 41.9872 25.5624 41.9872H25.4594C25.1504 41.9872 24.889 41.9154 24.6672 41.7479C24.4613 41.5725 24.3425 41.3173 24.3425 40.9664C24.3425 40.8946 24.3583 40.8468 24.3583 40.775C24.3741 40.7033 24.3741 40.6395 24.39 40.5677C24.493 40.0972 24.6831 39.7543 24.992 39.531C25.2297 39.3396 25.4911 39.2199 25.7683 39.188L25.7604 39.1641Z" fill="#565656"/>
<path d="M92.2211 28.2068V27.7044L93.3777 22.0423C93.0687 22.4091 92.7915 22.7202 92.5142 22.9435C92.4113 23.0471 92.3241 23.1189 92.2211 23.2066V21.2129C92.5142 21.1093 92.7915 20.9498 93.045 20.7265C93.5123 20.3118 93.9243 19.4266 94.2649 18.0788C94.352 17.8556 94.3995 17.6083 94.4391 17.3133C94.4708 17.0341 94.4946 16.7391 94.4946 16.444C94.4946 15.8858 94.3916 15.3834 94.154 14.9368C93.9322 14.4902 93.4807 14.2589 92.8311 14.2589C92.6093 14.2589 92.4192 14.2749 92.2291 14.3466V11.5076C92.7994 11.5236 93.2985 11.699 93.7421 12.01C94.2094 12.337 94.5817 12.6879 94.8986 13.0866C94.9699 13.1584 95.0174 13.2222 95.057 13.294C95.1125 13.3658 95.16 13.4296 95.1917 13.5173L95.5719 12.0419H99.9128L96.467 28.2068H92.237H92.2211ZM92.2211 11.4997V14.3387C91.8964 14.4423 91.6033 14.6497 91.3577 14.9448C90.9933 15.4153 90.7002 15.9336 90.4943 16.5078C90.3913 16.7869 90.3042 17.066 90.2566 17.3372C90.1853 17.6004 90.1537 17.8396 90.122 18.0629V18.031C90.0903 18.1506 90.0507 18.2702 90.0348 18.3978C90.019 18.5334 90.0031 18.6371 89.9794 18.7408C89.9635 18.8763 89.9477 18.98 89.9477 19.1076C89.9319 19.2272 89.9319 19.3468 89.9319 19.4744C89.9319 19.9768 90.0348 20.4075 90.2408 20.7903C90.4467 21.1571 90.827 21.3485 91.3736 21.3485C91.6667 21.3485 91.9597 21.2927 92.2132 21.2129V23.2066C92.039 23.3262 91.8884 23.4459 91.7142 23.5336C91.3736 23.725 91.0092 23.8606 90.6289 23.9323C90.2646 24.0201 89.8526 24.052 89.3932 24.052C88.0149 24.052 87.0564 23.725 86.5177 23.079C86.0028 22.457 85.6781 21.7472 85.5513 20.9657C85.4959 20.6866 85.4642 20.4075 85.4483 20.1363C85.4325 19.8413 85.4325 19.5781 85.4325 19.3389V19.307C85.4483 18.9959 85.4879 18.6451 85.5196 18.3021C85.5751 17.9353 85.6226 17.5924 85.7097 17.2096C86.0345 15.822 86.6762 14.538 87.6346 13.3817C88.6011 12.2014 90.0824 11.5794 92.1102 11.5076C92.1419 11.5076 92.1815 11.5076 92.2132 11.5076L92.2211 11.4997ZM92.2211 27.7044V28.2068H92.1182L92.2211 27.7044ZM77.6616 17.8795C79.7608 17.8795 81.5827 17.3452 83.1194 16.2686C84.672 15.176 85.4404 13.4295 85.4404 10.9653C85.4404 9.49001 84.9414 8.48519 83.9433 7.95088C82.9452 7.41657 81.8599 7.10555 80.6717 7.01783C80.4658 7.00188 80.2757 7.00188 80.0697 6.98593C79.8637 6.98593 79.6736 6.96998 79.4677 6.95403H77.6616V10.4231H78.2161C78.9924 10.4231 79.5548 10.5826 79.8875 10.8696C80.2123 11.1807 80.3707 11.5316 80.3707 11.9462C80.3707 12.0499 80.3707 12.1376 80.3549 12.2254C80.339 12.329 80.3232 12.4168 80.2836 12.5045C80.1489 13.0228 79.8162 13.5093 79.3013 13.9639C78.834 14.3626 78.2874 14.5699 77.6695 14.5859V17.8954L77.6616 17.8795ZM77.6616 6.94605V10.4151L75.8713 10.3991L74.9604 14.5779H77.6616V17.8875L74.2395 17.8715L72.98 23.6771H68.6232V21.9626L71.7205 6.95403H77.6616V6.94605ZM68.6232 8.61278L68.9876 6.94605H68.6232V8.61278ZM49.2078 9.13114C49.3821 9.54583 49.4455 10.0323 49.4455 10.5905C49.4455 10.7819 49.4455 10.9893 49.4138 11.2126C49.398 11.4199 49.3583 11.6432 49.295 11.8745H49.2078V9.13912V9.13114ZM68.6232 6.94605H64.6467L61.9455 18.9401L59.0542 6.94605H52.3764L49.2078 22.457V23.6692H53.2715L55.7985 10.9494L58.864 23.6692H65.3834L68.6153 8.61278V6.94605H68.6232ZM68.6232 21.9546V23.6692H68.2826L68.6232 21.9546ZM32.1372 17.6721C32.1372 17.066 32.1926 16.3882 32.2718 15.6465C32.359 14.9049 32.5333 14.1553 32.7551 13.3976C33.2858 11.699 34.2839 10.12 35.7493 8.68456C37.2148 7.2491 39.4328 6.48352 42.443 6.43567C42.7836 6.43567 43.1638 6.43567 43.5599 6.46757C43.9559 6.48352 44.3679 6.52339 44.7798 6.58719C45.9363 6.76264 46.9978 7.14542 47.98 7.71163C48.5504 8.05455 48.9623 8.52506 49.1999 9.13114V11.8665L44.2411 11.8505C44.257 11.7628 44.257 11.691 44.2728 11.6113C44.2728 11.5236 44.2886 11.4518 44.2886 11.388C44.2886 10.8298 44.1144 10.431 43.8054 10.1758C43.4965 9.92065 43.148 9.72925 42.7915 9.64153C42.5855 9.58571 42.3954 9.56976 42.2053 9.55381C42.0152 9.53786 41.8409 9.52191 41.7063 9.52191C41.5716 9.52191 41.429 9.53786 41.2943 9.55381C41.1597 9.58571 41.0171 9.60963 40.8824 9.64153C40.1933 9.84887 39.5437 10.3832 38.8862 11.2205C38.2525 12.0659 37.7535 13.3179 37.3732 14.9767C37.3574 15.1122 37.3178 15.2558 37.3019 15.3913C37.2703 15.5269 37.2465 15.6705 37.2307 15.806C37.199 16.1011 37.1594 16.3802 37.1277 16.6514C37.1118 16.9305 37.096 17.2096 37.096 17.4648C37.096 18.35 37.2703 19.0916 37.6109 19.6977C37.9515 20.3198 38.609 20.6148 39.5596 20.6148H39.821C39.9081 20.6148 39.9952 20.6148 40.0982 20.5989C40.2329 20.5989 40.4071 20.5829 40.5656 20.5431C40.724 20.5112 40.8904 20.4394 41.0805 20.3676C41.5241 20.1603 41.9439 19.8652 42.3162 19.4505C42.6964 19.0518 42.9182 18.5813 42.9895 18.0629L47.8454 18.031C47.8612 18.0868 47.877 18.1187 47.877 18.1506C47.8929 18.2064 47.8929 18.2383 47.8929 18.2862C47.8929 18.5653 47.7899 18.9481 47.584 19.4266C47.3938 19.929 47.0691 20.4474 46.6334 20.9896C45.9759 21.7552 45.0649 22.465 43.8609 23.087C42.6568 23.725 41.1042 24.044 39.211 24.044H38.8149C36.2484 24.044 34.5294 23.5097 33.6502 22.449C32.7867 21.3724 32.2877 20.2001 32.1689 18.9162C32.153 18.7089 32.1372 18.5015 32.1372 18.3101C32.1213 18.1028 32.1213 17.8954 32.1213 17.6881V17.6721H32.1372ZM49.2078 22.457L48.9464 23.6692H49.2078V22.457Z" fill="#565656"/>
</g>
<defs>
<clipPath id="clip0_1741_16085">
<rect width="100" height="43" fill="white"/>
</clipPath>
</defs>
</svg>
