<svg width="20" height="20" viewBox="0 0 20 20" fill="none" xmlns="http://www.w3.org/2000/svg">
<path d="M13.125 10.9375C13.125 12.6634 11.7259 14.0625 10 14.0625C8.27408 14.0625 6.875 12.6634 6.875 10.9375C6.875 9.21158 8.27408 7.8125 10 7.8125C11.7259 7.8125 13.125 9.21158 13.125 10.9375Z" fill="#E6E6E6"/>
<path d="M7.1875 6.5625C7.1875 7.94327 6.06827 9.0625 4.6875 9.0625C3.30673 9.0625 2.1875 7.94327 2.1875 6.5625C2.1875 5.18173 3.30673 4.0625 4.6875 4.0625C6.06827 4.0625 7.1875 5.18173 7.1875 6.5625Z" fill="black" fill-opacity="0.1"/>
<path d="M17.8125 6.5625C17.8125 7.94327 16.6933 9.0625 15.3125 9.0625C13.9317 9.0625 12.8125 7.94327 12.8125 6.5625C12.8125 5.18173 13.9317 4.0625 15.3125 4.0625C16.6933 4.0625 17.8125 5.18173 17.8125 6.5625Z" fill="black" fill-opacity="0.1"/>
<path fill-rule="evenodd" clip-rule="evenodd" d="M10 7.1875C10 7.1875 11.5533 7.1875 12.6516 8.28585C12.6516 8.28585 13.75 9.3842 13.75 10.9375C13.75 10.9375 13.75 12.4908 12.6516 13.5892C12.6516 13.5892 11.5533 14.6875 10 14.6875C10 14.6875 8.4467 14.6875 7.34835 13.5892C7.34835 13.5892 6.25 12.4908 6.25 10.9375C6.25 10.9375 6.25 9.3842 7.34835 8.28585C7.34835 8.28585 8.4467 7.1875 10 7.1875ZM10 8.4375C10 8.4375 8.96447 8.4375 8.23223 9.16973C8.23223 9.16973 7.5 9.90197 7.5 10.9375C7.5 10.9375 7.5 11.973 8.23223 12.7053C8.23223 12.7053 8.96447 13.4375 10 13.4375C10 13.4375 11.0355 13.4375 11.7678 12.7053C11.7678 12.7053 12.5 11.973 12.5 10.9375C12.5 10.9375 12.5 9.90197 11.7678 9.16973C11.7678 9.16973 11.0355 8.4375 10 8.4375Z" fill="#1C1C1C"/>
<path d="M18.5617 11.3114L18.5619 11.3117C18.6612 11.4444 18.8091 11.5324 18.9731 11.5561C19.0028 11.5604 19.0326 11.5625 19.0626 11.5625L19.0637 11.5625C19.1982 11.5623 19.329 11.5186 19.4367 11.4381C19.5946 11.3201 19.6876 11.1346 19.6876 10.9375L19.6875 10.9303C19.686 10.7979 19.6425 10.6694 19.5632 10.5633L19.5627 10.5626C18.8114 9.5578 17.6892 8.9967 17.6892 8.9967C16.5666 8.4354 15.3115 8.4375 15.3115 8.4375L15.3126 8.4375C15.6577 8.4375 15.9376 8.71732 15.9376 9.0625C15.9376 9.40714 15.6586 9.68673 15.314 9.6875L18.5617 11.3114Z" fill="#1C1C1C"/>
<path d="M2.86987 10.1147C3.72754 9.68589 4.68645 9.6875 4.68645 9.6875L4.68733 9.6875H4.6875C4.69716 9.6875 4.70683 9.68728 4.71648 9.68683C4.87169 9.67962 5.01865 9.61486 5.1287 9.50518C5.24611 9.38817 5.31222 9.22931 5.3125 9.06355L5.3125 9.06268V9.0625C5.3125 9.0247 5.30907 8.98698 5.30226 8.9498C5.24792 8.65342 4.98986 8.438 4.68855 8.4375L4.6875 8.4375C3.43298 8.43563 2.31085 8.9967 2.31085 8.9967C1.18865 9.5578 0.437406 10.5626 0.437406 10.5626L0.436954 10.5632C0.35613 10.6714 0.3125 10.8026 0.3125 10.9375L0.312534 10.944C0.312825 10.9718 0.314962 10.9995 0.31893 11.0269C0.342647 11.191 0.430562 11.3389 0.563337 11.4381C0.671371 11.5189 0.802626 11.5625 0.9375 11.5625C0.945856 11.5625 0.954211 11.5623 0.962561 11.562C1.1507 11.5544 1.32541 11.4625 1.43813 11.3117C2.01219 10.5436 2.86987 10.1147 2.86987 10.1147Z" fill="#1C1C1C"/>
<path d="M12.3217 15.355C13.3867 16.0201 13.9378 17.1481 13.9378 17.1481L13.9382 17.1488L13.9384 17.1492C14.0432 17.3639 14.2611 17.5 14.5 17.5L14.5171 17.4998C14.6063 17.4973 14.694 17.4758 14.7742 17.4366C14.9889 17.3318 15.125 17.1139 15.125 16.875L15.1248 16.8579C15.1223 16.7687 15.1008 16.681 15.0616 16.6008L15.0614 16.6003C14.353 15.1498 12.9839 14.2947 12.9839 14.2947C11.6145 13.4395 10 13.4395 10 13.4395C8.38551 13.4395 7.01614 14.2947 7.01614 14.2947C5.64701 15.1498 4.93862 16.6003 4.93862 16.6003L4.9384 16.6007C4.89668 16.6862 4.875 16.78 4.875 16.875L4.87505 16.8831C4.87592 16.9495 4.88736 17.0154 4.90896 17.0782C4.96285 17.235 5.07681 17.3639 5.22576 17.4366C5.31117 17.4783 5.40496 17.5 5.5 17.5L5.51435 17.4998C5.74797 17.4945 5.95909 17.3592 6.06162 17.1492C6.61282 16.0204 7.6783 15.355 7.6783 15.355C8.74379 14.6895 10 14.6895 10 14.6895C11.2562 14.6895 12.3217 15.355 12.3217 15.355Z" fill="#1C1C1C"/>
<path d="M6.05158 5.27866C6.42465 5.67575 6.52681 6.21094 6.52681 6.21094C6.55789 6.37376 6.65238 6.51756 6.78949 6.61072C6.8931 6.68111 7.01547 6.71875 7.14073 6.71875L7.14478 6.71874C7.18275 6.71849 7.22062 6.71478 7.25791 6.70766C7.55258 6.65142 7.76573 6.39374 7.76573 6.09375L7.76572 6.09023C7.7655 6.05208 7.76179 6.01403 7.75464 5.97656C7.58438 5.08458 6.96259 4.42276 6.96259 4.42276C6.34081 3.76094 5.46118 3.53541 5.46118 3.53541C4.58154 3.30988 3.71803 3.59089 3.71803 3.59089C2.85452 3.8719 2.27608 4.57192 2.27608 4.57192C1.69764 5.27194 1.58444 6.17294 1.58444 6.17294C1.47124 7.07394 1.85853 7.8953 1.85853 7.8953C2.24583 8.71665 3.01299 9.20254 3.01299 9.20254C3.77988 9.68825 4.6876 9.6875 4.6876 9.6875L4.68824 9.6875C4.854 9.68733 5.0129 9.62132 5.12999 9.50399C5.24693 9.38682 5.3126 9.22804 5.3126 9.0625L5.3126 9.06187C5.31225 8.71694 5.03253 8.4375 4.6876 8.4375L4.68697 8.4375C4.14212 8.43805 3.68182 8.14652 3.68182 8.14652C3.22152 7.85499 2.98915 7.36218 2.98915 7.36218C2.75677 6.86937 2.82469 6.32877 2.82469 6.32877C2.89261 5.78816 3.23967 5.36815 3.23967 5.36815C3.58674 4.94814 4.10484 4.77954 4.10484 4.77954C4.62295 4.61093 5.15073 4.74625 5.15073 4.74625C5.67851 4.88156 6.05158 5.27866 6.05158 5.27866Z" fill="#1C1C1C"/>
<path d="M16.3183 8.14652C15.858 8.43805 15.3131 8.4375 15.3131 8.4375L15.3125 8.4375C15.3027 8.4375 15.2929 8.43773 15.2831 8.43819L14.6882 9.09189C14.6955 9.24709 14.7604 9.39401 14.8701 9.50399C14.9872 9.62132 15.1461 9.68733 15.3119 9.6875L15.3125 9.6875C16.2202 9.68825 16.9871 9.20254 16.9871 9.20254C17.7543 8.71665 18.1416 7.8953 18.1416 7.8953C18.5289 7.07394 18.4157 6.17294 18.4157 6.17294C18.3025 5.27194 17.724 4.57192 17.724 4.57192C17.1456 3.8719 16.2821 3.59089 16.2821 3.59089C15.4186 3.30988 14.5389 3.53541 14.5389 3.53541C13.6593 3.76094 13.0375 4.42276 13.0375 4.42276C12.4157 5.08458 12.2455 5.97656 12.2455 5.97656C12.2381 6.01519 12.2344 6.05443 12.2344 6.09375C12.2344 6.11253 12.2352 6.1313 12.2369 6.15001C12.262 6.42782 12.4682 6.65536 12.7422 6.70766C12.7808 6.71504 12.8201 6.71875 12.8594 6.71875C12.8782 6.71875 12.8969 6.7179 12.9156 6.71621C13.1934 6.6911 13.421 6.48494 13.4733 6.21094C13.5755 5.67575 13.9485 5.27866 13.9485 5.27866C14.3216 4.88156 14.8494 4.74625 14.8494 4.74625C15.3771 4.61093 15.8953 4.77954 15.8953 4.77954C16.4134 4.94814 16.7604 5.36815 16.7604 5.36815C17.1075 5.78816 17.1754 6.32877 17.1754 6.32877C17.2433 6.86937 17.011 7.36218 17.011 7.36218C16.7786 7.85499 16.3183 8.14652 16.3183 8.14652Z" fill="#1C1C1C"/>
</svg>