<svg width="20" height="20" viewBox="0 0 20 20" fill="none" xmlns="http://www.w3.org/2000/svg">
<path d="M3.75 6.875H16.25C16.5952 6.875 16.875 7.15483 16.875 7.5V16.25C16.875 16.5952 16.5952 16.875 16.25 16.875H3.75C3.40485 16.875 3.125 16.5952 3.125 16.25V7.5C3.125 7.15483 3.40485 6.875 3.75 6.875Z" fill="#E6E6E6"/>
<path fill-rule="evenodd" clip-rule="evenodd" d="M2.5 7.5C2.5 7.5 2.5 6.98223 2.86612 6.61612C2.86612 6.61612 3.23223 6.25 3.75 6.25H16.25C16.25 6.25 16.7678 6.25 17.1339 6.61612C17.1339 6.61612 17.5 6.98223 17.5 7.5V16.25C17.5 16.25 17.5 16.7678 17.1339 17.1339C17.1339 17.1339 16.7678 17.5 16.25 17.5H3.75C3.75 17.5 3.23223 17.5 2.86612 17.1339C2.86612 17.1339 2.5 16.7678 2.5 16.25V7.5ZM3.75 7.5V16.25L16.25 16.25V7.5H3.75Z" fill="#1C1C1C"/>
<path d="M12.1875 4.0625V6.875C12.1875 7.22018 12.4673 7.5 12.8125 7.5C13.1577 7.5 13.4375 7.22018 13.4375 6.875V4.0625C13.4375 2.63864 12.4307 1.63182 12.4307 1.63182C11.4239 0.625 10 0.625 10 0.625C8.57614 0.625 7.56932 1.63182 7.56932 1.63182C6.5625 2.63864 6.5625 4.0625 6.5625 4.0625L6.5625 6.875C6.5625 7.22018 6.84232 7.5 7.1875 7.5C7.53268 7.5 7.8125 7.22018 7.8125 6.875V4.0625C7.8125 3.15641 8.4532 2.5157 8.4532 2.5157C9.09391 1.875 10 1.875 10 1.875C10.9061 1.875 11.5468 2.5157 11.5468 2.5157C12.1875 3.15641 12.1875 4.0625 12.1875 4.0625Z" fill="#1C1C1C"/>
</svg>
