<svg width="20" height="20" viewBox="0 0 20 20" fill="none" xmlns="http://www.w3.org/2000/svg">
<path d="M2.8125 8.66406V12.9297C2.81303 13.0624 2.85698 13.1913 2.93747 13.2969C3.46092 14.0001 5.6797 16.5625 10 16.5625C14.3203 16.5625 16.5391 14.0001 17.0625 13.2969C17.143 13.1913 17.187 13.0624 17.1875 12.9297V8.66406L10 12.5L2.8125 8.66406Z" fill="black" fill-opacity="0.1"/>
<path fill-rule="evenodd" clip-rule="evenodd" d="M9.70588 13.0515L0.330883 8.05147C0.184624 7.97347 0.075343 7.84055 0.0270799 7.68198C-0.0211833 7.5234 -0.00447452 7.35214 0.0735304 7.20588C0.131885 7.09647 0.221468 7.00688 0.330883 6.94853L9.70588 1.94853C9.88971 1.85049 10.1103 1.85049 10.2941 1.94853L19.6691 6.94853C19.8154 7.02653 19.9247 7.15945 19.9729 7.31802C20.0212 7.4766 20.0045 7.64786 19.9265 7.79412C19.8681 7.90353 19.7785 7.99312 19.6691 8.05147L10.2941 13.0515C10.1103 13.1495 9.88971 13.1495 9.70588 13.0515ZM1.95313 7.5L10 11.7917L18.0469 7.5L10 3.20833L1.95313 7.5Z" fill="#1C1C1C"/>
<path d="M14.9816 9.44853L10.2941 6.94853C10.2036 6.90025 10.1026 6.875 10 6.875C9.98144 6.875 9.96289 6.87583 9.94441 6.87748C9.73428 6.89624 9.5478 7.01974 9.44853 7.20588C9.40025 7.2964 9.375 7.39741 9.375 7.5C9.375 7.51856 9.37583 7.53711 9.37748 7.55559C9.39624 7.76572 9.51974 7.9522 9.70588 8.05147L14.0625 10.375V18.75C14.0625 19.0952 14.3423 19.375 14.6875 19.375C15.0327 19.375 15.3125 19.0952 15.3125 18.75V10C15.3125 9.76918 15.1853 9.55715 14.9816 9.44853Z" fill="#1C1C1C"/>
<path d="M3.4375 12.9219V8.66406C3.4375 8.31888 3.15768 8.03906 2.8125 8.03906C2.46732 8.03906 2.1875 8.31888 2.1875 8.66406V12.9297C2.18926 13.3467 2.44071 13.6761 2.44071 13.6761C3.30725 14.8402 4.71255 15.7227 4.71255 15.7227C7.04531 17.1875 10 17.1875 10 17.1875C12.9547 17.1875 15.2874 15.7227 15.2874 15.7227C16.6928 14.8402 17.5638 13.6701 17.5638 13.6701C17.8107 13.3467 17.8125 12.9323 17.8125 12.9323L17.8125 8.66406C17.8125 8.31888 17.5327 8.03906 17.1875 8.03906C16.8423 8.03906 16.5625 8.31888 16.5625 8.66406L16.5625 12.9267C16.5625 12.9233 16.5618 12.9232 16.5618 12.9232L16.5612 12.9237C15.8298 13.9061 14.6227 14.6641 14.6227 14.6641C12.5948 15.9375 10 15.9375 10 15.9375C7.40523 15.9375 5.37729 14.6641 5.37729 14.6641C4.17281 13.9077 3.4375 12.9219 3.4375 12.9219Z" fill="#1C1C1C"/>
</svg>