<svg width="16" height="16" viewBox="0 0 16 16" fill="none" xmlns="http://www.w3.org/2000/svg">
<path d="M2.5 5H5.5V3C5.5 2.86743 5.44733 2.74023 5.35358 2.64648C5.25977 2.55273 5.13263 2.5 5 2.5H3C2.86737 2.5 2.74023 2.55273 2.64642 2.64648C2.55267 2.74023 2.5 2.86743 2.5 3V5Z" fill="black" fill-opacity="0.1"/>
<path d="M5.5 11H8.5V3C8.5 2.86743 8.44733 2.74023 8.35358 2.64648C8.25977 2.55273 8.13263 2.5 8 2.5H6C5.86737 2.5 5.74023 2.55273 5.64642 2.64648C5.55267 2.74023 5.5 2.86743 5.5 3V11Z" fill="black" fill-opacity="0.1"/>
<path d="M10.7 11.2L13.6 10.4187L14.1187 12.35C14.1357 12.4136 14.1399 12.4799 14.1312 12.5452C14.1224 12.6104 14.1009 12.6733 14.0678 12.7302C14.0347 12.7871 13.9907 12.8369 13.9383 12.8768C13.8859 12.9166 13.8261 12.9458 13.7625 12.9624L11.8312 13.4812C11.7036 13.5157 11.5675 13.4982 11.4527 13.4326C11.3379 13.3671 11.2538 13.2587 11.2187 13.1312L10.7 11.2Z" fill="black" fill-opacity="0.1"/>
<path d="M9.15002 5.40002L12.05 4.625L11.5312 2.69385C11.4961 2.56604 11.4122 2.45728 11.2977 2.39062C11.1832 2.3241 11.0472 2.30505 10.9188 2.33752L8.98749 2.85632C8.8598 2.89148 8.75098 2.97534 8.68439 3.08984C8.61774 3.20435 8.59869 3.34045 8.63123 3.46875L9.15002 5.40002Z" fill="black" fill-opacity="0.1"/>
<path fill-rule="evenodd" clip-rule="evenodd" d="M2 3C2 3 2 2.58579 2.29289 2.29289C2.29289 2.29289 2.58579 2 3 2H5C5 2 5.41421 2 5.70711 2.29289C5.70711 2.29289 6 2.58579 6 3V13C6 13 6 13.4142 5.70711 13.7071C5.70711 13.7071 5.41421 14 5 14H3C3 14 2.58579 14 2.29289 13.7071C2.29289 13.7071 2 13.4142 2 13V3ZM3 3V13H5V3H3Z" fill="#1C1C1C"/>
<path d="M2.5 5.5H5.5C5.77614 5.5 6 5.27614 6 5C6 4.72386 5.77614 4.5 5.5 4.5H2.5C2.22386 4.5 2 4.72386 2 5C2 5.27614 2.22386 5.5 2.5 5.5Z" fill="#1C1C1C"/>
<path fill-rule="evenodd" clip-rule="evenodd" d="M5 3C5 3 5 2.58579 5.29289 2.29289C5.29289 2.29289 5.58579 2 6 2H8C8 2 8.41421 2 8.70711 2.29289C8.70711 2.29289 9 2.58579 9 3V13C9 13 9 13.4142 8.70711 13.7071C8.70711 13.7071 8.41421 14 8 14H6C6 14 5.58579 14 5.29289 13.7071C5.29289 13.7071 5 13.4142 5 13V3ZM6 3V13H8V3H6Z" fill="#1C1C1C"/>
<path d="M5.5 11.5H8.5C8.77614 11.5 9 11.2761 9 11C9 10.7239 8.77614 10.5 8.5 10.5H5.5C5.22386 10.5 5 10.7239 5 11C5 11.2761 5.22386 11.5 5.5 11.5Z" fill="#1C1C1C"/>
<path fill-rule="evenodd" clip-rule="evenodd" d="M8.14676 3.59935C8.14676 3.59935 8.03955 3.19925 8.24666 2.84053C8.24666 2.84053 8.45377 2.48181 8.85387 2.3746L10.7857 1.85697C10.7857 1.85697 11.1858 1.74976 11.5445 1.95687C11.5445 1.95687 11.9033 2.16397 12.0105 2.56407L14.5987 12.2233C14.5987 12.2233 14.7059 12.6234 14.4988 12.9822C14.4988 12.9822 14.2916 13.3409 13.8915 13.4481L11.9597 13.9657C11.9597 13.9657 11.5596 14.0729 11.2009 13.8658C11.2009 13.8658 10.8422 13.6587 10.7349 13.2586L8.14676 3.59935ZM9.11268 3.34053L11.7009 12.9998L13.6327 12.4821L11.0445 2.82289L9.11268 3.34053Z" fill="#1C1C1C"/>
<path d="M10.83 11.6827L13.73 10.9015C13.8581 10.867 13.9672 10.783 14.0333 10.6681C14.077 10.5922 14.1 10.5062 14.1 10.4187L14.0999 10.409C14.0991 10.3683 14.0933 10.3279 14.0827 10.2886C14.0239 10.0704 13.826 9.9187 13.6 9.9187L13.5957 9.91872C13.5532 9.91908 13.5109 9.92486 13.4699 9.93591L10.5699 10.7172C10.3516 10.776 10.2 10.9739 10.2 11.2L10.2 11.2042C10.2003 11.2467 10.2061 11.289 10.2172 11.33C10.276 11.5483 10.4739 11.7 10.7 11.7L10.7042 11.6999C10.7467 11.6996 10.789 11.6938 10.83 11.6827Z" fill="#1C1C1C"/>
<path d="M9.27899 5.88305L12.179 5.10805C12.3071 5.07381 12.4164 4.99008 12.4828 4.87529C12.5267 4.79921 12.5499 4.71288 12.5499 4.625L12.5498 4.61633C12.5491 4.57565 12.5435 4.53521 12.533 4.49591C12.4745 4.27716 12.2763 4.125 12.0499 4.125L12.0466 4.12501C12.0041 4.12529 11.9619 4.13098 11.9208 4.14195L9.02081 4.91695C8.80206 4.97541 8.6499 5.17357 8.6499 5.4L8.64991 5.40329C8.65019 5.44577 8.65589 5.48805 8.66685 5.52909C8.72531 5.74784 8.92348 5.9 9.1499 5.9L9.15319 5.89999C9.19567 5.89971 9.23795 5.89402 9.27899 5.88305Z" fill="#1C1C1C"/>
</svg>
