<svg width="20" height="20" viewBox="0 0 20 20" fill="none" xmlns="http://www.w3.org/2000/svg">
<path d="M16.875 10C16.875 13.797 13.797 16.875 10 16.875C6.203 16.875 3.125 13.797 3.125 10C3.125 6.203 6.203 3.125 10 3.125C13.797 3.125 16.875 6.203 16.875 10Z" fill="black" fill-opacity="0.1"/>
<path fill-rule="evenodd" clip-rule="evenodd" d="M10 2.5C10 2.5 11.5255 2.5 12.9195 3.08964C12.9195 3.08964 14.2656 3.65897 15.3033 4.6967C15.3033 4.6967 16.341 5.73443 16.9104 7.08047C16.9104 7.08047 17.5 8.47454 17.5 10C17.5 10 17.5 11.5255 16.9104 12.9195C16.9104 12.9195 16.341 14.2656 15.3033 15.3033C15.3033 15.3033 14.2656 16.341 12.9195 16.9104C12.9195 16.9104 11.5255 17.5 10 17.5C10 17.5 8.47455 17.5 7.08047 16.9104C7.08047 16.9104 5.73442 16.341 4.6967 15.3033C4.6967 15.3033 3.65897 14.2656 3.08964 12.9195C3.08964 12.9195 2.5 11.5255 2.5 10C2.5 10 2.5 8.47454 3.08964 7.08047C3.08964 7.08047 3.65897 5.73443 4.6967 4.6967C4.6967 4.6967 5.73443 3.65897 7.08047 3.08964C7.08047 3.08964 8.47454 2.5 10 2.5ZM10 3.75C10 3.75 8.72803 3.75 7.56741 4.2409C7.56741 4.2409 6.44591 4.71525 5.58058 5.58058C5.58058 5.58058 4.71525 6.44591 4.2409 7.56741C4.2409 7.56741 3.75 8.72802 3.75 10C3.75 10 3.75 11.272 4.2409 12.4326C4.2409 12.4326 4.71525 13.5541 5.58058 14.4194C5.58058 14.4194 6.44591 15.2847 7.56741 15.7591C7.56741 15.7591 8.72803 16.25 10 16.25C10 16.25 11.272 16.25 12.4326 15.7591C12.4326 15.7591 13.5541 15.2847 14.4194 14.4194C14.4194 14.4194 15.2847 13.5541 15.7591 12.4326C15.7591 12.4326 16.25 11.272 16.25 10C16.25 10 16.25 8.72803 15.7591 7.56741C15.7591 7.56741 15.2847 6.44591 14.4194 5.58058C14.4194 5.58058 13.5541 4.71525 12.4326 4.2409C12.4326 4.2409 11.272 3.75 10 3.75Z" fill="#1C1C1C"/>
<path d="M13.5355 7.34839L13.5357 7.34819C13.6529 7.23098 13.7188 7.07201 13.7188 6.90625C13.7188 6.74049 13.6529 6.58152 13.5357 6.46431C13.4185 6.3471 13.2595 6.28125 13.0938 6.28125C13.075 6.28125 13.0563 6.28209 13.0376 6.28378C12.8918 6.29693 12.7553 6.36082 12.6518 6.46431L12.6516 6.4645L9.55833 9.55779L9.55806 9.55806C9.44085 9.67527 9.375 9.83424 9.375 10C9.375 10.1658 9.44085 10.3247 9.55806 10.4419C9.67527 10.5592 9.83424 10.625 10 10.625C10.1658 10.625 10.3247 10.5592 10.4419 10.4419L10.4422 10.4417L13.5355 7.34839Z" fill="#1C1C1C"/>
<path d="M8.125 1.25H11.875C12.2202 1.25 12.5 0.970178 12.5 0.625C12.5 0.279822 12.2202 0 11.875 0H8.125C7.77982 0 7.5 0.279822 7.5 0.625C7.5 0.970178 7.77982 1.25 8.125 1.25Z" fill="#1C1C1C"/>
</svg>
