<svg width="20" height="21" viewBox="0 0 20 21" fill="none" xmlns="http://www.w3.org/2000/svg">
<path d="M10.625 12.9725H3.125C2.77982 12.9725 2.5 13.2524 2.5 13.5975C2.5 13.9427 2.77982 14.2225 3.125 14.2225H10.625C10.9702 14.2225 11.25 13.9427 11.25 13.5975C11.25 13.2524 10.9702 12.9725 10.625 12.9725Z" fill="#1C1C1C"/>
<path d="M16.875 12.9725H13.125C12.7798 12.9725 12.5 13.2524 12.5 13.5975C12.5 13.9427 12.7798 14.2225 13.125 14.2225H16.875C17.2202 14.2225 17.5 13.9427 17.5 13.5975C17.5 13.2524 17.2202 12.9725 16.875 12.9725Z" fill="#1C1C1C"/>
<path d="M5.625 6.09753H3.125C2.77982 6.09753 2.5 6.37736 2.5 6.72253C2.5 7.06771 2.77982 7.34753 3.125 7.34753H5.625C5.97018 7.34753 6.25 7.06771 6.25 6.72253C6.25 6.37736 5.97018 6.09753 5.625 6.09753Z" fill="#1C1C1C"/>
<path d="M16.875 6.09753H8.125C7.77982 6.09753 7.5 6.37736 7.5 6.72253C7.5 7.06771 7.77982 7.34753 8.125 7.34753H16.875C17.2202 7.34753 17.5 7.06771 17.5 6.72253C17.5 6.37736 17.2202 6.09753 16.875 6.09753Z" fill="#1C1C1C"/>
<path d="M7.5 4.84753V8.59753C7.5 8.94271 7.77982 9.22253 8.125 9.22253C8.47018 9.22253 8.75 8.94271 8.75 8.59753V4.84753C8.75 4.50236 8.47018 4.22253 8.125 4.22253C7.77982 4.22253 7.5 4.50236 7.5 4.84753Z" fill="#1C1C1C"/>
<path d="M13.75 15.4725V11.7225C13.75 11.3774 13.4702 11.0975 13.125 11.0975C12.7798 11.0975 12.5 11.3774 12.5 11.7225V15.4725C12.5 15.8177 12.7798 16.0975 13.125 16.0975C13.4702 16.0975 13.75 15.8177 13.75 15.4725Z" fill="#1C1C1C"/>
</svg>
