<svg width="20" height="20" viewBox="0 0 20 20" fill="none" xmlns="http://www.w3.org/2000/svg">
<path d="M11.875 2.5V6.875H16.25L11.875 2.5Z" fill="#E6E6E6"/>
<path fill-rule="evenodd" clip-rule="evenodd" d="M16.5089 17.7589C16.5089 17.7589 16.1428 18.125 15.625 18.125H4.375C4.375 18.125 3.85723 18.125 3.49112 17.7589C3.49112 17.7589 3.125 17.3928 3.125 16.875V3.125C3.125 3.125 3.125 2.60723 3.49112 2.24112C3.49112 2.24112 3.85723 1.875 4.375 1.875H11.875C12.0408 1.875 12.1997 1.94085 12.3169 2.05806L16.6919 6.43306C16.8092 6.55027 16.875 6.70924 16.875 6.875V16.875C16.875 16.875 16.875 17.3928 16.5089 17.7589ZM15.625 16.875V7.13388L11.6161 3.125H4.375V16.875H15.625Z" fill="#1C1C1C"/>
<path d="M11.875 7.5H16.25C16.5952 7.5 16.875 7.22018 16.875 6.875C16.875 6.52982 16.5952 6.25 16.25 6.25H12.5V2.5C12.5 2.15482 12.2202 1.875 11.875 1.875C11.5298 1.875 11.25 2.15482 11.25 2.5V6.875C11.25 7.22018 11.5298 7.5 11.875 7.5Z" fill="#1C1C1C"/>
<path d="M7.5 11.25H12.5C12.8452 11.25 13.125 10.9702 13.125 10.625C13.125 10.2798 12.8452 10 12.5 10H7.5C7.15482 10 6.875 10.2798 6.875 10.625C6.875 10.9702 7.15482 11.25 7.5 11.25Z" fill="#1C1C1C"/>
<path d="M7.5 13.75H12.5C12.8452 13.75 13.125 13.4702 13.125 13.125C13.125 12.7798 12.8452 12.5 12.5 12.5H7.5C7.15482 12.5 6.875 12.7798 6.875 13.125C6.875 13.4702 7.15482 13.75 7.5 13.75Z" fill="#1C1C1C"/>
</svg>