<svg width="20" height="20" viewBox="0 0 20 20" fill="none" xmlns="http://www.w3.org/2000/svg">
<path d="M16.0113 10.625H18.125C18.4702 10.625 18.75 10.3452 18.75 10C18.75 9.65482 18.4702 9.375 18.125 9.375H15.625C15.3883 9.375 15.1719 9.50875 15.066 9.72049L12.5774 14.6976L8.08405 2.9025C8.02504 2.7476 7.90692 2.62249 7.75566 2.55468C7.6044 2.48688 7.4324 2.48194 7.2775 2.54095C7.12366 2.59955 6.99915 2.7165 6.93102 2.86637L3.97255 9.375H1.875C1.52982 9.375 1.25 9.65482 1.25 10C1.25 10.3452 1.52982 10.625 1.875 10.625H4.375C4.62009 10.625 4.84256 10.4817 4.94398 10.2586L7.44917 4.74721L11.9159 16.4725C11.9717 16.6189 12.0804 16.739 12.2205 16.809C12.3688 16.8831 12.5404 16.8953 12.6976 16.8429C12.8549 16.7905 12.9849 16.6778 13.059 16.5295L16.0113 10.625Z" fill="#1C1C1C"/>
</svg>
