<svg width="16" height="16" viewBox="0 0 16 16" fill="none" xmlns="http://www.w3.org/2000/svg">
<path d="M13.5 8C13.5 11.0376 11.0376 13.5 8 13.5C4.9624 13.5 2.5 11.0376 2.5 8C2.5 4.9624 4.9624 2.5 8 2.5C11.0376 2.5 13.5 4.9624 13.5 8Z" fill="black" fill-opacity="0.1"/>
<path fill-rule="evenodd" clip-rule="evenodd" d="M8 2C8 2 9.22036 2 10.3356 2.47172C10.3356 2.47172 11.4125 2.92718 12.2426 3.75736C12.2426 3.75736 13.0728 4.58754 13.5283 5.66438C13.5283 5.66438 14 6.77964 14 8C14 8 14 9.22036 13.5283 10.3356C13.5283 10.3356 13.0728 11.4125 12.2426 12.2426C12.2426 12.2426 11.4125 13.0728 10.3356 13.5283C10.3356 13.5283 9.22037 14 8 14C8 14 6.77964 14 5.66438 13.5283C5.66438 13.5283 4.58754 13.0728 3.75736 12.2426C3.75736 12.2426 2.92718 11.4125 2.47171 10.3356C2.47171 10.3356 2 9.22037 2 8C2 8 2 6.77963 2.47172 5.66438C2.47172 5.66438 2.92718 4.58754 3.75736 3.75736C3.75736 3.75736 4.58754 2.92718 5.66438 2.47171C5.66438 2.47171 6.77963 2 8 2ZM8 3C8 3 6.98242 3 6.05393 3.39272C6.05393 3.39272 5.15673 3.7722 4.46447 4.46447C4.46447 4.46447 3.7722 5.15673 3.39272 6.05393C3.39272 6.05393 3 6.98242 3 8C3 8 3 9.01758 3.39272 9.94607C3.39272 9.94607 3.7722 10.8433 4.46447 11.5355C4.46447 11.5355 5.15673 12.2278 6.05393 12.6073C6.05393 12.6073 6.98242 13 8 13C8 13 9.01758 13 9.94607 12.6073C9.94607 12.6073 10.8433 12.2278 11.5355 11.5355C11.5355 11.5355 12.2278 10.8433 12.6073 9.94607C12.6073 9.94607 13 9.01758 13 8C13 8 13 6.98242 12.6073 6.05393C12.6073 6.05393 12.2278 5.15673 11.5355 4.46447C11.5355 4.46447 10.8433 3.7722 9.94607 3.39272C9.94607 3.39272 9.01758 3 8 3Z" fill="#1C1C1C"/>
<path d="M10.8284 5.87873L10.8286 5.87858C10.9223 5.78481 10.975 5.65763 10.975 5.52502C10.975 5.39242 10.9223 5.26524 10.8286 5.17147C10.7348 5.0777 10.6076 5.02502 10.475 5.02502C10.46 5.02502 10.445 5.0257 10.4301 5.02705C10.3135 5.03757 10.2042 5.08868 10.1214 5.17147L10.1213 5.17163L7.64666 7.64626L7.64645 7.64647C7.55268 7.74024 7.5 7.86742 7.5 8.00002C7.5 8.13263 7.55268 8.25981 7.64645 8.35358C7.74021 8.44735 7.86739 8.50002 8 8.50002C8.13261 8.50002 8.25979 8.44735 8.35355 8.35358L8.35377 8.35336L10.8284 5.87873Z" fill="#1C1C1C"/>
<path d="M6.5 1H9.5C9.77614 1 10 0.776142 10 0.5C10 0.223858 9.77614 0 9.5 0H6.5C6.22386 0 6 0.223858 6 0.5C6 0.776142 6.22386 1 6.5 1Z" fill="#1C1C1C"/>
</svg>