<svg width="16" height="16" viewBox="0 0 16 16" fill="none" xmlns="http://www.w3.org/2000/svg">
<path d="M11 6C11 7.65686 9.65686 9 8 9C6.34314 9 5 7.65686 5 6C5 4.34314 6.34314 3 8 3C9.65686 3 11 4.34314 11 6Z" fill="black" fill-opacity="0.1"/>
<path fill-rule="evenodd" clip-rule="evenodd" d="M8 0.5C8 0.5 9.11864 0.5 10.141 0.932423C10.141 0.932423 11.1281 1.34993 11.8891 2.11091C11.8891 2.11091 12.6501 2.87189 13.0676 3.859C13.0676 3.859 13.5 4.88136 13.5 6C13.5 6 13.5 7.11864 13.0676 8.141C13.0676 8.141 12.6501 9.12811 11.8891 9.88909C11.8891 9.88909 11.1281 10.6501 10.141 11.0676C10.141 11.0676 9.11864 11.5 8 11.5C8 11.5 6.88136 11.5 5.859 11.0676C5.859 11.0676 4.87189 10.6501 4.11091 9.88909C4.11091 9.88909 3.34993 9.12811 2.93242 8.141C2.93242 8.141 2.5 7.11864 2.5 6C2.5 6 2.5 4.88136 2.93242 3.859C2.93242 3.859 3.34993 2.87189 4.11091 2.11091C4.11091 2.11091 4.87189 1.34993 5.859 0.932423C5.859 0.932423 6.88136 0.5 8 0.5ZM8 1.5C8 1.5 7.08415 1.5 6.24855 1.85343C6.24855 1.85343 5.44108 2.19496 4.81802 2.81802C4.81802 2.81802 4.19496 3.44108 3.85343 4.24855C3.85343 4.24855 3.5 5.08415 3.5 6C3.5 6 3.5 6.91585 3.85343 7.75145C3.85343 7.75145 4.19496 8.55892 4.81802 9.18198C4.81802 9.18198 5.44108 9.80504 6.24855 10.1466C6.24855 10.1466 7.08415 10.5 8 10.5C8 10.5 8.91585 10.5 9.75145 10.1466C9.75145 10.1466 10.5589 9.80504 11.182 9.18198C11.182 9.18198 11.805 8.55891 12.1466 7.75145C12.1466 7.75145 12.5 6.91585 12.5 6C12.5 6 12.5 5.08415 12.1466 4.24855C12.1466 4.24855 11.805 3.44108 11.182 2.81802C11.182 2.81802 10.5589 2.19496 9.75145 1.85343C9.75145 1.85343 8.91585 1.5 8 1.5Z" fill="#1C1C1C"/>
<path fill-rule="evenodd" clip-rule="evenodd" d="M8 2.5C8 2.5 9.44975 2.5 10.4749 3.52513C10.4749 3.52513 11.5 4.55025 11.5 6C11.5 6 11.5 7.44975 10.4749 8.47487C10.4749 8.47487 9.44975 9.5 8 9.5C8 9.5 6.55025 9.5 5.52513 8.47487C5.52513 8.47487 4.5 7.44975 4.5 6C4.5 6 4.5 4.55025 5.52513 3.52513C5.52513 3.52513 6.55025 2.5 8 2.5ZM8 3.5C8 3.5 6.96447 3.5 6.23223 4.23223C6.23223 4.23223 5.5 4.96447 5.5 6C5.5 6 5.5 7.03553 6.23223 7.76777C6.23223 7.76777 6.96447 8.5 8 8.5C8 8.5 9.03553 8.5 9.76777 7.76777C9.76777 7.76777 10.5 7.03553 10.5 6C10.5 6 10.5 4.96447 9.76777 4.23223C9.76777 4.23223 9.03553 3.5 8 3.5Z" fill="#1C1C1C"/>
<path d="M5.5 14.191V10C5.5 9.72386 5.27614 9.5 5 9.5C4.72386 9.5 4.5 9.72386 4.5 10V15C4.5 15.2761 4.72386 15.5 5 15.5C5.07762 15.5 5.15418 15.4819 5.22361 15.4472L8 14.059L10.7764 15.4472C11.0234 15.5707 11.3237 15.4706 11.4472 15.2236C11.4819 15.1542 11.5 15.0776 11.5 15V10C11.5 9.72386 11.2761 9.5 11 9.5C10.7239 9.5 10.5 9.72386 10.5 10V14.191L8.22361 13.0528C8.08284 12.9824 7.91716 12.9824 7.77639 13.0528L5.5 14.191Z" fill="#1C1C1C"/>
</svg>