<svg width="16" height="16" viewBox="0 0 16 16" fill="none" xmlns="http://www.w3.org/2000/svg">
<path d="M10.5 8.75C10.5 10.1307 9.38074 11.25 8 11.25C6.61926 11.25 5.5 10.1307 5.5 8.75C5.5 7.36926 6.61926 6.25 8 6.25C9.38074 6.25 10.5 7.36926 10.5 8.75Z" fill="black" fill-opacity="0.1"/>
<path d="M5.75 5.25C5.75 6.35461 4.85461 7.25 3.75 7.25C2.64539 7.25 1.75 6.35461 1.75 5.25C1.75 4.14539 2.64539 3.25 3.75 3.25C4.85461 3.25 5.75 4.14539 5.75 5.25Z" fill="black" fill-opacity="0.1"/>
<path d="M14.25 5.25C14.25 6.35461 13.3546 7.25 12.25 7.25C11.1454 7.25 10.25 6.35461 10.25 5.25C10.25 4.14539 11.1454 3.25 12.25 3.25C13.3546 3.25 14.25 4.14539 14.25 5.25Z" fill="black" fill-opacity="0.1"/>
<path fill-rule="evenodd" clip-rule="evenodd" d="M8 5.75C8 5.75 9.24264 5.75 10.1213 6.62868C10.1213 6.62868 11 7.50736 11 8.75C11 8.75 11 9.99264 10.1213 10.8713C10.1213 10.8713 9.24264 11.75 8 11.75C8 11.75 6.75736 11.75 5.87868 10.8713C5.87868 10.8713 5 9.99264 5 8.75C5 8.75 5 7.50736 5.87868 6.62868C5.87868 6.62868 6.75736 5.75 8 5.75ZM8 6.75C8 6.75 7.17157 6.75 6.58579 7.33579C6.58579 7.33579 6 7.92157 6 8.75C6 8.75 6 9.57843 6.58579 10.1642C6.58579 10.1642 7.17157 10.75 8 10.75C8 10.75 8.82843 10.75 9.41421 10.1642C9.41421 10.1642 10 9.57843 10 8.75C10 8.75 10 7.92157 9.41421 7.33579C9.41421 7.33579 8.82843 6.75 8 6.75Z" fill="#1C1C1C"/>
<path d="M14.8494 9.04912L14.8496 9.04934C14.929 9.15556 15.0473 9.22589 15.1786 9.24486C15.2023 9.24829 15.2262 9.25001 15.2501 9.25001L15.251 9.25001C15.3586 9.24982 15.4632 9.21492 15.5494 9.15051C15.6757 9.05611 15.7501 8.90768 15.7501 8.75001L15.7501 8.74428C15.7489 8.63834 15.714 8.53553 15.6506 8.45067L15.6502 8.45011C15.0492 7.64625 14.1514 7.19737 14.1514 7.19737C13.2533 6.74833 12.2493 6.75001 12.2493 6.75001L12.2501 6.75001C12.5262 6.75001 12.7501 6.97386 12.7501 7.25001C12.7501 7.52572 12.5269 7.74939 12.2512 7.75L14.8494 9.04912Z" fill="#1C1C1C"/>
<path d="M2.29589 8.09179C2.98204 7.74872 3.74916 7.75 3.74916 7.75L3.74986 7.75001H3.75C3.75773 7.75001 3.76546 7.74983 3.77318 7.74947C3.89735 7.7437 4.01492 7.6919 4.10296 7.60415C4.19689 7.51054 4.24978 7.38345 4.25 7.25084L4.25 7.25015V7.25001C4.25 7.21977 4.24726 7.18959 4.2418 7.15985C4.19834 6.92274 3.99189 6.75041 3.75084 6.75001L3.75 6.75C2.74638 6.74851 1.84868 7.19737 1.84868 7.19737C0.950921 7.64624 0.349925 8.45011 0.349925 8.45011L0.349564 8.45059C0.284904 8.5371 0.25 8.64211 0.25 8.75001L0.250027 8.75524C0.25026 8.77743 0.251969 8.79958 0.255144 8.82154C0.274117 8.95279 0.34445 9.07112 0.45067 9.15051C0.537097 9.2151 0.642101 9.25001 0.75 9.25001C0.756684 9.25001 0.763369 9.24987 0.770049 9.2496C0.920559 9.24356 1.06032 9.16999 1.1505 9.04934C1.60975 8.43486 2.29589 8.09179 2.29589 8.09179Z" fill="#1C1C1C"/>
<path d="M9.85726 12.2839C10.7092 12.8161 11.1502 13.7185 11.1502 13.7185L11.1505 13.7191L11.1506 13.7194C11.2344 13.8911 11.4088 14 11.5999 14L11.6136 13.9998C11.685 13.9978 11.7551 13.9806 11.8193 13.9493C11.991 13.8654 12.0999 13.6911 12.0999 13.5L12.0997 13.4863C12.0978 13.4149 12.0805 13.3448 12.0492 13.2806L12.049 13.2802C11.4823 12.1199 10.387 11.4358 10.387 11.4358C9.2915 10.7516 7.9999 10.7516 7.9999 10.7516C6.70831 10.7516 5.61282 11.4358 5.61282 11.4358C4.51751 12.1199 3.9508 13.2802 3.9508 13.2802L3.95063 13.2806C3.91724 13.3489 3.8999 13.424 3.8999 13.5L3.89994 13.5065C3.90064 13.5596 3.90979 13.6123 3.92707 13.6626C3.97019 13.788 4.06135 13.8911 4.18051 13.9493C4.24884 13.9826 4.32387 14 4.3999 14L4.41138 13.9999C4.59828 13.9956 4.76717 13.8874 4.8492 13.7194C5.29016 12.8163 6.14254 12.2839 6.14254 12.2839C6.99493 11.7516 7.9999 11.7516 7.9999 11.7516C9.00487 11.7516 9.85726 12.2839 9.85726 12.2839Z" fill="#1C1C1C"/>
<path d="M4.84127 4.22291C5.13972 4.54059 5.22145 4.96874 5.22145 4.96874C5.24631 5.09899 5.3219 5.21404 5.43159 5.28856C5.51448 5.34488 5.61237 5.37499 5.71258 5.37499L5.71582 5.37498C5.7462 5.37478 5.77649 5.37182 5.80633 5.36612C6.04207 5.32112 6.21258 5.11498 6.21258 4.87499L6.21257 4.87217C6.2124 4.84165 6.20944 4.81121 6.20371 4.78124C6.0675 4.06765 5.57007 3.5382 5.57007 3.5382C5.07265 3.00874 4.36894 2.82832 4.36894 2.82832C3.66524 2.64789 2.97442 2.8727 2.97442 2.8727C2.28361 3.09751 1.82086 3.65752 1.82086 3.65752C1.35811 4.21754 1.26755 4.93834 1.26755 4.93834C1.17699 5.65914 1.48683 6.31623 1.48683 6.31623C1.79666 6.97331 2.41039 7.36202 2.41039 7.36202C3.02391 7.75059 3.75008 7.74999 3.75008 7.74999L3.75059 7.74999C3.8832 7.74985 4.01032 7.69704 4.10399 7.60318C4.19754 7.50944 4.25008 7.38242 4.25008 7.24999L4.25008 7.24948C4.2498 6.97354 4.02603 6.74999 3.75008 6.74999L3.74957 6.74999C3.31369 6.75043 2.94546 6.51721 2.94546 6.51721C2.57722 6.28398 2.39132 5.88973 2.39132 5.88973C2.20542 5.49548 2.25975 5.063 2.25975 5.063C2.31409 4.63052 2.59174 4.29451 2.59174 4.29451C2.86939 3.9585 3.28388 3.82362 3.28388 3.82362C3.69836 3.68873 4.12059 3.79699 4.12059 3.79699C4.54281 3.90524 4.84127 4.22291 4.84127 4.22291Z" fill="#1C1C1C"/>
<path d="M13.0547 6.51721C12.6865 6.75043 12.2506 6.74999 12.2506 6.74999L12.2501 6.74999C12.2423 6.74999 12.2344 6.75017 12.2266 6.75054L11.7507 7.2735C11.7565 7.39766 11.8084 7.5152 11.8962 7.60318C11.9899 7.69704 12.117 7.74985 12.2496 7.74999L12.2501 7.74999C12.9763 7.75059 13.5898 7.36202 13.5898 7.36202C14.2035 6.97331 14.5134 6.31623 14.5134 6.31623C14.8232 5.65914 14.7326 4.93834 14.7326 4.93834C14.6421 4.21754 14.1793 3.65752 14.1793 3.65752C13.7166 3.09751 13.0258 2.8727 13.0258 2.8727C12.3349 2.64789 11.6312 2.82832 11.6312 2.82832C10.9275 3.00874 10.4301 3.5382 10.4301 3.5382C9.93268 4.06765 9.79647 4.78124 9.79647 4.78124C9.79057 4.81214 9.7876 4.84353 9.7876 4.87499C9.7876 4.89001 9.78827 4.90503 9.78963 4.92C9.80971 5.14225 9.97465 5.32428 10.1938 5.36612C10.2247 5.37202 10.2561 5.37499 10.2876 5.37499C10.3026 5.37499 10.3176 5.37431 10.3326 5.37296C10.5549 5.35287 10.7369 5.18794 10.7787 4.96874C10.8605 4.54059 11.1589 4.22291 11.1589 4.22291C11.4574 3.90524 11.8796 3.79699 11.8796 3.79699C12.3018 3.68873 12.7163 3.82362 12.7163 3.82362C13.1308 3.9585 13.4084 4.29451 13.4084 4.29451C13.6861 4.63052 13.7404 5.063 13.7404 5.063C13.7948 5.49548 13.6089 5.88973 13.6089 5.88973C13.423 6.28398 13.0547 6.51721 13.0547 6.51721Z" fill="#1C1C1C"/>
</svg>
